<?xml version="1.0" encoding="utf-8"?>
<!-- Generator: Adobe Illustrator 18.1.1, SVG Export Plug-In . SVG Version: 6.00 Build 0)  -->
<svg version="1.1" id="Layer_1" xmlns="http://www.w3.org/2000/svg" xmlns:xlink="http://www.w3.org/1999/xlink" x="0px" y="0px"
	 viewBox="770 -339.5 2040.5 1178.5" style="enable-background:new 770 -339.5 2040.5 1178.5;" xml:space="preserve">
<g>
	<path style="fill:#FDFCEC;" d="M1193-393.5"/>
	<polygon style="fill:#FDFCEC;" points="1184.5,-382.7 1182.8,-385.6 1185,-386 	"/>
	<polygon style="fill:#FDFCEC;" points="1167.8,-381.7 1166.2,-382.7 1166.5,-384.8 1168.7,-385.3 1168.9,-382.4 	"/>
	<polygon style="fill:#FDFCEC;" points="1309.6,-380.3 1309.1,-380.4 1310.5,-383 1311,-380.9 	"/>
	<polygon style="fill:#FDFCEC;" points="1174.3,-378.4 1173.8,-380.6 1176.3,-381.9 1176.2,-380.1 	"/>
	<polygon style="fill:#FDFCEC;" points="1181,-377.3 1178.8,-377.2 1179.6,-379.7 1181,-379.2 	"/>
	<polygon style="fill:#FDFCEC;" points="1188.3,-376 1187.2,-378.5 1189.1,-379.4 1189.2,-376.5 	"/>
	<polygon style="fill:#FDFCEC;" points="1120,-377.9 1120.7,-375.9 1119.5,-375.3 	"/>
	<polygon style="fill:#FDFCEC;" points="1102,-373.6 1099.8,-374.5 1100.7,-376 1102.1,-375.4 	"/>
	<polygon style="fill:#FDFCEC;" points="1196.1,-367.3 1195,-369.3 1196.6,-371.2 1197,-368.9 	"/>
	<polygon style="fill:#FDFCEC;" points="1126.1,-365.4 1121.6,-365.3 1121.5,-365.9 1125.3,-368.5 1127.3,-368 	"/>
	<polygon style="fill:#FDFCEC;" points="1199.5,-364.8 1199,-364.7 1199.3,-367.4 1200.9,-367.3 1200.9,-365.2 	"/>
	<polygon style="fill:#FDFCEC;" points="1133.6,-354.4 1130.6,-354.8 1130.4,-355.9 1136.7,-357 1137.6,-355.4 	"/>
	<polygon style="fill:#FDFCEC;" points="1293.8,-351.2 1291.5,-353.2 1293.6,-354 1294.8,-352.7 	"/>
	<polygon style="fill:#FDFCEC;" points="1153.2,-350.6 1155.1,-355.9 1157.5,-356 1157.5,-354.3 	"/>
	<polygon style="fill:#FDFCEC;" points="1298.8,-350.2 1297.7,-351.8 1299.8,-352.6 1299.8,-350.7 	"/>
	<polygon style="fill:#FDFCEC;" points="1286.7,-346.9 1286.6,-348.4 1288.4,-350.1 1288.8,-348.1 	"/>
	<polygon style="fill:#FDFCEC;" points="1290.9,-343.8 1288.2,-344.4 1288.9,-345.6 1291.4,-346 	"/>
	<polygon style="fill:#FDFCEC;" points="1201.4,-343 1200.6,-344.3 1202.8,-348 1205.7,-348.8 1206.2,-345.2 	"/>
	<polygon style="fill:#FDFCEC;" points="1328.6,-342.1 1327.1,-344.5 1327.2,-346.5 1328.8,-347.1 1330.2,-345.8 	"/>
	<polygon style="fill:#FDFCEC;" points="1288.5,-322.2 1286.6,-323.3 1287.6,-324.5 1289.4,-323 	"/>
	<polygon style="fill:#FDFCEC;" points="1235.9,-316.7 1233.7,-318 1233.5,-318.9 1237.5,-320.2 1237.4,-318.4 	"/>
	<polygon style="fill:#FDFCEC;" points="1149.8,-297 1146.4,-297.8 1148.2,-299.7 1151.4,-301.1 1153.3,-299.6 	"/>
	<polygon style="fill:#FDFCEC;" points="1214.9,-295 1212.8,-295 1214.3,-297.7 	"/>
	<polygon style="fill:#FDFCEC;" points="1237,-293.9 1235.3,-295.7 1237.2,-296.5 1238.2,-295.2 	"/>
	<polygon style="fill:#FDFCEC;" points="1246.1,-288.4 1244.1,-289.8 1246.5,-292.8 1247.5,-291.2 1247.2,-289.1 	"/>
	<polygon style="fill:#FDFCEC;" points="1165.2,-250.2 1162.8,-250.7 1162.7,-251.3 1164.9,-252.4 	"/>
	<polygon style="fill:#FDFCEC;" points="1208.2,-249.1 1207.8,-250.4 1209.4,-252.8 1217,-255.5 1216.9,-253.2 1211.5,-250 	"/>
	<polygon style="fill:#FDFCEC;" points="1226.8,-247.7 1230.4,-249.1 1231.4,-246.5 1229.8,-245.1 1225.9,-245.6 	"/>
	<polygon style="fill:#FDFCEC;" points="1214.5,-237.9 1212.5,-238.4 1212.2,-240.2 1214.2,-240.6 	"/>
	<polygon style="fill:#FDFCEC;" points="1194.3,-235.5 1192.5,-237 1193,-241.5 1198.6,-246 1203.2,-248.1 1204.8,-247.6 
		1205,-245.3 1204.2,-244.5 1200.7,-244.6 1195.6,-240 1196.1,-236 	"/>
	<polygon style="fill:#FDFCEC;" points="1234.9,-227.7 1228.9,-229.6 1227.8,-232 1234.1,-232.5 	"/>
	<polygon style="fill:#FDFCEC;" points="1187.5,-227.3 1187.2,-229.4 1189.6,-230.3 1191.5,-233.1 1193.5,-231.9 1193.5,-228.7 	"/>
	<polygon style="fill:#FDFCEC;" points="1161.3,-226.3 1158.7,-226.6 1161.1,-228.3 	"/>
	<polygon style="fill:#FDFCEC;" points="1226.5,-222.2 1219.9,-224.6 1220.1,-226.4 1223.8,-226.2 1226.6,-223.6 	"/>
	<polygon style="fill:#FDFCEC;" points="1250.5,-221.1 1246.4,-223 1246.3,-224.4 1248.5,-224.8 	"/>
	<polygon style="fill:#FDFCEC;" points="1213.7,-215.2 1213.2,-217.2 1216.2,-220.3 1218.5,-218.5 1216.4,-218.3 	"/>
	<polygon style="fill:#FDFCEC;" points="1181.8,-215 1179.9,-216.2 1180.3,-217.8 1182.8,-218.1 1183.1,-215.5 	"/>
	<polygon style="fill:#FDFCEC;" points="1206.6,-210.4 1204.7,-210.6 1204.5,-213.5 1206.4,-216.4 1208.4,-215.4 1207.8,-211.9 	"/>
	<polygon style="fill:#FDFCEC;" points="1284.4,-207.1 1285.7,-209.7 1286.5,-209.9 1286.4,-207.7 	"/>
	<polygon style="fill:#FDFCEC;" points="1159.3,-206.1 1160.2,-209.1 1161.7,-208.5 1161.9,-206.7 	"/>
	<polygon style="fill:#FDFCEC;" points="1231.3,-196.9 1227.2,-196.5 1226.6,-198.9 1229.5,-200.1 1232,-198.3 	"/>
	<polygon style="fill:#FDFCEC;" points="1121.9,-195 1121.1,-196.7 1124.3,-197.7 1124,-196.4 	"/>
	<polygon style="fill:#FDFCEC;" points="1050.5,-192.8 1049.7,-195.4 1051.9,-196.2 1051.7,-193.8 	"/>
	<polygon style="fill:#FDFCEC;" points="1171.9,-189.7 1168.9,-190.9 1172.2,-194.9 1172.9,-192.9 	"/>
	<polygon style="fill:#FDFCEC;" points="1245.2,-191.1 1236.3,-190.9 1233.5,-189.6 1231.5,-192.4 1233.8,-193.9 1239.4,-195.1 
		1243.3,-198.3 	"/>
	<polygon style="fill:#FDFCEC;" points="1047.6,-188.7 1045.3,-191.4 1047.9,-191.6 	"/>
	<polygon style="fill:#FDFCEC;" points="1263,-188.4 1261.8,-192 1262.8,-192.1 1265.6,-189.9 	"/>
	<polygon style="fill:#FDFCEC;" points="1243.7,-185.7 1239.4,-185.1 1237.3,-186.1 1237,-187.8 1239.3,-188.3 1243.9,-186.6 	"/>
	<polygon style="fill:#FDFCEC;" points="1150.9,-184 1149.1,-184.6 1149.2,-187.2 1151.7,-184.5 	"/>
	<polygon style="fill:#FDFCEC;" points="1231.3,-182.2 1225.8,-181.3 1227.8,-184.7 1231.9,-185.8 1232.5,-185.6 	"/>
	<polygon style="fill:#FDFCEC;" points="1107.1,-157.7 1110,-161.4 1109.7,-158.3 	"/>
	<polygon style="fill:#FDFCEC;" points="1146.2,-154.7 1146.1,-157.6 1148.6,-157.5 1148.7,-155.2 	"/>
	<polygon style="fill:#FDFCEC;" points="1222.5,-28 1219.9,-28.2 1220.3,-30.9 1222.9,-29.1 	"/>
	<polygon style="fill:#FDFCEC;" points="1235,-22.7 1236.8,-26.5 1237.3,-25.3 1236.6,-23.3 	"/>
	<polygon style="fill:#FDFCEC;" points="1258.8,0.8 1254.3,1.5 1252.1,0.3 1239.4,-15.5 1236.9,-16.7 1236.8,-17.4 1238.9,-18.6 
		1240.9,-21.4 1241.9,-21 1243.2,-15.7 1253.5,-2.4 1257.4,-1.2 	"/>
	<polygon style="fill:#FDFCEC;" points="1261.7,5.7 1260.1,5.9 1259.5,4.4 1260.9,1.7 1262.1,3.6 	"/>
	<polygon style="fill:#FDFCEC;" points="1255.7,6.6 1253.4,5.6 1255.8,3.8 	"/>
	<polygon style="fill:#FDFCEC;" points="1254.2,19.1 1256.9,15.6 1259.7,15.3 1259,16.9 	"/>
	<polygon style="fill:#FDFCEC;" points="1250,22.2 1247.6,22.6 1247.7,20.7 1249.2,19 1251.7,18.8 1251.4,20.6 	"/>
	<polygon style="fill:#FDFCEC;" points="1227.7,65.3 1226.1,64.8 1225.7,61.9 1228.2,63.6 	"/>
	<polygon style="fill:#FDFCEC;" points="1261.9,68.1 1259.9,66.7 1260.8,64.7 1263.4,63.7 	"/>
	<polygon style="fill:#FDFCEC;" points="1258,76.3 1258,70.7 1260,72.9 	"/>
	<polygon style="fill:#FDFCEC;" points="1282.6,91.8 1284.6,88.4 1284.8,91 	"/>
	<polygon style="fill:#FDFCEC;" points="1272.4,98.4 1266.5,98 1261.4,92.3 1264.1,91.8 1268.3,94.6 1273.1,94.9 	"/>
	<polygon style="fill:#FDFCEC;" points="1287.7,100.9 1286,99.9 1285.7,97.8 1287.7,96.9 1289.2,100.3 	"/>
	<polygon style="fill:#FDFCEC;" points="1281.8,103.4 1281,101.8 1282.9,99.8 1283.3,103.1 	"/>
	<polygon style="fill:#FDFCEC;" points="1293.8,112.2 1293.7,110 1292.3,108.3 1292.2,106.4 1295.7,109 1295.1,111.6 	"/>
	<polygon style="fill:#FDFCEC;" points="1264.2,116.5 1263.4,116.6 1263.2,109.1 1267.5,104.5 1269.7,104.2 1271.5,107.2 
		1271,109.2 1266.8,111.6 	"/>
	<polygon style="fill:#FDFCEC;" points="1287,117.8 1285.5,118 1284.6,113.3 1285.8,112 1287.4,114.3 	"/>
	<polygon style="fill:#FDFCEC;" points="1283.4,121.3 1280.8,121.7 1283.1,118.5 1284,119.5 	"/>
	<polygon style="fill:#FDFCEC;" points="1294.9,138.6 1293.4,138.1 1294.3,133.8 1295.6,133.6 	"/>
	<polygon style="fill:#FDFCEC;" points="1305.1,144.4 1303.8,144.4 1299,139.2 1299.9,138.3 1303.7,140.7 	"/>
	<polygon style="fill:#FDFCEC;" points="1296.8,156.7 1294.3,155.9 1296.8,152.8 1298.5,154.1 	"/>
	<polygon style="fill:#FDFCEC;" points="1288.8,157.3 1286.7,154.8 1290.3,154.4 1290.7,156.5 	"/>
	<polygon style="fill:#FDFCEC;" points="1279.1,163 1275.5,161.9 1275.1,160.4 1276.8,159.6 1279.3,162 	"/>
	<polygon style="fill:#FDFCEC;" points="1334.2,212.3 1331.6,212.2 1332,210.8 1334.4,211.3 	"/>
	<polygon style="fill:#FDFCEC;" points="1401.9,297.5 1401.5,293.5 1403.4,294.3 1403.7,296.2 	"/>
	<polygon style="fill:#FDFCEC;" points="1374.2,305.6 1369.6,302.2 1369.9,299.9 1374.4,304 	"/>
	<polygon style="fill:#FDFCEC;" points="1391.2,310.8 1388.9,311.1 1385.2,307.7 1384.8,304.1 1383,301.3 1386.5,300.2 
		1387.7,303.3 1390.9,307.8 	"/>
	<polygon style="fill:#FDFCEC;" points="1531.9,432.8 1536,429.2 1539.4,428 1540.9,430.1 	"/>
	<polygon style="fill:#FDFCEC;" points="2567.4,474 2568.5,475.8 2567.7,481.8 2566.3,479.7 2566.3,478 2566.3,475.1 	"/>
	<polygon style="fill:#FDFCEC;" points="2573.2,485.5 2568,471.3 2572.1,477.3 	"/>
	<polygon style="fill:#FDFCEC;" points="2577.1,490.3 2575.6,490 2575,482.8 	"/>
	<polygon style="fill:#FDFCEC;" points="2573.3,492.6 2571.6,491 2570,482.9 2570.9,482.9 	"/>
	<polygon style="fill:#FDFCEC;" points="2568.1,496.7 2569.3,497.4 2569.7,503.9 2568.5,503.5 2567.7,499.4 	"/>
	<polygon style="fill:#FDFCEC;" points="2608.8,508.4 2609.4,507.6 2612,507.2 2613,506.5 2616,504.4 2623.8,496 2633.5,487.7 
		2634.3,487.8 2629.7,499.2 2627.8,499.8 2626.6,506.9 	"/>
	<polygon style="fill:#FDFCEC;" points="2594.5,511.4 2593.1,511.4 2592.8,510.4 2605.7,508.6 2599.5,510.9 	"/>
	<polygon style="fill:#FDFCEC;" points="2570,510.1 2575.3,509.7 2577.6,510.7 2578.1,512.2 2571,511.5 	"/>
	<polygon style="fill:#FDFCEC;" points="2233,666.4 2234.9,668.1 2235.8,672.6 2235.4,673.9 2234.4,673.5 	"/>
	<polygon style="fill:#FDFCEC;" points="1772.9,699.5 1774.7,704.1 1774.8,705.7 1770.6,709.3 1767.8,714.8 1764.6,715.1 
		1763.3,722.5 1759.7,725.4 1758.1,725 1757.1,724.8 1760.3,722.3 1758.5,718.8 1755.2,707.4 1755,704.1 1753.8,703 1753.6,700.4 
		1759.3,698 1763.7,696.6 1768.9,695.4 1772.1,697.7 1770.3,697.3 1769.2,698.3 1766.3,698.2 1764.5,698.7 1763.9,699.9 
		1764.1,700.6 1770.6,699.3 	"/>
	<polygon style="fill:#FDFCEC;" points="1685.9,777 1686.6,772 1690.3,768.6 1694,777 1693.3,782.1 1689.6,787.2 1685.9,783.8 	"/>
	<polygon style="fill:#FDFCEC;" points="1570.1,-235.9 1571.3,-234.5 1574.1,-237.8 1572.7,-246.5 1572.4,-258.7 1568.1,-273.1 
		1567.8,-273.8 1566,-284.4 1563.4,-286.7 1561.4,-291.9 1563.2,-299.1 1567.6,-304.2 1566.3,-305.3 1565.7,-308.9 1571.4,-323.8 
		1572.9,-334.4 1572.6,-336.5 1567.7,-371 1568.6,-378 1566.6,-393.5 1579.5,-392.2 1583.5,-377 1597.6,-341.8 1604.9,-339.3 
		1610.1,-340.8 1610.8,-336.6 1613.2,-336.9 1614.1,-339.3 1609.4,-346.3 1606.7,-354.2 1602.9,-363.2 1600.2,-372.2 1595.2,-388.4 
		1595.6,-392.8 2844.5,-421 2817,310.3 2808.9,313.1 2805.8,313 2805.4,313 2785.8,325.9 2784.9,328.6 2783.7,331.1 2765.9,346 
		2762.3,350.5 2757.1,354.9 2747.7,367 2741.1,373.7 2739.1,372.2 2737.5,374.1 2736.8,376.9 2725.3,386.5 2715.7,391.1 
		2715.1,392.6 2712.9,397.1 2702.9,401.7 2701.3,400.7 2705.6,397.1 2695.7,397.1 2693,397.1 2694.9,403.6 2694.5,404.2 
		2696.1,404.1 2693.2,407.5 2691.6,410.9 2691.8,412.3 2699.5,404.1 2700.4,405.2 2698.7,409.3 2695.1,414 2689.9,418.5 2688,418.6 
		2687,420.7 2687.8,423.4 2683.1,427.8 2677.7,434.8 2675.3,436.6 2667.9,447.6 2663.4,454.2 2659.3,455.5 2645.6,471.5 
		2638.7,482.5 2635.8,485.3 2633.2,485.2 2632.2,483.5 2634.4,478.1 2637.2,477.3 2639,475.7 2640.1,474 2642.2,471 2654.8,457.1 
		2660.7,452.6 2671.2,441.8 2673.3,436.9 2670.6,436.6 2665,440.6 2664.4,443.3 2661.6,448.3 2661.3,448.8 2655.8,453 2654.3,455.3 
		2650.3,459.1 2645,462.1 2636.2,469 2629.6,472.2 2624.6,473.4 2623.3,473.8 2619.9,472.5 2613.8,471.6 2613.7,472.9 2617.8,474.5 
		2620.5,474.6 2619.3,476.2 2610.1,475.6 2605.2,479.4 2603.8,479.3 2603.2,481.7 2600.4,482.4 2598.7,495.3 2597.4,499.2 
		2595.9,500.6 2594.7,497.4 2594.9,487.1 2592.5,483.7 2590.4,490.1 2591.1,498 2590.7,502.4 2588.5,509.3 2585.9,499.5 
		2585.9,490.9 2583.9,493.7 2582.3,493.9 2580.3,491.2 2578.1,486.1 2577.4,481.6 2574.9,479 2572.4,466.5 2568.1,461.6 
		2566.3,464.1 2566.2,469.1 2564.6,470.9 2565.9,479.8 2567.1,494.5 2566.1,500.2 2566.6,505.5 2564.4,509.8 2560.8,513.7 
		2556,514.9 2550.5,514.3 2544.2,515.8 2537,516.3 2531.5,516.1 2527.3,516.6 2511.8,515.6 2498.6,516.6 2497.6,516.4 2487,515.1 
		2484.2,515.2 2476.4,515.4 2469.5,516.6 2466.7,518.4 2466.8,515.2 2467.3,511.2 2466.7,510.4 2466.7,511.3 2465.2,511.9 
		2461.3,518.3 2458.7,519.6 2448.6,521.9 2447.2,521.3 2442.4,523.2 2439.6,523.2 2430.9,526.1 2430.2,527.4 2424.7,529.2 
		2423.5,526.5 2422.2,527.2 2423,530.2 2410.7,533.4 2401,539.1 2398.5,539.7 2398,538.4 2400.4,530.9 2397.9,533.3 2395.1,535.7 
		2394.9,537.7 2394.7,542.1 2389.6,543.8 2378.7,549.8 2365.5,559.5 2364.2,558.1 2360.3,560.9 2361,563.4 2360.3,566 2357.8,571.1 
		2353.4,572.7 2353.8,573.8 2352.7,574.6 2346.3,585.1 2342.5,593.8 2332.2,604.5 2328.8,605.5 2323.5,605.4 2316.3,603.9 
		2310.7,601 2310.8,602.5 2316.1,606.5 2327.8,610.7 2334.8,606.2 2340.7,598.2 2342.1,599.5 2336.5,606.2 2332.7,613.6 
		2330.1,620.8 2324.5,636.7 2316.2,648.1 2308.8,656 2302.7,661.1 2290.4,670.2 2287.9,671.5 2271,680 2266.2,684.2 2264,683.4 
		2254.9,691.4 2246.6,687.8 2243.9,684.1 2242.2,680.2 2241.8,676.6 2242.5,672.9 2244,670.8 2244.6,669.9 2247.7,660.5 
		2245.5,649.7 2242.6,640.6 2230.7,623.7 2223.3,619.5 2218.2,614.1 2213.7,613.7 2216.3,616.2 2219,622.5 2225.3,624.7 
		2236.5,640.9 2239,646.2 2240.3,652.4 2244.2,658.6 2240.1,673.7 2239.5,673.4 2239.3,669 2239.5,667.5 2240.3,662.9 2237.5,648.7 
		2234.7,644.1 2232.9,642.4 2232.4,643.9 2231.9,645 2234.2,647.1 2237.1,653.5 2236.4,659.6 2232.8,656.8 2231,653.5 2230.2,645.4 
		2228.3,640.8 2227,633.8 2225.5,632.4 2224.4,635.9 2225.1,640.6 2227.1,645.3 2226.4,647.5 2221.9,645.6 2218.6,645.4 2213.4,648 
		2207.4,640.7 2201.9,640.9 2197.1,642.8 2198.9,643.9 2204.4,642.9 2206,643.9 2211.9,651.2 2223.9,651.5 2227.1,654.4 
		2226.7,659.5 2229.2,661.6 2230.7,664.3 2231.1,670.5 2228,668.1 2222.8,669.1 2219.4,664.8 2215.4,661.7 2212.4,661.4 
		2205.7,663.2 2203,665.8 2205.6,666.5 2214,665.8 2215.3,667.1 2218.1,667.9 2220.7,669.8 2225.4,675.7 2227.8,677.1 2229.9,681.9 
		2234.3,688.2 2236.1,686.5 2232.9,678.1 2237.3,679.9 2238.3,682.6 2240.8,689.9 2243.5,691.8 2250.9,691.8 2250.7,693.2 
		2243.7,695 2231.9,695.4 2212.5,702.4 2205.2,704.4 2191.4,708.3 2184.2,711.7 2175.4,712.7 2169.9,715.8 2160,718.3 2142,724.8 
		2139,727.7 2134.2,728.9 2125,729 2115.1,727.9 2096.5,724 2085.8,719.5 2084.4,719.3 2079,718.5 2075.5,716.7 2058.5,718 
		2056,723.5 2041.4,721.7 2041.5,720.3 2047.6,719.6 2049.1,718.3 2044.1,714.4 2040.7,712.7 2035.7,710.4 2032,710.1 2031.9,712.6 
		2034.5,715.9 2035.6,718.7 2037.5,719.4 2037.9,720.9 2034.9,722.5 2031.5,722.2 2023.6,718 2016.3,716.7 2013.1,715 2011.9,711.9 
		2009.5,712.3 1999.6,706.5 1996.3,706.2 1987,698.2 1984.8,696.5 1973.2,691.9 1968.6,693.6 1962.1,689.3 1952.8,685.5 
		1948.1,682.3 1937.2,677.3 1927.5,671.8 1923.9,671.3 1921.1,668.8 1920.1,669 1916.9,669.7 1914.6,666.2 1910.7,666.9 
		1907.9,664.8 1896,660.1 1892.9,658.1 1884.9,657.4 1866.4,651.9 1858.1,651.4 1846.4,651.6 1839,650.1 1834.4,650.7 1828.6,649.7 
		1828,649.8 1818,651.5 1814.1,653.2 1812.7,651.8 1811.5,648.7 1812.7,642 1811.1,641.9 1809.1,649.1 1810,653 1796.9,654.1 
		1787.9,652.7 1784.8,650.8 1778.3,647 1743.3,617.3 1742.2,614.2 1745.7,614.4 1747.2,613.9 1747.6,612.3 1745,609.2 1739.4,607.6 
		1741.4,612.6 1740.1,613.3 1736.9,609 1733.6,606.6 1729.4,601.8 1727,598.2 1727.9,596.2 1729.8,596.6 1730.9,595 1728.7,592.9 
		1727.1,592.2 1725.1,597.6 1723.3,597.5 1713.9,587.9 1710.5,583.2 1700,573.2 1694.7,569.1 1691.1,567.6 1686.9,562.2 
		1676.2,552.9 1660.2,539 1653,533.3 1639,524.2 1642,522.7 1645.3,523.8 1654.1,522.1 1656.7,518.1 1658,515.6 1659.1,509.8 
		1661.9,503.8 1661.4,502 1662.8,497.1 1667.9,485.6 1664.7,486.6 1659.8,491.6 1659.4,495.2 1656.5,494.9 1653.5,504.5 
		1648.5,509.4 1633.1,516.8 1634.7,519.8 1633.1,520.5 1615.7,508.2 1613.9,505.6 1611.9,505.4 1607.3,502.5 1600.6,496.2 
		1597.6,495.8 1595,496.7 1592.5,495.7 1590.5,493 1589.9,492.3 1574.1,487.9 1560.5,479.9 1552.4,471.2 1544.8,466.4 1541.5,465.2 
		1540.1,462.6 1541.7,455.3 1538.6,442.7 1535.6,440.3 1535.9,438.4 1537.2,437.2 1537.3,435.8 1539.2,433.9 1546.9,431.6 
		1551.1,431.9 1557.2,436.8 1559.8,431.7 1556.2,429.7 1553.7,429.3 1552.4,427.9 1549.5,428 1545.4,429.1 1540.6,427.2 
		1535.9,427.8 1529.8,431.8 1526.4,435.6 1524.6,438.7 1522.3,440.5 1521.8,440.2 1521.1,440.2 1520.3,440.2 1518.5,440.1 
		1517.7,440.8 1517.4,441 1517.1,442.5 1516.4,442.4 1516.1,442.3 1515,442.5 1515,444.8 1517.4,449.3 1522.2,455.1 1527.6,458.2 
		1536.2,461.8 1539.4,464.9 1539.2,465.9 1538.6,465.7 1519.8,459.7 1517.8,460.1 1501.9,467.3 1500,471.2 1503.7,479.1 
		1502.9,480.8 1499.5,481.9 1493.6,482.3 1489.4,482.1 1480.1,481.8 1458.1,488.2 1451,488.5 1447.5,491.5 1433,496.1 1426.2,492.8 
		1425.6,492 1419.2,484.3 1411,471.9 1402.1,471.7 1396.6,469.9 1394.9,471.8 1392.8,477.4 1390.5,479.2 1374.3,484.4 1370.9,486.9 
		1365.5,487.3 1360.8,486.7 1356.1,488.2 1351.6,486.7 1349.3,488.2 1338.6,490.1 1337.8,490.3 1329.6,490.3 1322.7,487.7 
		1318.5,488 1314.4,489.2 1311.9,491.7 1310.4,491.4 1306.7,490.6 1292.3,487.3 1288.6,484.2 1281.9,484.8 1278.8,482.7 
		1277.8,480.9 1271.1,477 1268.8,477.5 1258.9,486.1 1256.3,486.4 1255.8,490 1256.3,492.6 1255,494.5 1250.9,492.6 1250.2,490.6 
		1251.5,488.5 1250.2,487.7 1242.6,491.3 1240,494 1233.1,491.8 1225,501.2 1218.2,500.9 1209.8,499.2 1206.3,496.8 1203.1,496.1 
		1201.9,495.9 1197.2,497.5 1188.5,505 1185.3,506.2 1182.3,507.4 1181.2,502.9 1179.1,502.9 1175.1,497 1174.4,494.6 1175,493 
		1177.5,491.2 1179.7,487.2 1182,485.2 1182.3,480.8 1183.8,476.5 1181.8,474.9 1180,471.9 1178.6,469.4 1176,467.1 1175.5,468 
		1174.3,466 1173.6,461.2 1175.6,454.8 1178.6,454.5 1183.2,444.2 1183.6,439.2 1185.4,436.2 1185.4,432.5 1197.8,429.8 
		1198.7,428.3 1197.4,424.8 1195.2,425.4 1191.4,426.6 1185.8,424.7 1183.5,424.8 1181.6,422.8 1179,422.3 1175.3,417.8 
		1174.3,414.6 1171.2,414.9 1169.5,411.6 1171.6,409.8 1170.5,408.4 1170.8,407.3 1182.7,397.1 1184.2,387.9 1183,379.2 
		1184.1,377.4 1182.8,372.5 1184.2,368.5 1183.5,364.9 1184.8,358 1185.7,356.6 1188.5,351.8 1198.4,355.4 1200.2,358.9 1199.7,359 
		1203,362.6 1206.4,364.1 1210.3,371 1213.4,373.1 1214.6,375.5 1217.1,376.4 1220.9,381.4 1224.7,397.1 1220.9,399.6 1222.3,405.6 
		1221.8,408.4 1222.4,410.6 1227,406.5 1228.9,405.7 1241.4,410.6 1251,411.5 1256.8,410.1 1257.1,409.1 1257.6,407.6 1257.3,402.2 
		1257.9,399.5 1261.8,397.1 1266,392 1270.5,390.5 1272.2,392 1275.6,391.7 1284.2,385 1289.4,380.9 1295.6,380.4 1302.8,387 
		1308.9,388.9 1309.9,387 1314.2,386.3 1321,379.6 1322.3,375.2 1328.4,373.2 1331.5,370.5 1333.4,371.5 1339.1,370.6 1339.9,370.5 
		1341.7,373.9 1343.9,371.2 1347.9,370.3 1353.4,361.2 1356.6,364.1 1359.7,362.6 1365.4,362.2 1362.1,358 1361.4,358.2 
		1357.9,354.9 1352.3,352.9 1347.6,347.6 1349.7,346.5 1348.3,344.3 1345.2,344.9 1342.8,346.2 1341.4,346.1 1342,344.4 
		1343.7,343.7 1343.8,340.7 1345.3,339.1 1345.1,336.8 1353.5,331.9 1354.2,333.2 1351.3,336.6 1354.1,337.2 1356.2,334.9 
		1359.5,333.4 1361.4,337.5 1361.1,340.3 1357.5,337.4 1356.9,339.2 1353.7,340.3 1350.6,341.4 1351.2,343.1 1355.2,344.7 
		1362.1,343.2 1363.4,345.3 1368.6,344.3 1368.2,341.1 1371.7,341.4 1373.6,340.5 1373.3,338.8 1367.7,337.2 1366.7,335.7 
		1367.5,333.9 1373,334.3 1374.7,332.8 1374.6,332.1 1365.7,329.2 1363,326.7 1362,325 1358.4,319.2 1353.2,315.4 1348.5,313.6 
		1344.5,314.7 1344.6,311.9 1347.3,310.5 1348.5,308.2 1352.8,309.7 1356.6,313.8 1360,314.6 1362.8,313.1 1365.7,308.9 
		1366.9,309.8 1365.7,313.5 1367.9,316.2 1371.7,314.1 1372.4,316.4 1372.6,316.9 1377.5,316.1 1378.3,312 1381.2,311.2 
		1385.1,315.3 1387.5,315.2 1389.7,320.6 1389.4,326 1390.6,327.5 1392.3,325.1 1397.5,326.1 1400.6,325.7 1400.5,325 1393.6,321.4 
		1394.2,318.3 1396.7,317.7 1396.9,315.4 1394.7,314.1 1394.6,313.1 1397.6,312.4 1399.5,312 1399.7,311.5 1400.2,310.3 
		1393.1,305.6 1394.2,301.5 1398.5,300 1403.4,304.3 1403.9,307.2 1402.5,310 1403.4,310.7 1408.8,309.7 1412,307.3 1410.6,305.2 
		1411.1,303.7 1415.5,302.9 1418.5,301.3 1421.2,301.6 1421.1,301 1426,300 1426.1,298.7 1421.6,296.9 1418.3,295.6 1410.4,299.6 
		1407.9,299.1 1406.3,300.7 1405,299.4 1408.6,294.7 1406.2,290.8 1407,289.4 1409.7,288.3 1412.3,289.6 1415.3,286.2 1415.4,286.9 
		1418.8,287.3 1421.8,284.4 1418.2,281.8 1407,285.4 1404.8,284.3 1398.9,281.3 1393.2,283.3 1391.8,282 1394.7,279.9 1395.7,274.4 
		1394.2,267.6 1389.1,265.9 1383,266.9 1382.7,269.6 1378.6,270.5 1376.6,270.1 1375.5,271.7 1372.8,269.7 1374.2,267.8 
		1377.9,266.7 1375.2,264.3 1376.2,263 1376.6,263 1378.9,262.7 1380.6,258.9 1380.4,252.6 1381.5,251.7 1392.1,236.9 1396.2,234.5 
		1414.5,209.1 1416.3,208.9 1420.7,212.3 1425.6,211.2 1427.3,212.2 1427.9,212.6 1431.6,211.6 1435,212.7 1438.1,212.1 
		1439.2,209.9 1437.4,208.3 1429.5,208.5 1427.9,203.6 1433.4,198.7 1439.2,196.1 1442.2,192 1443.4,191.8 1445.7,191.3 
		1447.8,192.6 1449.7,191.7 1449.7,188.1 1453.8,188.7 1455.4,191.6 1454.1,195.4 1456.7,198.6 1461.5,198.7 1463.6,196.3 
		1466.3,195.6 1466.3,196.1 1471.4,193.9 1472.3,199.2 1477.8,202.6 1486.5,201.7 1489,197.2 1491.5,192.3 1495.7,188.9 
		1501.6,187.6 1503.7,186.6 1504.9,186 1504.8,185.4 1498.2,184 1494,184.6 1488.9,187.8 1487.2,191.5 1483.1,194.3 1477.8,193.6 
		1476.6,191.4 1484.9,188.4 1487,186.3 1486.1,183.5 1481.1,179.8 1472.3,179.6 1471,179.5 1463.7,181.7 1459.5,180.8 1456.6,181.4 
		1447.2,178.3 1443.7,174.6 1431.2,176.9 1425,182.6 1420.9,183.5 1420.2,184.9 1411.9,192 1409,197.1 1408.7,197.2 1401.8,199.7 
		1397.3,208.9 1393.6,211.6 1390.5,215.8 1382.6,220 1374.2,228.2 1369.8,228.9 1366.9,231.5 1364.7,230.3 1355,231.3 1351.1,231.8 
		1342.8,231.6 1338.8,227.4 1335.2,225.3 1331.7,224.9 1327.9,227.3 1326.5,224.5 1330.1,222.7 1332.4,217.7 1335,217.1 
		1336.5,213.6 1339.7,213 1344.9,202.3 1346.5,202.8 1347.5,205 1349.4,201.9 1353.4,197.7 1353.6,193.9 1357.3,194.7 1362.8,192.9 
		1365,195 1366.9,194.7 1368.2,191 1370,190.6 1372.8,193.6 1376.5,192.7 1379.6,191.3 1379,187.9 1379.8,185.9 1384.1,184.7 
		1383.4,183.7 1381.9,181.6 1375.2,185.1 1370.7,179.5 1368,180 1368.1,180.5 1364.6,179.5 1361.2,182.6 1358.9,182 1355.7,182.5 
		1353.8,184.5 1355,190.3 1353.4,190.5 1346.4,184.6 1344.9,182.4 1341.5,177.1 1345.2,167.2 1347.6,165.5 1346.3,158.3 
		1347.1,149.2 1349.7,148 1349.4,157.1 1353.3,153.6 1353.5,142.8 1356.2,139.5 1355.2,136.4 1356.6,130.8 1362.2,117.9 
		1363.3,117.7 1365.1,119.8 1366.5,119.8 1368.6,116.8 1373.5,115.1 1379.2,108.3 1383.2,110 1392,106.8 1397,104.1 1401.1,105.5 
		1404.5,104.7 1405.8,105.4 1407.5,104.4 1407,101.9 1405.5,101.6 1402.1,98.2 1401.3,98.8 1394.1,99.1 1393.5,97.6 1399,95.8 
		1402.3,92.5 1405.5,84 1408.9,80.4 1407.1,78.3 1401,79.5 1395.9,79.3 1393.4,82 1387.4,85.4 1384.1,86.3 1383.6,87.5 1386.3,91.3 
		1382.9,92.4 1379.7,90.4 1377.8,92.6 1376.2,96.5 1374.5,97.5 1370.7,104.9 1368.3,106.2 1367.9,104 1370.9,99.3 1372.4,97 
		1370.2,94.4 1366.9,97.2 1363.6,97.6 1357.2,108.6 1350.3,108.5 1344.7,112.3 1342.4,103.7 1346.1,97.5 1349.1,89.5 1349,85.5 
		1347.5,85.7 1343.8,90 1344.1,93.1 1344.2,93.9 1339.6,98.8 1337.9,104 1337.1,108.9 1338.6,114 1335,116.1 1331.1,120.8 
		1332.3,124.7 1331.3,139.2 1329.4,140.6 1326.3,140.4 1325.1,140.1 1325.5,136.8 1323,137.6 1320.2,140.3 1313.3,146.7 
		1311.5,146.3 1313.8,142.3 1317.1,139.8 1317.4,137.6 1311.6,141.3 1309.2,141.2 1306.8,139.5 1305.7,137.4 1305,137.5 
		1302.6,134.6 1302.7,127.2 1300,126.9 1300.4,123 1299.5,122.8 1293.7,131.4 1292.7,131.8 1292.7,130.9 1292.5,127.8 1301,110 
		1302.3,105.7 1296.6,105.5 1295.8,101 1296.5,99.8 1298.8,99.5 1299.1,97.7 1297.4,95.7 1292.7,98.1 1292.5,96 1296.1,92 
		1292.7,89.8 1292.3,87.7 1294.7,84.5 1295,84.1 1295.8,80.9 1294.2,81 1288.8,87.5 1286.2,85.7 1282.1,88 1278.8,92.8 1277.2,93 
		1274.4,91.4 1272.1,92.8 1266.9,83.3 1268.4,79.2 1265.3,77.9 1266.9,74.4 1266.8,66.5 1270.8,63 1269.9,61.3 1269.8,61.1 
		1264.1,62.4 1262.3,57.7 1259.1,52.4 1259.6,49.6 1244.5,39.4 1244.2,34.3 1246.7,34.9 1249,39.5 1252.2,42.2 1261.8,47.5 
		1261.7,46.9 1263.7,46.5 1273.4,44.4 1273.7,43 1271.2,40.7 1265.6,43.7 1265,42.4 1270.1,30.3 1271.5,29 1278.8,28.6 1276,25.5 
		1269.8,23.4 1271.9,19.2 1274.5,14.4 1253.3,32.3 1251.8,31.8 1252.2,30.5 1252.9,27.3 1251.1,23.9 1257.3,20.9 1261.4,17.7 
		1265.5,8.3 1268.8,7.7 1270.2,0.7 1270.5,-5.8 1272.5,-7.4 1277.5,-9.4 1278,-12.5 1276.9,-15.8 1271.1,-17.7 1266.6,-21 
		1264.9,-21.2 1263.1,-19.5 1260.6,-19.1 1259.1,-20.6 1255,-20 1250.9,-16.5 1246.1,-18.7 1246,-19.3 1250.4,-21 1249.1,-25.4 
		1252.6,-27.1 1252.9,-30.5 1248.6,-29.3 1244.7,-28.2 1246,-30.6 1251.6,-34.9 1254.5,-43.6 1253.9,-45.8 1258.5,-49 1257.5,-50 
		1254.2,-49.8 1250.5,-46 1249.9,-40.8 1247.5,-37.7 1242.5,-38.3 1242.3,-40 1242.7,-41.5 1244.4,-42.2 1245.8,-42.9 1245.9,-44.5 
		1245.1,-46 1244.5,-45.9 1243.6,-44.5 1242.7,-42.5 1241.8,-42.2 1239.4,-42.2 1237.8,-42.5 1236.9,-40.6 1236.8,-37.6 1235,-36.2 
		1228.8,-38.9 1226.7,-41.5 1223.5,-39.7 1211.3,-28.6 1211.4,-27.8 1217.9,-25.7 1218,-25 1214.6,-23.8 1204.7,-25.7 1198,-21.1 
		1196.3,-21.1 1195.4,-21.1 1187.2,-26.6 1188.9,-28 1197.9,-25 1200,-25.6 1201.3,-29.4 1197.5,-31.6 1195.4,-30 1192.3,-32 
		1193.9,-34.5 1193.3,-39.1 1190.1,-39.7 1187.6,-41.7 1184.9,-41.9 1183.3,-42.1 1173.3,-38.9 1169.8,-39.8 1166.4,-38.7 
		1166.6,-37.2 1178.4,-29.4 1183.3,-25.2 1183,-24.2 1175.8,-28 1168.4,-33.2 1161.6,-35 1158.8,-35.4 1154.3,-35.9 1150.2,-39.6 
		1131.8,-35.5 1126.6,-35.5 1121.5,-39.2 1111.3,-39.8 1111,-39.1 1105.1,-37 1098.6,-39.2 1091.4,-38.7 1081,-40.8 1072.8,-44.4 
		1067.4,-45.2 1050.6,-52.3 1045.2,-52.7 1032.7,-53.6 1024.8,-51.8 1020.6,-48.5 1020.8,-42.3 1019.5,-39 1014.9,-36.2 
		1008.3,-34.1 1005.3,-34.4 999.7,-38.5 993,-40.3 988.4,-40 976,-39.2 975.8,-40.2 979.6,-42 991,-43 988,-45.1 982.9,-46.1 
		979.1,-44.8 969.9,-39.4 961.6,-29.3 961,-26.6 961.5,-25.7 964.3,-20.5 962.7,-16.5 958.6,-11 959.3,-11.1 960.6,-7.3 952.9,-5.1 
		945.5,-8.1 940.4,-6 934.2,-3.4 927.9,-3.6 921.1,1.4 916.3,-3.1 913.5,-3.6 911.2,-6 907.4,-6.9 906,-8.7 902.7,-8.7 899.6,-11.5 
		893.6,-12.6 893.4,-17.1 889.6,-26.7 889.4,-27.1 886.3,-31.4 879.1,-47.9 879.9,-52.7 877.2,-53 876.4,-49.8 874.2,-49.4 
		872.6,-50.9 869.8,-60.4 864.7,-70.1 862.3,-84.6 864.6,-85.9 869,-83.3 873.1,-85.6 876.1,-85.5 879.4,-90 881.8,-90.4 
		884.1,-95.2 888.8,-97.6 891.7,-102.8 894,-103.4 897,-102.3 904.2,-107.6 907.2,-107.8 910.5,-106.6 914.1,-109.9 916.6,-107.4 
		917.7,-106.4 915.1,-105.7 915.1,-103.9 920.9,-98.3 923.2,-97.9 918.7,-104.3 920.5,-104.8 927.7,-97 940.1,-94 944.6,-90.6 
		951.2,-89 953.1,-89.2 957.3,-89.6 960.2,-88.5 965.2,-92.5 970.4,-102 973.2,-102.1 976.9,-100.4 982.6,-101.8 987.1,-105.6 
		991.9,-117.1 995,-120.7 998.3,-121.2 1004,-119.7 1004.7,-119.5 1009.9,-119.6 1016.1,-121.9 1018.3,-121.7 1018.9,-120.6 
		1017,-117.9 1024.5,-117.1 1020.4,-128.1 1024.1,-127.7 1027.7,-130.2 1028.1,-131.7 1033.4,-128.9 1034.8,-122.7 1031.4,-116.9 
		1031.4,-114.8 1031.4,-113.9 1033.2,-112.3 1036,-112.8 1037.7,-114.4 1035.6,-117.2 1037.5,-119.6 1040.2,-120 1042.4,-118.7 
		1043.9,-114 1040.4,-111 1040.5,-107.7 1044.3,-105.3 1049.7,-108.5 1051.5,-108.4 1054.4,-106 1057.5,-106.3 1058.5,-106.4 
		1060.9,-109.3 1063.3,-122.4 1060.5,-127.5 1060.6,-133.2 1057.4,-142.1 1058.4,-147 1060.4,-149.8 1063.4,-154 1067.8,-158.1 
		1074.4,-156.2 1077.6,-154.6 1079.5,-153.5 1092.1,-151.5 1092.4,-150.4 1091.8,-149.8 1085,-142.5 1082.1,-135.4 1083.6,-130.2 
		1079.5,-129.9 1078.1,-124.6 1074.2,-119.6 1077.7,-114.5 1079.6,-115.8 1082.4,-111.7 1083.4,-110.2 1083.9,-105.6 1086.7,-105.5 
		1089,-101.4 1090.4,-102.1 1090.9,-108.6 1088.1,-126.5 1088.6,-127.9 1091,-126.9 1091.8,-129.3 1097.1,-128.3 1101.5,-125.2 
		1105.9,-125.3 1108.7,-121.5 1108.3,-119.2 1106.8,-110.4 1107.8,-108.8 1109.3,-109.6 1111.4,-118.6 1110.5,-125.7 1108.3,-128.2 
		1099.9,-129.5 1098.6,-131.1 1101.3,-143.5 1105.6,-148.7 1106.9,-149.8 1110.8,-153 1112.6,-154.5 1120.1,-154.3 1125.2,-151 
		1126,-149.8 1127.3,-147.8 1128.1,-141.3 1132.2,-141.7 1134.2,-145.4 1137.3,-146.1 1141.7,-149.8 1143.9,-151.6 1147.1,-151.9 
		1149.7,-149.8 1149.8,-149.8 1154.5,-154.7 1163.1,-159.3 1163.4,-159.5 1165.6,-162.6 1145.6,-164.2 1144.9,-165.9 1146.2,-168 
		1154.8,-171.2 1156,-168.7 1158.6,-169.4 1161.1,-177.7 1170.2,-181.9 1172.9,-187.2 1174.5,-188.3 1177.6,-190.6 1180.1,-189.6 
		1180.6,-187.1 1177.7,-183.9 1178.1,-181.7 1182.9,-185 1185.2,-181.7 1188.6,-179.5 1185.1,-178.7 1183.7,-174.1 1188.1,-174.4 
		1188.2,-173.8 1185.1,-170.3 1184.1,-166.5 1180,-165.1 1176.6,-162.2 1174.1,-161.4 1173.4,-160 1175.5,-159.2 1178.7,-159.6 
		1178.8,-159.6 1180.8,-161.8 1184,-161.5 1186.9,-165.2 1189.1,-164 1187.8,-159.2 1186.5,-157.9 1190.3,-155.7 1190.3,-151.6 
		1190.9,-149.8 1191.4,-148 1196.5,-144.1 1200.4,-144.8 1207,-139.9 1212.2,-131.6 1213.5,-131.4 1211.9,-136.7 1211.1,-138 
		1204.1,-148.2 1203.5,-149.8 1202.8,-151.6 1205.3,-156.6 1204.6,-160.2 1208.2,-163.8 1209.5,-166.5 1214.3,-163.9 1215.9,-164.1 
		1214.7,-170.1 1222.7,-176.2 1228.9,-174.4 1232.3,-174.6 1242.1,-172.3 1249.8,-174.6 1255.4,-178.1 1263.6,-178.2 1264.9,-180.2 
		1266.4,-179.9 1272.2,-182.2 1273.8,-179.8 1278.3,-178.3 1280.7,-174 1286.3,-174.8 1298.6,-170.9 1299.1,-166.3 1300,-166.2 
		1306.8,-165.7 1308.5,-163.9 1309.6,-165.1 1313.7,-165.8 1317,-161.9 1318.9,-162.1 1321.8,-169.1 1326.4,-166.4 1327.7,-166.4 
		1329.7,-168.6 1341.9,-167.4 1350.7,-163.1 1359.3,-164.1 1363.8,-160.8 1367.6,-161.5 1375,-162.9 1394.2,-163.8 1396.2,-160.7 
		1398,-162.5 1400.8,-164.7 1401,-168 1402.7,-171.1 1400.6,-181 1395.2,-183.1 1392.7,-184.1 1391.5,-188.3 1393.9,-192.8 
		1402,-198.7 1404.3,-202.4 1403.3,-210.1 1407.1,-212.7 1411.5,-221.2 1414.1,-230.2 1416.1,-232.4 1419.3,-242.9 1418.6,-242.8 
		1417.5,-246.6 1416,-256.4 1412.7,-261.1 1412,-260.4 1406.6,-261.9 1402.3,-261.5 1395.8,-260.8 1394,-259.2 1393.3,-253.4 
		1390.6,-250.4 1391.7,-244.7 1390.9,-240.9 1388.7,-242 1384.2,-235.4 1377.7,-230.6 1368.4,-220.9 1352.3,-210 1347.4,-208.6 
		1333.6,-207.7 1330.8,-206.4 1327.9,-207.4 1324.2,-207.2 1322,-208.8 1320.6,-209.8 1319.8,-213.4 1312.5,-214.2 1308.3,-213.6 
		1305.7,-215.5 1299.8,-214.6 1297.3,-216 1292.9,-214.4 1289.6,-216 1286.1,-219.5 1279.1,-222.9 1277,-223 1273.1,-226.3 
		1263.7,-230.7 1261.6,-234.6 1257.9,-241.6 1254.3,-240.9 1253.5,-236 1248.8,-236 1244.8,-234.9 1243.3,-231.4 1241.2,-233.1 
		1239.2,-233.2 1236.5,-235.8 1228.4,-236.6 1221.4,-235.8 1217.4,-239.1 1218.8,-241.5 1217.6,-244.7 1220.5,-245.1 1222.9,-243.6 
		1226.4,-241.2 1230.1,-241.4 1232.8,-243.4 1236.8,-249.8 1241.6,-247.9 1244.2,-250.2 1241.9,-252.1 1229,-255.4 1226.6,-254.6 
		1222,-250.7 1220.3,-251.5 1222.7,-255.8 1228.3,-261.2 1231.2,-272.9 1235.3,-276.1 1237,-280.1 1239.3,-280.9 1241.5,-279.8 
		1245.1,-281.3 1248,-282.5 1251.8,-285.7 1251.8,-290.4 1250.7,-292.4 1254.8,-294.9 1258.1,-300.2 1260.3,-299.6 1260.6,-296.9 
		1263,-296.4 1265.9,-300.3 1267.4,-305.6 1266.2,-309.2 1267.2,-311.1 1271.2,-312.5 1276.2,-313.1 1286.3,-317.9 1288.7,-320.1 
		1293.7,-320.2 1295.2,-320.3 1308.2,-326.1 1315.4,-330 1323.4,-338.7 1328.6,-342.1 1339.9,-350.7 1341.4,-354.1 1344.2,-354.3 
		1347.9,-358.4 1348,-357.9 1354.3,-358.4 1357.3,-360.6 1359.8,-367.6 1359.1,-367.5 1358.3,-369.7 1360.4,-369.4 1365.7,-359.7 
		1368.6,-361.3 1363.7,-370 1369.2,-372.8 1372.4,-378.5 1379.9,-377.6 1380,-376.9 1402,-382.1 1404.5,-381 1405.6,-381.7 
		1413.3,-386.4 1420.3,-394.1 1403.3,-390.5 1399.4,-389.3 1395.8,-390.2 1391.6,-393.5 1368.4,-394 1362.9,-393.5 1359.9,-390.1 
		1358.7,-391.4 1308.8,-391.4 1308.4,-392 1302.5,-384.7 1300,-384.3 1298.6,-385.6 1296,-384.4 1293.1,-388.1 1292.2,-389.2 
		1288.3,-388.8 1287,-391.2 1283.9,-389.5 1476.8,-393.6 1477.7,-392.7 1484.5,-394.2 1531.6,-394.1 1536.6,-389.1 1538.5,-386.4 
		1542.7,-387.2 1543.3,-383.5 1540.7,-375.9 1545,-369.5 1546.1,-362.5 1544.4,-356.1 1546.9,-341.3 1544.5,-328.3 1543.2,-321.5 
		1544.3,-312.6 1548.2,-309.3 1548.5,-303.8 1551.4,-300 1550.7,-297.2 1553,-293.1 1557.6,-285 1557.9,-278.8 1566.6,-260.9 
		1567,-248.7 1567.7,-238.5 	"/>
	<path style="fill:#E5EDF0;" d="M2402.2,33.3c-2.4,6-9.6,20.4-25.3,16.8c-15.6-3.6-26.5-3.6-33.7,8.4c-7.2,12-9.6,15.6-18,22.9
		c-8.4,7.2-9.6,18-7.2,25.3c2.4,7.2,14.4,18,14.4,18l9.6,1.2c0,0-19.2,12-22.9,18c-3.6,6-9.6,21.7-14.4,32.5
		c-4.8,10.8-14.4,24.1-19.2,28.9c-4.8,4.8-14.4,52.9-1.2,58.9c13.2,6,14.4,7.2,15.6,15.6c1.2,8.4,14.4,12,13.2,18
		c-1.2,6-7.2,50.5,12,50.5c19.2,0,22.9,8.4,34.9,7.2c12-1.2,24.1-6,26.5-14.4c2.4-8.4,2.4-12,3.6-16.8c1.2-4.8,3.6-16.8,3.6-16.8
		s12,2.4,20.4-6c8.4-8.4,14.4-18,20.4-12c6,6,10.8,0,13.2-4.8c2.4-4.8,3.6-12,9.6-9.6c6,2.4,9.6,4.8,14.4,8.4
		c4.8,3.6,14.4,12,7.2,25.3c-7.2,13.2-8.4,42.1-8.4,49.3c0,7.2-7.2,33.7,6,42.1c13.2,8.4,43.3,6,50.5-1.2c7.2-7.2,13.2-18,3.6-27.7
		c-9.6-9.6-21.7-14.4-14.4-19.2c7.2-4.8,12-9.6,13.2-15.6c1.2-6,2.4-13.2,21.7-8.4c19.2,4.8,37.3,3.6,42.1,10.8
		c4.8,7.2-3.6,16.8-9.6,24.1c-6,7.2-9.6,13.2,1.2,24.1c10.8,10.8,24.1,20.4,28.9,25.3c4.8,4.8,14.4,10.8,24.1,10.8
		c9.6,0,30.1-3.6,36.1-13.2c6-9.6,9.6-19.2,12-25.3c2.4-6,4.8-12,10.8-16.8c6-4.8,25.3-13.2,34.9-14.4c9.6-1.2,22.9-18,16.8-30.1
		c-6-12-10.8-13.2-12-24.1c-1.2-10.8,2.4-26.5,2.4-26.5s7.2,7.2,13.2,14.4c6,7.2,15.6,9.6,21.7,3.6c6-6,10.8-9.6,1.2-18
		c-9.6-8.4-10.8-13.2-10.8-19.2c0-6,7.2-10.8,15.6-8.4c8.4,2.4,22.9,6,30.1,8.4c7.2,2.4,31.9-294.7,19.8-298.3
		c-12-3.6-51.1-1.2-63.1-3.6c-12-2.4-19.2-1.2-27.7,8.4c-8.4,9.6-9.6,19.2-22.9,20.5c-13.2,1.2-27.7,9.6-32.5,21.6
		c-4.8,12-10.8,30.1-19.2,37.3c-8.4,7.2-30.1,14.4-19.2,4.8c10.8-9.6,9.6-15.6,6-27.7c-3.6-12-7.2-26.5-12-22.9
		c-4.8,3.6-8.4,9.6-8.4,18c0,8.4-7.2,21.7-12,12c-4.8-9.6-4.8-16.8,4.8-33.7c9.6-16.8,6-28.9,2.4-38.5c-3.6-9.6-7.2-15.6-16.8-14.4
		c-9.6,1.2-25.3,10.8-36.1,8.4c-10.8-2.4-32.5-3.6-40.9,7.2S2515.3-34,2496.1-34s-36.1,0-39.7,7.2c-3.6,7.2-7.2,16.8-25.3,26.5
		c-18,9.6-19.2,20.4-19.2,20.4S2404.6,27.3,2402.2,33.3z"/>
	<path style="fill:#E5EDF0;" d="M2040.1-82.1c-15.6,9.6-19.2,20.5-19.2,28.9c0,8.4-1.2,25.3,2.4,30.1s8.4,26.5,16.8,31.3
		c8.4,4.8,16.8,13.2,20.5,20.5c3.6,7.2,24.1,21.7,34.9,13.2c10.8-8.4,18-21.7,20.5-10.8c2.4,10.8,10.8,14.4,20.4,14.4
		c9.6,0,14.4-3.6,10.8-15.6c-3.6-12-7.2-20.4,4.8-18c12,2.4,22.9-1.2,28.9-12c6-10.8,14.4-31.3,14.4-38.5s7.2-13.2-1.2-43.3
		c-8.4-30.1-20.4-22.9-24.1-34.9c-3.6-12-20.5-7.2-27.7-4.8c-7.2,2.4-16.8-1.2-31.3-9.6c-14.4-8.4-26.5-7.2-33.7-1.2
		c-7.2,6-15.6,10.8-18,21.7c-2.4,10.8-9.6,19.2-9.6,19.2S2055.8-91.8,2040.1-82.1z"/>
	<path style="fill:#E5EDF0;" d="M1874.1-103.8c-9.6,0-22.9,12-28.9,18c-6,6-27.7,32.5-27.7,40.9s-1.2,22.9-1.2,22.9s-7.2-7.2-14.4,0
		c-7.2,7.2-13.2,19.2-18,25.3c-4.8,6-19.2,9.6-28.9,13.2c-9.6,3.6-34.9,15.6-39.7,21.7c-4.8,6-18,15.6-24.1,20.4s-9.6,40.9,2.4,32.5
		c12-8.4,21.7,4.8,24.1,13.2c2.4,8.4-3.6,18,13.2,21.7c16.8,3.6,25.3-4.8,26.5-12c1.2-7.2,9.6-25.3,12-4.8
		c2.4,20.4,10.8,28.9,24.1,14.4c13.2-14.4,26.5-25.3,39.7-31.3c13.2-6,21.7-4.8,26.5-19.2c4.8-14.4-6-15.6,8.4-28.9
		c14.4-13.2,15.6-20.4,10.8-27.7c-4.8-7.2-6-13.2,6-21.7c12-8.4,20.5-10.8,13.2-24.1c-7.2-13.2-9.6-14.4-2.4-21.6
		c7.2-7.2,13.2-18,8.4-37.3C1899.4-107.4,1883.8-103.8,1874.1-103.8z"/>
	<path style="fill:#E5EDF0;" d="M1999.2,530.1c0,0-18-18-18,1.2c0,19.2,0,34.9-6,39.7c-6,4.8-7.5,17.9-11.1,22.7
		c-3.6,4.8-11.7,1.4-19-4.6c-7.2-6-21.7-9.6-28.9-9.6c-7.2,0-34.9-7.2-38.5,0c-3.6,7.2,0,20.5,8.4,22.9c8.4,2.4,15.6,8.4,25.3,14.4
		c9.6,6,29.4,9.8,39.7,1.5c19.4-15.7,33.6,5.7,42.1,14.1c8.4,8.4,25.3,13.2,57.7,12c32.5-1.2,36.1-10.8,36.1-19.2s1.2-21.7,9.6-30.1
		c8.4-8.4,6-21.7,0-26.5c-6-4.8-13.2-13.2-4.8-18c8.4-4.8,7.2-12-1.2-25.3c-8.4-13.2-25.3-14.4-28.9-20.4c-3.6-6-10.8-4.8-20.4-1.2
		c-9.6,3.6-20.5,3.6-27.7,7.2c-7.2,3.6-8.4,7.2-9.6,12C2002.8,527.7,1999.2,530.1,1999.2,530.1z"/>
	<path style="fill:none;stroke:#CBC9BC;stroke-linejoin:round;" d="M1193-393.5"/>
	<polygon style="fill:none;stroke:#CBC9BC;stroke-linejoin:round;" points="1184.5,-382.7 1182.8,-385.6 1185,-386 	"/>
	<polygon style="fill:none;stroke:#CBC9BC;stroke-linejoin:round;" points="1167.8,-381.7 1166.2,-382.7 1166.5,-384.8 
		1168.7,-385.3 1168.9,-382.4 	"/>
	<polygon style="fill:none;stroke:#CBC9BC;stroke-linejoin:round;" points="1309.6,-380.3 1309.1,-380.4 1310.5,-383 1311,-380.9 	
		"/>
	<polygon style="fill:none;stroke:#CBC9BC;stroke-linejoin:round;" points="1174.3,-378.4 1173.8,-380.6 1176.3,-381.9 
		1176.2,-380.1 	"/>
	<polygon style="fill:none;stroke:#CBC9BC;stroke-linejoin:round;" points="1181,-377.3 1178.8,-377.2 1179.6,-379.7 1181,-379.2 	
		"/>
	<polygon style="fill:none;stroke:#CBC9BC;stroke-linejoin:round;" points="1188.3,-376 1187.2,-378.5 1189.1,-379.4 1189.2,-376.5 
			"/>
	<polygon style="fill:none;stroke:#CBC9BC;stroke-linejoin:round;" points="1120,-377.9 1120.7,-375.9 1119.5,-375.3 	"/>
	<polygon style="fill:none;stroke:#CBC9BC;stroke-linejoin:round;" points="1102,-373.6 1099.8,-374.5 1100.7,-376 1102.1,-375.4 	
		"/>
	<polygon style="fill:none;stroke:#CBC9BC;stroke-linejoin:round;" points="1196.1,-367.3 1195,-369.3 1196.6,-371.2 1197,-368.9 	
		"/>
	<polygon style="fill:none;stroke:#CBC9BC;stroke-linejoin:round;" points="1126.1,-365.4 1121.6,-365.3 1121.5,-365.9 
		1125.3,-368.5 1127.3,-368 	"/>
	<polygon style="fill:none;stroke:#CBC9BC;stroke-linejoin:round;" points="1199.5,-364.8 1199,-364.7 1199.3,-367.4 1200.9,-367.3 
		1200.9,-365.2 	"/>
	<polygon style="fill:none;stroke:#CBC9BC;stroke-linejoin:round;" points="1133.6,-354.4 1130.6,-354.8 1130.4,-355.9 1136.7,-357 
		1137.6,-355.4 	"/>
	<polygon style="fill:none;stroke:#CBC9BC;stroke-linejoin:round;" points="1293.8,-351.2 1291.5,-353.2 1293.6,-354 1294.8,-352.7 
			"/>
	<polygon style="fill:none;stroke:#CBC9BC;stroke-linejoin:round;" points="1153.2,-350.6 1155.1,-355.9 1157.5,-356 1157.5,-354.3 
			"/>
	<polygon style="fill:none;stroke:#CBC9BC;stroke-linejoin:round;" points="1298.8,-350.2 1297.7,-351.8 1299.8,-352.6 
		1299.8,-350.7 	"/>
	<polygon style="fill:none;stroke:#CBC9BC;stroke-linejoin:round;" points="1286.7,-346.9 1286.6,-348.4 1288.4,-350.1 
		1288.8,-348.1 	"/>
	<polygon style="fill:none;stroke:#CBC9BC;stroke-linejoin:round;" points="1290.9,-343.8 1288.2,-344.4 1288.9,-345.6 1291.4,-346 
			"/>
	<polygon style="fill:none;stroke:#CBC9BC;stroke-linejoin:round;" points="1201.4,-343 1200.6,-344.3 1202.8,-348 1205.7,-348.8 
		1206.2,-345.2 	"/>
	<polygon style="fill:none;stroke:#CBC9BC;stroke-linejoin:round;" points="1328.6,-342.1 1327.1,-344.5 1327.2,-346.5 
		1328.8,-347.1 1330.2,-345.8 	"/>
	<polygon style="fill:none;stroke:#CBC9BC;stroke-linejoin:round;" points="1288.5,-322.2 1286.6,-323.3 1287.6,-324.5 1289.4,-323 
			"/>
	<polygon style="fill:none;stroke:#CBC9BC;stroke-linejoin:round;" points="1235.9,-316.7 1233.7,-318 1233.5,-318.9 1237.5,-320.2 
		1237.4,-318.4 	"/>
	<polygon style="fill:none;stroke:#CBC9BC;stroke-linejoin:round;" points="1149.8,-297 1146.4,-297.8 1148.2,-299.7 1151.4,-301.1 
		1153.3,-299.6 	"/>
	<polygon style="fill:none;stroke:#CBC9BC;stroke-linejoin:round;" points="1214.9,-295 1212.8,-295 1214.3,-297.7 	"/>
	<polygon style="fill:none;stroke:#CBC9BC;stroke-linejoin:round;" points="1237,-293.9 1235.3,-295.7 1237.2,-296.5 1238.2,-295.2 
			"/>
	<polygon style="fill:none;stroke:#CBC9BC;stroke-linejoin:round;" points="1246.1,-288.4 1244.1,-289.8 1246.5,-292.8 
		1247.5,-291.2 1247.2,-289.1 	"/>
	<polygon style="fill:none;stroke:#CBC9BC;stroke-linejoin:round;" points="1165.2,-250.2 1162.8,-250.7 1162.7,-251.3 
		1164.9,-252.4 	"/>
	<polygon style="fill:none;stroke:#CBC9BC;stroke-linejoin:round;" points="1208.2,-249.1 1207.8,-250.4 1209.4,-252.8 1217,-255.5 
		1216.9,-253.2 1211.5,-250 	"/>
	<polygon style="fill:none;stroke:#CBC9BC;stroke-linejoin:round;" points="1226.8,-247.7 1230.4,-249.1 1231.4,-246.5 
		1229.8,-245.1 1225.9,-245.6 	"/>
	<polygon style="fill:none;stroke:#CBC9BC;stroke-linejoin:round;" points="1214.5,-237.9 1212.5,-238.4 1212.2,-240.2 
		1214.2,-240.6 	"/>
	<polygon style="fill:none;stroke:#CBC9BC;stroke-linejoin:round;" points="1194.3,-235.5 1192.5,-237 1193,-241.5 1198.6,-246 
		1203.2,-248.1 1204.8,-247.6 1205,-245.3 1204.2,-244.5 1200.7,-244.6 1195.6,-240 1196.1,-236 	"/>
	<polygon style="fill:none;stroke:#CBC9BC;stroke-linejoin:round;" points="1234.9,-227.7 1228.9,-229.6 1227.8,-232 1234.1,-232.5 
			"/>
	<polygon style="fill:none;stroke:#CBC9BC;stroke-linejoin:round;" points="1187.5,-227.3 1187.2,-229.4 1189.6,-230.3 
		1191.5,-233.1 1193.5,-231.9 1193.5,-228.7 	"/>
	<polygon style="fill:none;stroke:#CBC9BC;stroke-linejoin:round;" points="1161.3,-226.3 1158.7,-226.6 1161.1,-228.3 	"/>
	<polygon style="fill:none;stroke:#CBC9BC;stroke-linejoin:round;" points="1226.5,-222.2 1219.9,-224.6 1220.1,-226.4 
		1223.8,-226.2 1226.6,-223.6 	"/>
	<polygon style="fill:none;stroke:#CBC9BC;stroke-linejoin:round;" points="1250.5,-221.1 1246.4,-223 1246.3,-224.4 1248.5,-224.8 
			"/>
	<polygon style="fill:none;stroke:#CBC9BC;stroke-linejoin:round;" points="1213.7,-215.2 1213.2,-217.2 1216.2,-220.3 
		1218.5,-218.5 1216.4,-218.3 	"/>
	<polygon style="fill:none;stroke:#CBC9BC;stroke-linejoin:round;" points="1181.8,-215 1179.9,-216.2 1180.3,-217.8 1182.8,-218.1 
		1183.1,-215.5 	"/>
	<polygon style="fill:none;stroke:#CBC9BC;stroke-linejoin:round;" points="1206.6,-210.4 1204.7,-210.6 1204.5,-213.5 
		1206.4,-216.4 1208.4,-215.4 1207.8,-211.9 	"/>
	<polygon style="fill:none;stroke:#CBC9BC;stroke-linejoin:round;" points="1284.4,-207.1 1285.7,-209.7 1286.5,-209.9 
		1286.4,-207.7 	"/>
	<polygon style="fill:none;stroke:#CBC9BC;stroke-linejoin:round;" points="1159.3,-206.1 1160.2,-209.1 1161.7,-208.5 
		1161.9,-206.7 	"/>
	<polygon style="fill:none;stroke:#CBC9BC;stroke-linejoin:round;" points="1231.3,-196.9 1227.2,-196.5 1226.6,-198.9 
		1229.5,-200.1 1232,-198.3 	"/>
	<polygon style="fill:none;stroke:#CBC9BC;stroke-linejoin:round;" points="1121.9,-195 1121.1,-196.7 1124.3,-197.7 1124,-196.4 	
		"/>
	<polygon style="fill:none;stroke:#CBC9BC;stroke-linejoin:round;" points="1050.5,-192.8 1049.7,-195.4 1051.9,-196.2 
		1051.7,-193.8 	"/>
	<polygon style="fill:none;stroke:#CBC9BC;stroke-linejoin:round;" points="1171.9,-189.7 1168.9,-190.9 1172.2,-194.9 
		1172.9,-192.9 	"/>
	<polygon style="fill:none;stroke:#CBC9BC;stroke-linejoin:round;" points="1245.2,-191.1 1236.3,-190.9 1233.5,-189.6 
		1231.5,-192.4 1233.8,-193.9 1239.4,-195.1 1243.3,-198.3 	"/>
	<polygon style="fill:none;stroke:#CBC9BC;stroke-linejoin:round;" points="1047.6,-188.7 1045.3,-191.4 1047.9,-191.6 	"/>
	<polygon style="fill:none;stroke:#CBC9BC;stroke-linejoin:round;" points="1263,-188.4 1261.8,-192 1262.8,-192.1 1265.6,-189.9 	
		"/>
	<polygon style="fill:none;stroke:#CBC9BC;stroke-linejoin:round;" points="1243.7,-185.7 1239.4,-185.1 1237.3,-186.1 1237,-187.8 
		1239.3,-188.3 1243.9,-186.6 	"/>
	<polygon style="fill:none;stroke:#CBC9BC;stroke-linejoin:round;" points="1150.9,-184 1149.1,-184.6 1149.2,-187.2 1151.7,-184.5 
			"/>
	<polygon style="fill:none;stroke:#CBC9BC;stroke-linejoin:round;" points="1231.3,-182.2 1225.8,-181.3 1227.8,-184.7 
		1231.9,-185.8 1232.5,-185.6 	"/>
	<polygon style="fill:none;stroke:#CBC9BC;stroke-linejoin:round;" points="1107.1,-157.7 1110,-161.4 1109.7,-158.3 	"/>
	<polygon style="fill:none;stroke:#CBC9BC;stroke-linejoin:round;" points="1146.2,-154.7 1146.1,-157.6 1148.6,-157.5 
		1148.7,-155.2 	"/>
	<polygon style="fill:none;stroke:#CBC9BC;stroke-linejoin:round;" points="1222.5,-28 1219.9,-28.2 1220.3,-30.9 1222.9,-29.1 	"/>
	<polygon style="fill:none;stroke:#CBC9BC;stroke-linejoin:round;" points="1235,-22.7 1236.8,-26.5 1237.3,-25.3 1236.6,-23.3 	"/>
	<polygon style="fill:none;stroke:#CBC9BC;stroke-linejoin:round;" points="1258.8,0.8 1254.3,1.5 1252.1,0.3 1239.4,-15.5 
		1236.9,-16.7 1236.8,-17.4 1238.9,-18.6 1240.9,-21.4 1241.9,-21 1243.2,-15.7 1253.5,-2.4 1257.4,-1.2 	"/>
	<polygon style="fill:none;stroke:#CBC9BC;stroke-linejoin:round;" points="1261.7,5.7 1260.1,5.9 1259.5,4.4 1260.9,1.7 
		1262.1,3.6 	"/>
	<polygon style="fill:none;stroke:#CBC9BC;stroke-linejoin:round;" points="1255.7,6.6 1253.4,5.6 1255.8,3.8 	"/>
	<polygon style="fill:none;stroke:#CBC9BC;stroke-linejoin:round;" points="1254.2,19.1 1256.9,15.6 1259.7,15.3 1259,16.9 	"/>
	<polygon style="fill:none;stroke:#CBC9BC;stroke-linejoin:round;" points="1250,22.2 1247.6,22.6 1247.7,20.7 1249.2,19 
		1251.7,18.8 1251.4,20.6 	"/>
	<polygon style="fill:none;stroke:#CBC9BC;stroke-linejoin:round;" points="1227.7,65.3 1226.1,64.8 1225.7,61.9 1228.2,63.6 	"/>
	<polygon style="fill:none;stroke:#CBC9BC;stroke-linejoin:round;" points="1261.9,68.1 1259.9,66.7 1260.8,64.7 1263.4,63.7 	"/>
	<polygon style="fill:none;stroke:#CBC9BC;stroke-linejoin:round;" points="1258,76.3 1258,70.7 1260,72.9 	"/>
	<polygon style="fill:none;stroke:#CBC9BC;stroke-linejoin:round;" points="1282.6,91.8 1284.6,88.4 1284.8,91 	"/>
	<polygon style="fill:none;stroke:#CBC9BC;stroke-linejoin:round;" points="1272.4,98.4 1266.5,98 1261.4,92.3 1264.1,91.8 
		1268.3,94.6 1273.1,94.9 	"/>
	<polygon style="fill:none;stroke:#CBC9BC;stroke-linejoin:round;" points="1287.7,100.9 1286,99.9 1285.7,97.8 1287.7,96.9 
		1289.2,100.3 	"/>
	<polygon style="fill:none;stroke:#CBC9BC;stroke-linejoin:round;" points="1281.8,103.4 1281,101.8 1282.9,99.8 1283.3,103.1 	"/>
	<polygon style="fill:none;stroke:#CBC9BC;stroke-linejoin:round;" points="1293.8,112.2 1293.7,110 1292.3,108.3 1292.2,106.4 
		1295.7,109 1295.1,111.6 	"/>
	<polygon style="fill:none;stroke:#CBC9BC;stroke-linejoin:round;" points="1264.2,116.5 1263.4,116.6 1263.2,109.1 1267.5,104.5 
		1269.7,104.2 1271.5,107.2 1271,109.2 1266.8,111.6 	"/>
	<polygon style="fill:none;stroke:#CBC9BC;stroke-linejoin:round;" points="1287,117.8 1285.5,118 1284.6,113.3 1285.8,112 
		1287.4,114.3 	"/>
	<polygon style="fill:none;stroke:#CBC9BC;stroke-linejoin:round;" points="1283.4,121.3 1280.8,121.7 1283.1,118.5 1284,119.5 	"/>
	<polygon style="fill:none;stroke:#CBC9BC;stroke-linejoin:round;" points="1294.9,138.6 1293.4,138.1 1294.3,133.8 1295.6,133.6 	
		"/>
	<polygon style="fill:none;stroke:#CBC9BC;stroke-linejoin:round;" points="1305.1,144.4 1303.8,144.4 1299,139.2 1299.9,138.3 
		1303.7,140.7 	"/>
	<polygon style="fill:none;stroke:#CBC9BC;stroke-linejoin:round;" points="1296.8,156.7 1294.3,155.9 1296.8,152.8 1298.5,154.1 	
		"/>
	<polygon style="fill:none;stroke:#CBC9BC;stroke-linejoin:round;" points="1288.8,157.3 1286.7,154.8 1290.3,154.4 1290.7,156.5 	
		"/>
	<polygon style="fill:none;stroke:#CBC9BC;stroke-linejoin:round;" points="1279.1,163 1275.5,161.9 1275.1,160.4 1276.8,159.6 
		1279.3,162 	"/>
	<polygon style="fill:none;stroke:#CBC9BC;stroke-linejoin:round;" points="1334.2,212.3 1331.6,212.2 1332,210.8 1334.4,211.3 	"/>
	<polygon style="fill:none;stroke:#CBC9BC;stroke-linejoin:round;" points="1401.9,297.5 1401.5,293.5 1403.4,294.3 1403.7,296.2 	
		"/>
	<polygon style="fill:none;stroke:#CBC9BC;stroke-linejoin:round;" points="1374.2,305.6 1369.6,302.2 1369.9,299.9 1374.4,304 	"/>
	<polygon style="fill:none;stroke:#CBC9BC;stroke-linejoin:round;" points="1391.2,310.8 1388.9,311.1 1385.2,307.7 1384.8,304.1 
		1383,301.3 1386.5,300.2 1387.7,303.3 1390.9,307.8 	"/>
	<polygon style="fill:none;stroke:#CBC9BC;stroke-linejoin:round;" points="1531.9,432.8 1536,429.2 1539.4,428 1540.9,430.1 	"/>
	<polygon style="fill:none;stroke:#CBC9BC;stroke-linejoin:round;" points="2567.4,474 2568.5,475.8 2567.7,481.8 2566.3,479.7 
		2566.3,478 2566.3,475.1 	"/>
	<polygon style="fill:none;stroke:#CBC9BC;stroke-linejoin:round;" points="2573.2,485.5 2568,471.3 2572.1,477.3 	"/>
	<polygon style="fill:none;stroke:#CBC9BC;stroke-linejoin:round;" points="2577.1,490.3 2575.6,490 2575,482.8 	"/>
	<polygon style="fill:none;stroke:#CBC9BC;stroke-linejoin:round;" points="2573.3,492.6 2571.6,491 2570,482.9 2570.9,482.9 	"/>
	<polygon style="fill:none;stroke:#CBC9BC;stroke-linejoin:round;" points="2568.1,496.7 2569.3,497.4 2569.7,503.9 2568.5,503.5 
		2567.7,499.4 	"/>
	<polygon style="fill:none;stroke:#CBC9BC;stroke-linejoin:round;" points="2608.8,508.4 2609.4,507.6 2612,507.2 2613,506.5 
		2616,504.4 2623.8,496 2633.5,487.7 2634.3,487.8 2629.7,499.2 2627.8,499.8 2626.6,506.9 	"/>
	<polygon style="fill:none;stroke:#CBC9BC;stroke-linejoin:round;" points="2594.5,511.4 2593.1,511.4 2592.8,510.4 2605.7,508.6 
		2599.5,510.9 	"/>
	<polygon style="fill:none;stroke:#CBC9BC;stroke-linejoin:round;" points="2570,510.1 2575.3,509.7 2577.6,510.7 2578.1,512.2 
		2571,511.5 	"/>
	<polygon style="fill:none;stroke:#CBC9BC;stroke-linejoin:round;" points="2233,666.4 2234.9,668.1 2235.8,672.6 2235.4,673.9 
		2234.4,673.5 	"/>
	<polygon style="fill:none;stroke:#CBC9BC;stroke-linejoin:round;" points="1772.9,699.5 1774.7,704.1 1774.8,705.7 1770.6,709.3 
		1767.8,714.8 1764.6,715.1 1763.3,722.5 1759.7,725.4 1758.1,725 1757.1,724.8 1760.3,722.3 1758.5,718.8 1755.2,707.4 1755,704.1 
		1753.8,703 1753.6,700.4 1759.3,698 1763.7,696.6 1768.9,695.4 1772.1,697.7 1770.3,697.3 1769.2,698.3 1766.3,698.2 1764.5,698.7 
		1763.9,699.9 1764.1,700.6 1770.6,699.3 	"/>
	<polygon style="fill:none;stroke:#CBC9BC;stroke-linejoin:round;" points="1685.9,777 1686.6,772 1690.3,768.6 1694,777 
		1693.3,782.1 1689.6,787.2 1685.9,783.8 	"/>
	<polygon style="fill:none;stroke:#CBC9BC;stroke-linejoin:round;" points="1570.1,-235.9 1571.3,-234.5 1574.1,-237.8 
		1572.7,-246.5 1572.4,-258.7 1568.1,-273.1 1567.8,-273.8 1566,-284.4 1563.4,-286.7 1561.4,-291.9 1563.2,-299.1 1567.6,-304.2 
		1566.3,-305.3 1565.7,-308.9 1571.4,-323.8 1572.9,-334.4 1572.6,-336.5 1567.7,-371 1568.6,-378 1566.6,-393.5 1579.5,-392.2 
		1583.5,-377 1597.6,-341.8 1604.9,-339.3 1610.1,-340.8 1610.8,-336.6 1613.2,-336.9 1614.1,-339.3 1609.4,-346.3 1606.7,-354.2 
		1602.9,-363.2 1600.2,-372.2 1595.2,-388.4 1595.6,-392.8 2832.8,-394.7 2817,310.3 2808.9,313.1 2805.8,313 2805.4,313 
		2785.8,325.9 2784.9,328.6 2783.7,331.1 2765.9,346 2762.3,350.5 2757.1,354.9 2747.7,367 2741.1,373.7 2739.1,372.2 2737.5,374.1 
		2736.8,376.9 2725.3,386.5 2715.7,391.1 2715.1,392.6 2712.9,397.1 2702.9,401.7 2701.3,400.7 2705.6,397.1 2695.7,397.1 
		2693,397.1 2694.9,403.6 2694.5,404.2 2696.1,404.1 2693.2,407.5 2691.6,410.9 2691.8,412.3 2699.5,404.1 2700.4,405.2 
		2698.7,409.3 2695.1,414 2689.9,418.5 2688,418.6 2687,420.7 2687.8,423.4 2683.1,427.8 2677.7,434.8 2675.3,436.6 2667.9,447.6 
		2663.4,454.2 2659.3,455.5 2645.6,471.5 2638.7,482.5 2635.8,485.3 2633.2,485.2 2632.2,483.5 2634.4,478.1 2637.2,477.3 
		2639,475.7 2640.1,474 2642.2,471 2654.8,457.1 2660.7,452.6 2671.2,441.8 2673.3,436.9 2670.6,436.6 2665,440.6 2664.4,443.3 
		2661.6,448.3 2661.3,448.8 2655.8,453 2654.3,455.3 2650.3,459.1 2645,462.1 2636.2,469 2629.6,472.2 2624.6,473.4 2623.3,473.8 
		2619.9,472.5 2613.8,471.6 2613.7,472.9 2617.8,474.5 2620.5,474.6 2619.3,476.2 2610.1,475.6 2605.2,479.4 2603.8,479.3 
		2603.2,481.7 2600.4,482.4 2598.7,495.3 2597.4,499.2 2595.9,500.6 2594.7,497.4 2594.9,487.1 2592.5,483.7 2590.4,490.1 
		2591.1,498 2590.7,502.4 2588.5,509.3 2585.9,499.5 2585.9,490.9 2583.9,493.7 2582.3,493.9 2580.3,491.2 2578.1,486.1 
		2577.4,481.6 2574.9,479 2572.4,466.5 2568.1,461.6 2566.3,464.1 2566.2,469.1 2564.6,470.9 2565.9,479.8 2567.1,494.5 
		2566.1,500.2 2566.6,505.5 2564.4,509.8 2560.8,513.7 2556,514.9 2550.5,514.3 2544.2,515.8 2537,516.3 2531.5,516.1 2527.3,516.6 
		2511.8,515.6 2498.6,516.6 2497.6,516.4 2487,515.1 2484.2,515.2 2476.4,515.4 2469.5,516.6 2466.7,518.4 2466.8,515.2 
		2467.3,511.2 2466.7,510.4 2466.7,511.3 2465.2,511.9 2461.3,518.3 2458.7,519.6 2448.6,521.9 2447.2,521.3 2442.4,523.2 
		2439.6,523.2 2430.9,526.1 2430.2,527.4 2424.7,529.2 2423.5,526.5 2422.2,527.2 2423,530.2 2410.7,533.4 2401,539.1 2398.5,539.7 
		2398,538.4 2400.4,530.9 2397.9,533.3 2395.1,535.7 2394.9,537.7 2394.7,542.1 2389.6,543.8 2378.7,549.8 2365.5,559.5 
		2364.2,558.1 2360.3,560.9 2361,563.4 2360.3,566 2357.8,571.1 2353.4,572.7 2353.8,573.8 2352.7,574.6 2346.3,585.1 2342.5,593.8 
		2332.2,604.5 2328.8,605.5 2323.5,605.4 2316.3,603.9 2310.7,601 2310.8,602.5 2316.1,606.5 2327.8,610.7 2334.8,606.2 
		2340.7,598.2 2342.1,599.5 2336.5,606.2 2332.7,613.6 2330.1,620.8 2324.5,636.7 2316.2,648.1 2308.8,656 2302.7,661.1 
		2290.4,670.2 2287.9,671.5 2271,680 2266.2,684.2 2264,683.4 2254.9,691.4 2246.6,687.8 2243.9,684.1 2242.2,680.2 2241.8,676.6 
		2242.5,672.9 2244,670.8 2244.6,669.9 2247.7,660.5 2245.5,649.7 2242.6,640.6 2230.7,623.7 2223.3,619.5 2218.2,614.1 
		2213.7,613.7 2216.3,616.2 2219,622.5 2225.3,624.7 2236.5,640.9 2239,646.2 2240.3,652.4 2244.2,658.6 2240.1,673.7 2239.5,673.4 
		2239.3,669 2239.5,667.5 2240.3,662.9 2237.5,648.7 2234.7,644.1 2232.9,642.4 2232.4,643.9 2231.9,645 2234.2,647.1 2237.1,653.5 
		2236.4,659.6 2232.8,656.8 2231,653.5 2230.2,645.4 2228.3,640.8 2227,633.8 2225.5,632.4 2224.4,635.9 2225.1,640.6 2227.1,645.3 
		2226.4,647.5 2221.9,645.6 2218.6,645.4 2213.4,648 2207.4,640.7 2201.9,640.9 2197.1,642.8 2198.9,643.9 2204.4,642.9 2206,643.9 
		2211.9,651.2 2223.9,651.5 2227.1,654.4 2226.7,659.5 2229.2,661.6 2230.7,664.3 2231.1,670.5 2228,668.1 2222.8,669.1 
		2219.4,664.8 2215.4,661.7 2212.4,661.4 2205.7,663.2 2203,665.8 2205.6,666.5 2214,665.8 2215.3,667.1 2218.1,667.9 2220.7,669.8 
		2225.4,675.7 2227.8,677.1 2229.9,681.9 2234.3,688.2 2236.1,686.5 2232.9,678.1 2237.3,679.9 2238.3,682.6 2240.8,689.9 
		2243.5,691.8 2250.9,691.8 2250.7,693.2 2243.7,695 2231.9,695.4 2212.5,702.4 2205.2,704.4 2191.4,708.3 2184.2,711.7 
		2175.4,712.7 2169.9,715.8 2160,718.3 2142,724.8 2139,727.7 2134.2,728.9 2125,729 2115.1,727.9 2096.5,724 2085.8,719.5 
		2084.4,719.3 2079,718.5 2075.5,716.7 2058.5,718 2056,723.5 2041.4,721.7 2041.5,720.3 2047.6,719.6 2049.1,718.3 2044.1,714.4 
		2040.7,712.7 2035.7,710.4 2032,710.1 2031.9,712.6 2034.5,715.9 2035.6,718.7 2037.5,719.4 2037.9,720.9 2034.9,722.5 
		2031.5,722.2 2023.6,718 2016.3,716.7 2013.1,715 2011.9,711.9 2009.5,712.3 1999.6,706.5 1996.3,706.2 1987,698.2 1984.8,696.5 
		1973.2,691.9 1968.6,693.6 1962.1,689.3 1952.8,685.5 1948.1,682.3 1937.2,677.3 1927.5,671.8 1923.9,671.3 1921.1,668.8 
		1920.1,669 1916.9,669.7 1914.6,666.2 1910.7,666.9 1907.9,664.8 1896,660.1 1892.9,658.1 1884.9,657.4 1866.4,651.9 1858.1,651.4 
		1846.4,651.6 1839,650.1 1834.4,650.7 1828.6,649.7 1828,649.8 1818,651.5 1814.1,653.2 1812.7,651.8 1811.5,648.7 1812.7,642 
		1811.1,641.9 1809.1,649.1 1810,653 1796.9,654.1 1787.9,652.7 1784.8,650.8 1778.3,647 1743.3,617.3 1742.2,614.2 1745.7,614.4 
		1747.2,613.9 1747.6,612.3 1745,609.2 1739.4,607.6 1741.4,612.6 1740.1,613.3 1736.9,609 1733.6,606.6 1729.4,601.8 1727,598.2 
		1727.9,596.2 1729.8,596.6 1730.9,595 1728.7,592.9 1727.1,592.2 1725.1,597.6 1723.3,597.5 1713.9,587.9 1710.5,583.2 1700,573.2 
		1694.7,569.1 1691.1,567.6 1686.9,562.2 1676.2,552.9 1660.2,539 1653,533.3 1639,524.2 1642,522.7 1645.3,523.8 1654.1,522.1 
		1656.7,518.1 1658,515.6 1659.1,509.8 1661.9,503.8 1661.4,502 1662.8,497.1 1667.9,485.6 1664.7,486.6 1659.8,491.6 1659.4,495.2 
		1656.5,494.9 1653.5,504.5 1648.5,509.4 1633.1,516.8 1634.7,519.8 1633.1,520.5 1615.7,508.2 1613.9,505.6 1611.9,505.4 
		1607.3,502.5 1600.6,496.2 1597.6,495.8 1595,496.7 1592.5,495.7 1590.5,493 1589.9,492.3 1574.1,487.9 1560.5,479.9 1552.4,471.2 
		1544.8,466.4 1541.5,465.2 1540.1,462.6 1541.7,455.3 1538.6,442.7 1535.6,440.3 1535.9,438.4 1537.2,437.2 1537.3,435.8 
		1539.2,433.9 1546.9,431.6 1551.1,431.9 1557.2,436.8 1559.8,431.7 1556.2,429.7 1553.7,429.3 1552.4,427.9 1549.5,428 
		1545.4,429.1 1540.6,427.2 1535.9,427.8 1529.8,431.8 1526.4,435.6 1524.6,438.7 1522.3,440.5 1521.8,440.2 1521.1,440.2 
		1520.3,440.2 1518.5,440.1 1517.7,440.8 1517.4,441 1517.1,442.5 1516.4,442.4 1516.1,442.3 1515,442.5 1515,444.8 1517.4,449.3 
		1522.2,455.1 1527.6,458.2 1536.2,461.8 1539.4,464.9 1539.2,465.9 1538.6,465.7 1519.8,459.7 1517.8,460.1 1501.9,467.3 
		1500,471.2 1503.7,479.1 1502.9,480.8 1499.5,481.9 1493.6,482.3 1489.4,482.1 1480.1,481.8 1458.1,488.2 1451,488.5 1447.5,491.5 
		1433,496.1 1426.2,492.8 1425.6,492 1419.2,484.3 1411,471.9 1402.1,471.7 1396.6,469.9 1394.9,471.8 1392.8,477.4 1390.5,479.2 
		1374.3,484.4 1370.9,486.9 1365.5,487.3 1360.8,486.7 1356.1,488.2 1351.6,486.7 1349.3,488.2 1338.6,490.1 1337.8,490.3 
		1329.6,490.3 1322.7,487.7 1318.5,488 1314.4,489.2 1311.9,491.7 1310.4,491.4 1306.7,490.6 1292.3,487.3 1288.6,484.2 
		1281.9,484.8 1278.8,482.7 1277.8,480.9 1271.1,477 1268.8,477.5 1258.9,486.1 1256.3,486.4 1255.8,490 1256.3,492.6 1255,494.5 
		1250.9,492.6 1250.2,490.6 1251.5,488.5 1250.2,487.7 1242.6,491.3 1240,494 1233.1,491.8 1225,501.2 1218.2,500.9 1209.8,499.2 
		1206.3,496.8 1203.1,496.1 1201.9,495.9 1197.2,497.5 1188.5,505 1185.3,506.2 1182.3,507.4 1181.2,502.9 1179.1,502.9 1175.1,497 
		1174.4,494.6 1175,493 1177.5,491.2 1179.7,487.2 1182,485.2 1182.3,480.8 1183.8,476.5 1181.8,474.9 1180,471.9 1178.6,469.4 
		1176,467.1 1175.5,468 1174.3,466 1173.6,461.2 1175.6,454.8 1178.6,454.5 1183.2,444.2 1183.6,439.2 1185.4,436.2 1185.4,432.5 
		1197.8,429.8 1198.7,428.3 1197.4,424.8 1195.2,425.4 1191.4,426.6 1185.8,424.7 1183.5,424.8 1181.6,422.8 1179,422.3 
		1175.3,417.8 1174.3,414.6 1171.2,414.9 1169.5,411.6 1171.6,409.8 1170.5,408.4 1170.8,407.3 1182.7,397.1 1184.2,387.9 
		1183,379.2 1184.1,377.4 1182.8,372.5 1184.2,368.5 1183.5,364.9 1184.8,358 1185.7,356.6 1188.5,351.8 1198.4,355.4 1200.2,358.9 
		1199.7,359 1203,362.6 1206.4,364.1 1210.3,371 1213.4,373.1 1214.6,375.5 1217.1,376.4 1220.9,381.4 1224.7,397.1 1220.9,399.6 
		1222.3,405.6 1221.8,408.4 1222.4,410.6 1227,406.5 1228.9,405.7 1241.4,410.6 1251,411.5 1256.8,410.1 1257.1,409.1 1257.6,407.6 
		1257.3,402.2 1257.9,399.5 1261.8,397.1 1266,392 1270.5,390.5 1272.2,392 1275.6,391.7 1284.2,385 1289.4,380.9 1295.6,380.4 
		1302.8,387 1308.9,388.9 1309.9,387 1314.2,386.3 1321,379.6 1322.3,375.2 1328.4,373.2 1331.5,370.5 1333.4,371.5 1339.1,370.6 
		1339.9,370.5 1341.7,373.9 1343.9,371.2 1347.9,370.3 1353.4,361.2 1356.6,364.1 1359.7,362.6 1365.4,362.2 1362.1,358 
		1361.4,358.2 1357.9,354.9 1352.3,352.9 1347.6,347.6 1349.7,346.5 1348.3,344.3 1345.2,344.9 1342.8,346.2 1341.4,346.1 
		1342,344.4 1343.7,343.7 1343.8,340.7 1345.3,339.1 1345.1,336.8 1353.5,331.9 1354.2,333.2 1351.3,336.6 1354.1,337.2 
		1356.2,334.9 1359.5,333.4 1361.4,337.5 1361.1,340.3 1357.5,337.4 1356.9,339.2 1353.7,340.3 1350.6,341.4 1351.2,343.1 
		1355.2,344.7 1362.1,343.2 1363.4,345.3 1368.6,344.3 1368.2,341.1 1371.7,341.4 1373.6,340.5 1373.3,338.8 1367.7,337.2 
		1366.7,335.7 1367.5,333.9 1373,334.3 1374.7,332.8 1374.6,332.1 1365.7,329.2 1363,326.7 1362,325 1358.4,319.2 1353.2,315.4 
		1348.5,313.6 1344.5,314.7 1344.6,311.9 1347.3,310.5 1348.5,308.2 1352.8,309.7 1356.6,313.8 1360,314.6 1362.8,313.1 
		1365.7,308.9 1366.9,309.8 1365.7,313.5 1367.9,316.2 1371.7,314.1 1372.4,316.4 1372.6,316.9 1377.5,316.1 1378.3,312 
		1381.2,311.2 1385.1,315.3 1387.5,315.2 1389.7,320.6 1389.4,326 1390.6,327.5 1392.3,325.1 1397.5,326.1 1400.6,325.7 1400.5,325 
		1393.6,321.4 1394.2,318.3 1396.7,317.7 1396.9,315.4 1394.7,314.1 1394.6,313.1 1397.6,312.4 1399.5,312 1399.7,311.5 
		1400.2,310.3 1393.1,305.6 1394.2,301.5 1398.5,300 1403.4,304.3 1403.9,307.2 1402.5,310 1403.4,310.7 1408.8,309.7 1412,307.3 
		1410.6,305.2 1411.1,303.7 1415.5,302.9 1418.5,301.3 1421.2,301.6 1421.1,301 1426,300 1426.1,298.7 1421.6,296.9 1418.3,295.6 
		1410.4,299.6 1407.9,299.1 1406.3,300.7 1405,299.4 1408.6,294.7 1406.2,290.8 1407,289.4 1409.7,288.3 1412.3,289.6 1415.3,286.2 
		1415.4,286.9 1418.8,287.3 1421.8,284.4 1418.2,281.8 1407,285.4 1404.8,284.3 1398.9,281.3 1393.2,283.3 1391.8,282 1394.7,279.9 
		1395.7,274.4 1394.2,267.6 1389.1,265.9 1383,266.9 1382.7,269.6 1378.6,270.5 1376.6,270.1 1375.5,271.7 1372.8,269.7 
		1374.2,267.8 1377.9,266.7 1375.2,264.3 1376.2,263 1376.6,263 1378.9,262.7 1380.6,258.9 1380.4,252.6 1381.5,251.7 1392.1,236.9 
		1396.2,234.5 1414.5,209.1 1416.3,208.9 1420.7,212.3 1425.6,211.2 1427.3,212.2 1427.9,212.6 1431.6,211.6 1435,212.7 
		1438.1,212.1 1439.2,209.9 1437.4,208.3 1429.5,208.5 1427.9,203.6 1433.4,198.7 1439.2,196.1 1442.2,192 1443.4,191.8 
		1445.7,191.3 1447.8,192.6 1449.7,191.7 1449.7,188.1 1453.8,188.7 1455.4,191.6 1454.1,195.4 1456.7,198.6 1461.5,198.7 
		1463.6,196.3 1466.3,195.6 1466.3,196.1 1471.4,193.9 1472.3,199.2 1477.8,202.6 1486.5,201.7 1489,197.2 1491.5,192.3 
		1495.7,188.9 1501.6,187.6 1503.7,186.6 1504.9,186 1504.8,185.4 1498.2,184 1494,184.6 1488.9,187.8 1487.2,191.5 1483.1,194.3 
		1477.8,193.6 1476.6,191.4 1484.9,188.4 1487,186.3 1486.1,183.5 1481.1,179.8 1472.3,179.6 1471,179.5 1463.7,181.7 1459.5,180.8 
		1456.6,181.4 1447.2,178.3 1443.7,174.6 1431.2,176.9 1425,182.6 1420.9,183.5 1420.2,184.9 1411.9,192 1409,197.1 1408.7,197.2 
		1401.8,199.7 1397.3,208.9 1393.6,211.6 1390.5,215.8 1382.6,220 1374.2,228.2 1369.8,228.9 1366.9,231.5 1364.7,230.3 1355,231.3 
		1351.1,231.8 1342.8,231.6 1338.8,227.4 1335.2,225.3 1331.7,224.9 1327.9,227.3 1326.5,224.5 1330.1,222.7 1332.4,217.7 
		1335,217.1 1336.5,213.6 1339.7,213 1344.9,202.3 1346.5,202.8 1347.5,205 1349.4,201.9 1353.4,197.7 1353.6,193.9 1357.3,194.7 
		1362.8,192.9 1365,195 1366.9,194.7 1368.2,191 1370,190.6 1372.8,193.6 1376.5,192.7 1379.6,191.3 1379,187.9 1379.8,185.9 
		1384.1,184.7 1383.4,183.7 1381.9,181.6 1375.2,185.1 1370.7,179.5 1368,180 1368.1,180.5 1364.6,179.5 1361.2,182.6 1358.9,182 
		1355.7,182.5 1353.8,184.5 1355,190.3 1353.4,190.5 1346.4,184.6 1344.9,182.4 1341.5,177.1 1345.2,167.2 1347.6,165.5 
		1346.3,158.3 1347.1,149.2 1349.7,148 1349.4,157.1 1353.3,153.6 1353.5,142.8 1356.2,139.5 1355.2,136.4 1356.6,130.8 
		1362.2,117.9 1363.3,117.7 1365.1,119.8 1366.5,119.8 1368.6,116.8 1373.5,115.1 1379.2,108.3 1383.2,110 1392,106.8 1397,104.1 
		1401.1,105.5 1404.5,104.7 1405.8,105.4 1407.5,104.4 1407,101.9 1405.5,101.6 1402.1,98.2 1401.3,98.8 1394.1,99.1 1393.5,97.6 
		1399,95.8 1402.3,92.5 1405.5,84 1408.9,80.4 1407.1,78.3 1401,79.5 1395.9,79.3 1393.4,82 1387.4,85.4 1384.1,86.3 1383.6,87.5 
		1386.3,91.3 1382.9,92.4 1379.7,90.4 1377.8,92.6 1376.2,96.5 1374.5,97.5 1370.7,104.9 1368.3,106.2 1367.9,104 1370.9,99.3 
		1372.4,97 1370.2,94.4 1366.9,97.2 1363.6,97.6 1357.2,108.6 1350.3,108.5 1344.7,112.3 1342.4,103.7 1346.1,97.5 1349.1,89.5 
		1349,85.5 1347.5,85.7 1343.8,90 1344.1,93.1 1344.2,93.9 1339.6,98.8 1337.9,104 1337.1,108.9 1338.6,114 1335,116.1 
		1331.1,120.8 1332.3,124.7 1331.3,139.2 1329.4,140.6 1326.3,140.4 1325.1,140.1 1325.5,136.8 1323,137.6 1320.2,140.3 
		1313.3,146.7 1311.5,146.3 1313.8,142.3 1317.1,139.8 1317.4,137.6 1311.6,141.3 1309.2,141.2 1306.8,139.5 1305.7,137.4 
		1305,137.5 1302.6,134.6 1302.7,127.2 1300,126.9 1300.4,123 1299.5,122.8 1293.7,131.4 1292.7,131.8 1292.7,130.9 1292.5,127.8 
		1301,110 1302.3,105.7 1296.6,105.5 1295.8,101 1296.5,99.8 1298.8,99.5 1299.1,97.7 1297.4,95.7 1292.7,98.1 1292.5,96 1296.1,92 
		1292.7,89.8 1292.3,87.7 1294.7,84.5 1295,84.1 1295.8,80.9 1294.2,81 1288.8,87.5 1286.2,85.7 1282.1,88 1278.8,92.8 1277.2,93 
		1274.4,91.4 1272.1,92.8 1266.9,83.3 1268.4,79.2 1265.3,77.9 1266.9,74.4 1266.8,66.5 1270.8,63 1269.9,61.3 1269.8,61.1 
		1264.1,62.4 1262.3,57.7 1259.1,52.4 1259.6,49.6 1244.5,39.4 1244.2,34.3 1246.7,34.9 1249,39.5 1252.2,42.2 1261.8,47.5 
		1261.7,46.9 1263.7,46.5 1273.4,44.4 1273.7,43 1271.2,40.7 1265.6,43.7 1265,42.4 1270.1,30.3 1271.5,29 1278.8,28.6 1276,25.5 
		1269.8,23.4 1271.9,19.2 1274.5,14.4 1253.3,32.3 1251.8,31.8 1252.2,30.5 1252.9,27.3 1251.1,23.9 1257.3,20.9 1261.4,17.7 
		1265.5,8.3 1268.8,7.7 1270.2,0.7 1270.5,-5.8 1272.5,-7.4 1277.5,-9.4 1278,-12.5 1276.9,-15.8 1271.1,-17.7 1266.6,-21 
		1264.9,-21.2 1263.1,-19.5 1260.6,-19.1 1259.1,-20.6 1255,-20 1250.9,-16.5 1246.1,-18.7 1246,-19.3 1250.4,-21 1249.1,-25.4 
		1252.6,-27.1 1252.9,-30.5 1248.6,-29.3 1244.7,-28.2 1246,-30.6 1251.6,-34.9 1254.5,-43.6 1253.9,-45.8 1258.5,-49 1257.5,-50 
		1254.2,-49.8 1250.5,-46 1249.9,-40.8 1247.5,-37.7 1242.5,-38.3 1242.3,-40 1242.7,-41.5 1244.4,-42.2 1245.8,-42.9 1245.9,-44.5 
		1245.1,-46 1244.5,-45.9 1243.6,-44.5 1242.7,-42.5 1241.8,-42.2 1239.4,-42.2 1237.8,-42.5 1236.9,-40.6 1236.8,-37.6 1235,-36.2 
		1228.8,-38.9 1226.7,-41.5 1223.5,-39.7 1211.3,-28.6 1211.4,-27.8 1217.9,-25.7 1218,-25 1214.6,-23.8 1204.7,-25.7 1198,-21.1 
		1196.3,-21.1 1195.4,-21.1 1187.2,-26.6 1188.9,-28 1197.9,-25 1200,-25.6 1201.3,-29.4 1197.5,-31.6 1195.4,-30 1192.3,-32 
		1193.9,-34.5 1193.3,-39.1 1190.1,-39.7 1187.6,-41.7 1184.9,-41.9 1183.3,-42.1 1173.3,-38.9 1169.8,-39.8 1166.4,-38.7 
		1166.6,-37.2 1178.4,-29.4 1183.3,-25.2 1183,-24.2 1175.8,-28 1168.4,-33.2 1161.6,-35 1158.8,-35.4 1154.3,-35.9 1150.2,-39.6 
		1131.8,-35.5 1126.6,-35.5 1121.5,-39.2 1111.3,-39.8 1111,-39.1 1105.1,-37 1098.6,-39.2 1091.4,-38.7 1081,-40.8 1072.8,-44.4 
		1067.4,-45.2 1050.6,-52.3 1045.2,-52.7 1032.7,-53.6 1024.8,-51.8 1020.6,-48.5 1020.8,-42.3 1019.5,-39 1014.9,-36.2 
		1008.3,-34.1 1005.3,-34.4 999.7,-38.5 993,-40.3 988.4,-40 976,-39.2 975.8,-40.2 979.6,-42 991,-43 988,-45.1 982.9,-46.1 
		979.1,-44.8 969.9,-39.4 961.6,-29.3 961,-26.6 961.5,-25.7 964.3,-20.5 962.7,-16.5 958.6,-11 959.3,-11.1 960.6,-7.3 952.9,-5.1 
		945.5,-8.1 940.4,-6 934.2,-3.4 927.9,-3.6 921.1,1.4 916.3,-3.1 913.5,-3.6 911.2,-6 907.4,-6.9 906,-8.7 902.7,-8.7 899.6,-11.5 
		893.6,-12.6 893.4,-17.1 889.6,-26.7 889.4,-27.1 886.3,-31.4 879.1,-47.9 879.9,-52.7 877.2,-53 876.4,-49.8 874.2,-49.4 
		872.6,-50.9 869.8,-60.4 864.7,-70.1 862.3,-84.6 864.6,-85.9 869,-83.3 873.1,-85.6 876.1,-85.5 879.4,-90 881.8,-90.4 
		884.1,-95.2 888.8,-97.6 891.7,-102.8 894,-103.4 897,-102.3 904.2,-107.6 907.2,-107.8 910.5,-106.6 914.1,-109.9 916.6,-107.4 
		917.7,-106.4 915.1,-105.7 915.1,-103.9 920.9,-98.3 923.2,-97.9 918.7,-104.3 920.5,-104.8 927.7,-97 940.1,-94 944.6,-90.6 
		951.2,-89 953.1,-89.2 957.3,-89.6 960.2,-88.5 965.2,-92.5 970.4,-102 973.2,-102.1 976.9,-100.4 982.6,-101.8 987.1,-105.6 
		991.9,-117.1 995,-120.7 998.3,-121.2 1004,-119.7 1004.7,-119.5 1009.9,-119.6 1016.1,-121.9 1018.3,-121.7 1018.9,-120.6 
		1017,-117.9 1024.5,-117.1 1020.4,-128.1 1024.1,-127.7 1027.7,-130.2 1028.1,-131.7 1033.4,-128.9 1034.8,-122.7 1031.4,-116.9 
		1031.4,-114.8 1031.4,-113.9 1033.2,-112.3 1036,-112.8 1037.7,-114.4 1035.6,-117.2 1037.5,-119.6 1040.2,-120 1042.4,-118.7 
		1043.9,-114 1040.4,-111 1040.5,-107.7 1044.3,-105.3 1049.7,-108.5 1051.5,-108.4 1054.4,-106 1057.5,-106.3 1058.5,-106.4 
		1060.9,-109.3 1063.3,-122.4 1060.5,-127.5 1060.6,-133.2 1057.4,-142.1 1058.4,-147 1060.4,-149.8 1063.4,-154 1067.8,-158.1 
		1074.4,-156.2 1077.6,-154.6 1079.5,-153.5 1092.1,-151.5 1092.4,-150.4 1091.8,-149.8 1085,-142.5 1082.1,-135.4 1083.6,-130.2 
		1079.5,-129.9 1078.1,-124.6 1074.2,-119.6 1077.7,-114.5 1079.6,-115.8 1082.4,-111.7 1083.4,-110.2 1083.9,-105.6 1086.7,-105.5 
		1089,-101.4 1090.4,-102.1 1090.9,-108.6 1088.1,-126.5 1088.6,-127.9 1091,-126.9 1091.8,-129.3 1097.1,-128.3 1101.5,-125.2 
		1105.9,-125.3 1108.7,-121.5 1108.3,-119.2 1106.8,-110.4 1107.8,-108.8 1109.3,-109.6 1111.4,-118.6 1110.5,-125.7 1108.3,-128.2 
		1099.9,-129.5 1098.6,-131.1 1101.3,-143.5 1105.6,-148.7 1106.9,-149.8 1110.8,-153 1112.6,-154.5 1120.1,-154.3 1125.2,-151 
		1126,-149.8 1127.3,-147.8 1128.1,-141.3 1132.2,-141.7 1134.2,-145.4 1137.3,-146.1 1141.7,-149.8 1143.9,-151.6 1147.1,-151.9 
		1149.7,-149.8 1149.8,-149.8 1154.5,-154.7 1163.1,-159.3 1163.4,-159.5 1165.6,-162.6 1145.6,-164.2 1144.9,-165.9 1146.2,-168 
		1154.8,-171.2 1156,-168.7 1158.6,-169.4 1161.1,-177.7 1170.2,-181.9 1172.9,-187.2 1174.5,-188.3 1177.6,-190.6 1180.1,-189.6 
		1180.6,-187.1 1177.7,-183.9 1178.1,-181.7 1182.9,-185 1185.2,-181.7 1188.6,-179.5 1185.1,-178.7 1183.7,-174.1 1188.1,-174.4 
		1188.2,-173.8 1185.1,-170.3 1184.1,-166.5 1180,-165.1 1176.6,-162.2 1174.1,-161.4 1173.4,-160 1175.5,-159.2 1178.7,-159.6 
		1178.8,-159.6 1180.8,-161.8 1184,-161.5 1186.9,-165.2 1189.1,-164 1187.8,-159.2 1186.5,-157.9 1190.3,-155.7 1190.3,-151.6 
		1190.9,-149.8 1191.4,-148 1196.5,-144.1 1200.4,-144.8 1207,-139.9 1212.2,-131.6 1213.5,-131.4 1211.9,-136.7 1211.1,-138 
		1204.1,-148.2 1203.5,-149.8 1202.8,-151.6 1205.3,-156.6 1204.6,-160.2 1208.2,-163.8 1209.5,-166.5 1214.3,-163.9 1215.9,-164.1 
		1214.7,-170.1 1222.7,-176.2 1228.9,-174.4 1232.3,-174.6 1242.1,-172.3 1249.8,-174.6 1255.4,-178.1 1263.6,-178.2 1264.9,-180.2 
		1266.4,-179.9 1272.2,-182.2 1273.8,-179.8 1278.3,-178.3 1280.7,-174 1286.3,-174.8 1298.6,-170.9 1299.1,-166.3 1300,-166.2 
		1306.8,-165.7 1308.5,-163.9 1309.6,-165.1 1313.7,-165.8 1317,-161.9 1318.9,-162.1 1321.8,-169.1 1326.4,-166.4 1327.7,-166.4 
		1329.7,-168.6 1341.9,-167.4 1350.7,-163.1 1359.3,-164.1 1363.8,-160.8 1367.6,-161.5 1375,-162.9 1394.2,-163.8 1396.2,-160.7 
		1398,-162.5 1400.8,-164.7 1401,-168 1402.7,-171.1 1400.6,-181 1395.2,-183.1 1392.7,-184.1 1391.5,-188.3 1393.9,-192.8 
		1402,-198.7 1404.3,-202.4 1403.3,-210.1 1407.1,-212.7 1411.5,-221.2 1414.1,-230.2 1416.1,-232.4 1419.3,-242.9 1418.6,-242.8 
		1417.5,-246.6 1416,-256.4 1412.7,-261.1 1412,-260.4 1406.6,-261.9 1402.3,-261.5 1395.8,-260.8 1394,-259.2 1393.3,-253.4 
		1390.6,-250.4 1391.7,-244.7 1390.9,-240.9 1388.7,-242 1384.2,-235.4 1377.7,-230.6 1368.4,-220.9 1352.3,-210 1347.4,-208.6 
		1333.6,-207.7 1330.8,-206.4 1327.9,-207.4 1324.2,-207.2 1322,-208.8 1320.6,-209.8 1319.8,-213.4 1312.5,-214.2 1308.3,-213.6 
		1305.7,-215.5 1299.8,-214.6 1297.3,-216 1292.9,-214.4 1289.6,-216 1286.1,-219.5 1279.1,-222.9 1277,-223 1273.1,-226.3 
		1263.7,-230.7 1261.6,-234.6 1257.9,-241.6 1254.3,-240.9 1253.5,-236 1248.8,-236 1244.8,-234.9 1243.3,-231.4 1241.2,-233.1 
		1239.2,-233.2 1236.5,-235.8 1228.4,-236.6 1221.4,-235.8 1217.4,-239.1 1218.8,-241.5 1217.6,-244.7 1220.5,-245.1 1222.9,-243.6 
		1226.4,-241.2 1230.1,-241.4 1232.8,-243.4 1236.8,-249.8 1241.6,-247.9 1244.2,-250.2 1241.9,-252.1 1229,-255.4 1226.6,-254.6 
		1222,-250.7 1220.3,-251.5 1222.7,-255.8 1228.3,-261.2 1231.2,-272.9 1235.3,-276.1 1237,-280.1 1239.3,-280.9 1241.5,-279.8 
		1245.1,-281.3 1248,-282.5 1251.8,-285.7 1251.8,-290.4 1250.7,-292.4 1254.8,-294.9 1258.1,-300.2 1260.3,-299.6 1260.6,-296.9 
		1263,-296.4 1265.9,-300.3 1267.4,-305.6 1266.2,-309.2 1267.2,-311.1 1271.2,-312.5 1276.2,-313.1 1286.3,-317.9 1288.7,-320.1 
		1293.7,-320.2 1295.2,-320.3 1308.2,-326.1 1315.4,-330 1323.4,-338.7 1328.6,-342.1 1339.9,-350.7 1341.4,-354.1 1344.2,-354.3 
		1347.9,-358.4 1348,-357.9 1354.3,-358.4 1357.3,-360.6 1359.8,-367.6 1359.1,-367.5 1358.3,-369.7 1360.4,-369.4 1365.7,-359.7 
		1368.6,-361.3 1363.7,-370 1369.2,-372.8 1372.4,-378.5 1379.9,-377.6 1380,-376.9 1402,-382.1 1404.5,-381 1405.6,-381.7 
		1413.3,-386.4 1420.3,-394.1 1403.3,-390.5 1399.4,-389.3 1395.8,-390.2 1391.6,-393.5 1368.4,-394 1362.9,-393.5 1359.9,-390.1 
		1358.7,-391.4 1308.8,-391.4 1308.4,-392 1302.5,-384.7 1300,-384.3 1298.6,-385.6 1296,-384.4 1293.1,-388.1 1292.2,-389.2 
		1288.3,-388.8 1287,-391.2 1283.9,-389.5 1476.8,-393.6 1477.7,-392.7 1484.5,-394.2 1531.6,-394.1 1536.6,-389.1 1538.5,-386.4 
		1542.7,-387.2 1543.3,-383.5 1540.7,-375.9 1545,-369.5 1546.1,-362.5 1544.4,-356.1 1546.9,-341.3 1544.5,-328.3 1543.2,-321.5 
		1544.3,-312.6 1548.2,-309.3 1548.5,-303.8 1551.4,-300 1550.7,-297.2 1553,-293.1 1557.6,-285 1557.9,-278.8 1566.6,-260.9 
		1567,-248.7 1567.7,-238.5 	"/>
</g>
<g>
	<text transform="matrix(1 0 0 1 1363.0767 432.0918)" style="fill:#939598; font-family:'HelveticaNeue-Bold'; font-size:5.1197;">Kleifarvatn</text>
	<text transform="matrix(1 0 0 1 1276.8916 454.1055)" style="fill:#939598; font-family:'HelveticaNeue-Bold'; font-size:5.1197;">Seltn Geothermal Area</text>
	<circle style="fill:#A8AAAD;" cx="1358.4" cy="433.7" r="3"/>
	<circle style="fill:#A8AAAD;" cx="1341.3" cy="450.5" r="3"/>
</g>
<g id="trail-path" style="display:none;">
	<path style="display:inline;fill:none;stroke:#010101;stroke-width:5;stroke-miterlimit:10;" d="M1399.4,325.8
		c-12.6,1-12.6,15.6-21,24.9c-3.3,0.8-6.5,1.6-9.8,2.4c0,2,0,3.9,0,5.9c-7.1,5.7-14.1,9.7-22.3,13.5c-24,11.2-51,19.8-73.4,33.7
		c-18.8,11.6-23.3,10.6-45.4,7.3c-8.5-1.3-20.1,13.3-29.1,18.8c-10.5,6.4-12,20.4-10.5,32.1c1.9,14.2-1.7,21.2-2.5,34.1
		c14.6-15.8,29.5,1.4,44.9-9.1c4.4-3,17.2-11.6,20.4-9.7c10.1,5.9,16.6-11,24.9-11.5c3.4-0.2,14.6,8.3,22.2,8.3
		c8.2,0,16.4,0.2,24.6,0c14.9-0.3,33.6,3.5,47.9-1.1c15.8-5.1,30.9-14,46.5-3.3c21.3,14.5,26.3,13.2,50.9,7.2
		c22-5.3,32.3-7,37.8-30.4c2.3-9.7-3.2-13.1,8.6-13.7c6.6-0.3,16.3-14.8,21.1-19.8c14.6-15.3,17.8-21,29.5,0.4
		c2.8,5.2,14.6,2.2,20.5,5.1c7.6,3.8,13-18.4,14.1-24.4c3.1-15.5,27.5-22.6,36.8-31.9c10.6-10.6,28.3-25.7,42.2-30.3
		c18-6,21.3-25.7,37.1-33.6c13.4-6.7,37.1-16.5,40.5-35.2c2.2-12.1-9.5-29.3,1.4-39.2c16.1-14.5,33.4,10.1,47.2-11.7
		c0.2-0.4,61,64.8,91.7,150.7c36.4,101.6,43.6,226.7,43.9,226.2"/>
</g>
<g id="camera-path" style="display:none;">
	<path style="display:inline;fill:none;stroke:#EC2227;stroke-width:3;stroke-miterlimit:10;" d="M1428.9,291.2
		c0,0-280.5,125.2-251.4,200.1c15.5,39.7,127.7-9,169.5-17.2c53.1-10.5,156.5-46.3,204.4-71.7c69.9-37.1,178-209.9,254.3-188.7
		c95.8,26.7,132.3,375.2,132.3,375.2"/>
</g>
<g id="points" style="display:none;">
	<circle id="Reykjavk" style="display:inline;fill:#405B54;" cx="1400" cy="324.1" r="5.8"/>
	<circle id="Reykjanesta" style="display:inline;fill:#405B54;" cx="1185.7" cy="499.9" r="5.8"/>
	<circle id="Krsuvkurbjarg" style="display:inline;fill:#405B54;" cx="1348" cy="476.5" r="5.8"/>
	<circle id="Hverageri" style="display:inline;fill:#405B54;" cx="1551.4" cy="402.4" r="5.8"/>
	<circle id="Gullfoss" style="display:inline;fill:#405B54;" cx="1805.6" cy="213.7" r="5.8"/>
	<circle id="Eyjafjallajkull" style="display:inline;fill:#405B54;" cx="1939.5" cy="591" r="5.8"/>
</g>
</svg>
