
<?xml version="1.0" encoding="utf-8"?>
<!-- Generator: Adobe Illustrator 18.1.1, SVG Export Plug-In . SVG Version: 6.00 Build 0)  -->
<svg version="1.1" id="Layer_1" xmlns="http://www.w3.org/2000/svg" xmlns:xlink="http://www.w3.org/1999/xlink" x="0px" y="0px"
	 viewBox="770 -339.5 2040.5 1178.5" enable-background="new 770 -339.5 2040.5 1178.5" xml:space="preserve">
<g opacity="0.4">
	<polygon id="Dobong-gu" fill="#C8C8C8" stroke="#000000" stroke-miterlimit="10" d="M1374.5,305.7c-0.3,2-0.1,4-0.4,6.1
		c-0.5,2.5-2,4.9-2.6,7.5c-0.2,0.9-0.3,2.1-0.3,3.1c-0.1,1-0.4,2.3-0.3,3.1c0.2,1.5,1.3,3.1,1.9,4.7c0.5,1.3,1.7,3.6,1.8,4.8
		c0.1,1.1-0.3,2.6-0.3,3.9c-0.1,1.3-0.3,2.6-0.4,3.9c-0.3,2.7-0.2,5.6-0.7,8c-0.4,1.7-1.2,3.2-1.5,4.8c-0.4,1.9-0.3,4.1-0.7,6.1
		c-1.5,0-3,0.1-4.3,0.3c-3.3-4.2-7-8.7-10.8-12.9c-1.1-1.2-2.5-3.6-3.9-4.1c-1.5-0.6-3.9,0-4.9-1.5c-1-1.1-2-2.1-3.1-3.1
		c-0.1-0.3-0.3-0.3-0.3-0.4c-0.9-1-1.8-1.9-2.7-2.7c-0.6-2.1,0.6-3.6,0.8-5.3c0.3-0.4,0.1-1.2,0.1-1.8c0-0.9,0-1.8,0-2.7
		c-0.4-3,0.7-5.6,0.6-8.2c-0.1-2.7-1.2-5.3-1.3-8.1c2.6-0.3,1.7-4.7,2-7.9c0.2-1.8,1.2-3.1,1.5-4.3c2.2-1,5-1.5,8.4-1.2
		c0.5-0.1,1.3,0.1,1.5-0.1c0.7,0.1,1.8-0.2,2.3,0c2.1,0.7,0.8,4.7,2.2,5.6c1,0.6,3.1,0.3,4.6,0.3c1.7,0.1,3.2,0.1,4.7,0.3
		C1370.1,304.2,1371.2,306.1,1374.5,305.7z"/>
	<path id="Dongdaemun-gu" fill="#C8C8C8" stroke="#000000" stroke-miterlimit="10" d="M1369.9,394c3.9-2.8,10.2-3.2,15.4-4.8
		c1,11.3,2.3,22.4,3.4,33.5c-1.5,3.3-2.7,6.8-4.2,10.1c-5.1-2.1-10.5-3.9-15.9-5.6c-0.4-1.7-0.9-3.4-1.5-5c-0.3-0.3-0.9-0.3-1.5-0.3
		c-0.1-0.3-0.7-0.1-1.1-0.1c-1.1,0.1-2.2-0.1-3.4-0.1c-1.2-0.1-2.5-0.4-3.4-0.1c-1.1,0.4-1,1.9-2,2.4c-0.3,0-0.7,0-1,0
		c-0.1-0.3-0.7-0.1-1.1-0.1c-1.5-0.1-2-1.3-3-2c0-0.4,0-0.9,0-1.3c0.3-0.3,0.1-1,0.1-1.5c0-0.7,0-1.5,0-2.2c-0.4-2,1.5-2.7,2.1-4
		c0.7-1.5,0.6-2.9,1.2-4.4c2.9-2.1,5.7-4.4,9.6-5.6c1.3-2.1,2.2-4.7,3.8-6.4C1368.3,395.7,1369.1,394.8,1369.9,394z"/>
	<path id="Dongjak-gu" fill="#C8C8C8" stroke="#000000" stroke-miterlimit="10" d="M1282.4,472.2c2.8,0.4,5.8,0.6,9,0.3
		c1.3-0.1,2.8,0.1,3.9-0.1c0.4,0,0.7-0.1,1-0.3c1.5,1.5,2.9,3.2,4.3,4.9c1.3,1.6,2.9,3.6,4.8,4.6c1.7,0.9,3.9,0.7,6.2,1.2
		c0.4,1.5,0.6,3,1.1,4.3c1.5,0.4,3.6,0.2,5.1,0.4c0.9,1.7,1.7,3.6,2.6,5.4c-0.9,2.5-1.7,5.6-2.1,9.1c-0.5,3.9-0.4,7.1,0.4,10
		c-1.7,0.8-3,2-6,1.5c-0.7,0-1.3,0-2,0c-0.9-0.7-1.8-1.5-2.7-2.2c-0.8-0.7-2.1-1.4-2.7-2.3c-0.8-1.5-0.9-3.6-1.3-5.3
		c-0.4-1.8-1-3.5-1.5-5.2c-2.7-1-5.2-2.3-8.2-3.1c-1.7,0-3.5,0-5.2,0c-1.1,0.1-2.4-0.1-3.4,0.1c-1.5,0-2.9,0-4.4,0
		c-1.2,0.1-2.7-0.1-3.8,0.1c-1,0.9-1.1,2.8-1.9,4c-1.8,1.3-4.3,0.7-6.6,1.3c-2.1,0.7-3.7,3-5.9,3c0.3-1.7,0.5-3.4,0.8-5
		c1.1-0.7,1.7-2,3-2.6c2-0.9,4.5-0.9,6.8-1.5c0.6-2,1.8-3.6,2.2-5.6c0.4-1.9-0.1-3.8,0.3-5.9c0.1-0.7,0.7-1.6,1.1-2.4
		C1278.9,477.7,1280.6,474.6,1282.4,472.2z"/>
	<path id="Eunpyeong-gu" fill="#C8C8C8" stroke="#000000" stroke-miterlimit="10" d="M1288.2,342.6c1.7,0.3,2.1-0.6,2.9-1.5
		c1.6-1.7,3-3.8,4-5.6c3.3,2.7,6.9,5.8,10.2,8.7c0.9,0.7,3,2.1,3.4,3c0.2,0.7-0.1,1.5,0,2c0,1.1,0,2.1,0,3.2
		c0.1,0.5-0.1,1.3,0.1,1.7c0.4,3.2-1.3,4.2-2.1,6.2c0.1,0.1,0.3,0.1,0.3,0.3c-1.2,2.1-2.3,3.9-3.8,5.6c-0.7,0.7-1.7,1.4-2,2.2
		c-0.6,1.6-0.4,3.4-1,5.3c-0.3,0.3-0.1,1.1-0.1,1.5c0,0.9,0,1.6,0,2.4c0,0.7,0,1.5,0,2.2c-0.3,0.3-0.1,1.1-0.1,1.5
		c0,0.9,0,1.6,0,2.4c0,0.9,0,1.8,0,2.7c-2.2-0.6-3.2,0.1-4.6,0.9c-0.7,0.4-1.5,0.8-1.9,1.2c-1.5,1.5-2.1,4.2-2.7,6.2
		c-2.1,0.9-4.2,1.8-6.6,2.4c-0.7,1.9-1.5,3.6-2.6,5c-0.3,0.3-0.9,0.1-1.2,0.1c-0.7,0.1-1.7-0.1-2.2,0.1c-1,0-2.1,0-3.1,0
		c-1.2,0.1-2.7-0.1-3.7,0.1c-0.7-0.1-1,0.3-1.2,0.7c-0.5,0.4-0.9,0.7-1.2,1.2c-0.4,0.3-0.8,0.7-1.1,1.1c0,0.1,0,0.1,0,0.1
		c-0.5,0.4-0.9,0.7-1.2,1.2c-0.4,1.4-0.5,3.1-0.8,4.7c-1.6-1-3-2.3-4.7-3.6c-1.5-1.2-3.6-2.1-4.8-3.6c-0.7-0.8-0.9-1.9-1.8-2.6
		c-2.2,0-2.6-1.8-3.6-3c2.4,1.1,5.6,1.3,9.2,1.3c1.3-1.5,3.2-3.2,4.4-5c1.2-1.8,2.1-3.7,1.8-6.9c0-0.7,0-1.4,0-2.1
		c0-1.6,0-3.2,0-4.8c-0.1-1.2,0.1-2.6-0.1-3.6c0-2.3,0-4.6,0-6.9c0.5-0.8,1.8-1.2,2.1-2.1c0.3-0.7,0.1-2,0.3-3
		c0.6-6.9,1.1-14.6,1.8-21c2.6,0.1,5.4,0.1,7.7,0.3c0.9,0.1,1.8,0.3,2.6,0c1.6-0.7,1.4-3.9,4.2-3c0.1,0.3,0.7,0.1,1.1,0.1
		C1286.8,342.6,1287.5,342.6,1288.2,342.6z"/>
	<path id="Gangbuk-gu" fill="#C8C8C8" stroke="#000000" stroke-miterlimit="10" d="M1340.1,310.9c0.3,2.7,1.4,5.4,1.5,8.1
		c0.1,2-0.9,3.8-0.7,6c-0.3,0.4-0.1,1.2-0.1,1.8c0,0.9,0,1.8,0,2.7c0.4,3.2-1.4,4.5-0.8,7.5c0.3,0.4,0.6,0.7,0.9,1.1
		c0.9,1,1.9,2,2.9,2.9c1,1.1,2,2.1,3.1,3.1c0.9,1.1,3.3,0.8,4.9,1.2c6.6,7.2,13,14.4,18.1,23.2c-2.1,3.6-4,7.2-5.9,10.9
		c-1.1,0.6-2,1.3-3.1,1.9c-0.7,0.1-1.6-0.1-2.1,0.1c-0.7,0-1.3,0-2,0c-0.8,0-1.5,0-2.3,0c-0.5,0.1-1.3-0.1-1.5,0.1c-0.7,0-1.3,0-2,0
		c-0.8,0-1.5,0-2.3,0c-0.6,0-1.1,0-1.7,0c-0.7-0.4-1.6-0.7-2.1-1.3c-0.9-3.4-1.7-7.1-2.7-10.5c-2.8-2.4-5.9-4.5-8.7-6.8
		c-1-0.7-1.9-1.8-2.9-2.3c-1.5-0.9-3.4-0.9-5-1.8c-0.9-1.1-1.7-2.3-2.6-3.4c0.3-0.7,0.9-1,1-1.8c0.3-0.4,0.1-1.3,0.1-2
		c-0.1-0.6,0.1-1.4-0.1-1.8c0-1.2,0-2.3,0-3.4c0-1.1,0-2.2,0-3.4c-0.1-0.5,0.1-1.3-0.1-1.7c0-1.2,0-2.3,0-3.4c0-1.1,0-2.2,0-3.4
		c0-0.5,0-1,0-1.5c1.4-2.6,3.2-5.1,4.7-7.7c0.5-0.9,1.3-1.9,1.5-2.7c1-2.8,0.9-5.9,1.9-9C1334.6,312.9,1337.3,311.9,1340.1,310.9z"
		/>
	<path id="Gangdong-gu" fill="#C8C8C8" stroke="#000000" stroke-miterlimit="10" d="M1420.1,433.8c1.3-1.5,3-2.2,4.9-3.4
		c2-1.2,3.1-2.9,5.9-2.9c2.4-0.1,5,0.1,7.2-0.1c4.1-1,6.5-3.6,9.8-5.6c2-1.2,4.4-2,6.4-3.1c0,0.4,0,0.7,0,1.1
		c0.1,0.6-0.1,1.4,0.1,1.8c-0.1,2.4,2.4,2.4,3.8,3.4c0.3,0.3,1.2,0.1,1.7,0.1c0.3,1.6,0.3,3.3,1,4.4c-0.4,2.3-2.4,4.4-2.1,7.1
		c0.1,0.9,1.1,1.8,1.3,3c0.3,1.5-0.1,3,0.1,4.3c0.2,0.8,1,1.5,1.1,2.1c-0.6,1.1-1.1,2.2-1.8,3.2c-3.1,0.9-6,1.9-9.7,3.1
		c-1.5,0.5-3.1,1-4.8,1.5c-1.3,0.4-4.2,0.9-4.8,1.7c-0.5,0.6-0.4,2.2-0.4,3.6c-0.1,1.2-0.1,2.6-0.1,3.6c-0.1,1.2-0.9,2.2-1.5,3.3
		c-1.6,2.6-2.9,4.7-4.6,7.3c-1.2-0.4-2-0.1-3-0.6c-1-0.5-1.5-1.7-2.4-2c-1.3-0.4-2.9-0.1-4.7-0.4c-1-1.8-1.2-4-2.3-5.6
		c-0.9-1.3-2.6-1.8-3.4-3.1c1.2-3.3,3.7-7.8,1.5-11.3c-0.9-0.1-1.8-0.3-2.7-0.3c-0.7-0.7-1.2-1.5-1.9-2.2c0.9-4.7,1-10.2,4.1-12.7
		C1419.1,434.7,1419.6,434.3,1420.1,433.8z"/>
	<path id="Gangnam-gu" fill="#C8C8C8" stroke="#000000" stroke-miterlimit="10" d="M1340.2,465.8c0.7-0.8,1.6-1.3,2.4-2.1
		c0.8-0.7,1.5-1.8,2.4-2.1c0.7-0.3,1.9-0.3,2.7-0.4c2.2-0.4,3.9-0.5,6.4-0.3c3.6,0.3,5.8,0.7,8.2,1.8c5.9,2.6,10.6,7.3,17.4,8
		c0.3,0.6,0.1,1.6,0.1,2.3c0,0.7,0,1.5,0,2.2c0.1,0.4-0.1,1.2,0.1,1.5c0,0.6,0,1.3,0,1.9c0,0.7,0,1.5,0,2.2c0.1,0.4-0.1,1.1,0.1,1.3
		c-0.3,2.1,0.6,2.9,1.2,4.2c0.4,0.9,0.7,1.9,1.1,2.4c0.5,0.7,1.6,1.3,2.4,2s1.7,1.5,2.6,2c0.9,0.5,2.1,0.9,3.1,1.5
		c1,0.5,2.1,1.3,3,1.5c2.7,0.8,6.2,0.7,8.7,1.5c0.6,0.7,1.3,1.3,1.9,2c0.3,0.9,0.5,2,0.9,2.9c2.1,1.6,4.6,2.8,6.7,4.4
		c0.2,1.4,0.5,2.7,0.7,4c0.3,1.3,0.3,2.8,0.7,4c0.3,0.7,1,1.5,1.5,2.2c2.1,3.2,4.2,6.2,5.6,9.9c-1.2,0.4-3.2-0.1-4.4,0.4
		c-1.1,0.5-1.3,2.4-2.2,3.6c-0.5,0.6-1.7,1.5-2.4,1.8c-1.3,0.4-2.7,0.1-4,0.3c-0.9,0.3-1.6,1-2.4,1.2c-1,0.2-2-0.3-3.4-0.1
		c-1.1-1-1.5-2.3-2.7-3.4c-1-0.9-2.3-1.2-3.2-2c-0.6-0.6-2-2.6-2.3-3.4c0-0.6,0-1.2,0-1.8c-0.1-0.3,0.1-1-0.1-1.1
		c0.1-1-0.2-1.6-0.1-2.6c-1-0.7-1.7-1.7-2.9-2.1c-3.3-1.2-7.5,0.1-10.2,1.3c-1,1.6-1.9,3.4-3.1,4.8c-3.6,0.1-6.3,1.1-9,2.1
		c-2.8-3.9-3.4-10.1-4.7-15.5c-1.1-1.2-2.3-2.3-3.4-3.4c-1.5-0.7-3.3-1.1-4.4-2.2c-0.5-0.6-1.1-1.2-1.7-1.7
		c-0.1-0.1-0.2-0.2-0.3-0.3c-0.5-0.6-1-1.1-1.5-1.5c-1.6-1.7-1.5-5.1-1.8-8.6c-0.1-1.7,0-3.7-0.4-5.1c-0.5-1.5-2.9-2.4-3.4-4
		c-0.4-1.2-0.4-2.9-0.7-4.3c-0.3-1.5-0.4-3.3-0.8-4.6c-0.5-1.5-1.5-2.9-2.2-4.2C1341.5,468.7,1340.9,467.3,1340.2,465.8z"/>
	<path id="Gangseo-gu" fill="#C8C8C8" stroke="#000000" stroke-miterlimit="10" d="M1190.4,387c3.2,1.8,6.4,3.9,9.2,6
		c0.9,0.7,2.1,1.3,2.9,2.1c0.9,0.9,1.7,2.3,2.6,3.4c0.9,1.1,1.7,2.3,2.6,3.4c1.5,1.6,3.4,2.7,4.8,4.2c1.8,1.9,2.9,4.5,4.8,6.4
		c1.4,1.5,3.9,2.2,5.7,3.4c0.7,0.4,1.5,1,2.3,1.5c0.9,0.5,1.9,0.8,2.6,1.3c0.8,0.6,1.4,1.8,2.2,2.7c0.8,1,1.8,1.8,2.3,2.7
		c0.8,1.3,1.1,2.9,1.9,4.1c1.3,2,3.4,3.4,5.1,4.9c1.8,1.6,3.7,3,5.4,4.7c0.5,1.1,0.6,2.7,0.7,4.2c0,0.1,0,0.1,0,0.3
		c-1.3,0-2.7,0-4,0c-1.3-0.4-2.4-1-4.1-1c-0.9,1-1.5,2.3-2.2,3.4c-0.1,2.3-0.3,4.4-0.3,6.8c-1.2,1.8-2.3,3.8-3.4,5.7
		c-1.9,0.4-3.6,2-5.6,2.1c-0.7,0.1-2.1-0.4-3-0.6c-2.4-0.5-4.5-1.1-5.6-2.7c-0.4-0.7-0.7-1.8-1.1-2.7c-0.9-2-1.6-3.6-2.3-5.4
		c-0.4-1-0.7-2.1-1.1-2.7c-0.4-0.6-1.8-1.7-2.3-1.8c-1.3-0.3-3.2,0.7-4.4,0.4c-0.7,1.2-1.3,2.4-2,3.7c-1.9-0.1-3.7-0.3-5.6-0.3
		c-1.5-0.1-4.2-0.7-5.6-0.3c-1.1,0.3-2.3,2.3-3.1,3.1c-1,1.2-2,2.1-3.1,3.1c-0.6-1.2-1.2-2.2-1.7-3.6c-0.4-1.1-0.8-2.9-1.5-3.7
		c-0.6-0.6-2.1-0.9-3-1.2c-3.3-1.3-6.4-2.5-9.3-3.7c-0.1-3-1.3-5-2.2-7.2c0.9-1.2,2.6-1,3.4-2.2c0.4-0.6,0.4-1.8,0.6-2.7
		c0.6-2.7,1.3-5.6,2-7.9c1.2-0.6,2.4-1.1,3.9-1.7c1-0.4,3-0.9,3.7-1.9c0.7-1.1,0.6-3,0.8-4.7c0.3-1.6,0.4-3.3,0.6-4.9
		c0.9-0.8,1.7-1.7,2.9-2.7c1.5-1.3,3.5-2.1,2.9-5.1c0.3-0.4,0.1-1.2,0.1-1.8c0.4-2.9-2-5.6-1.3-8.3
		C1188.5,388.7,1189.9,388.2,1190.4,387z"/>
	<path id="Geumcheon-gu" fill="#C8C8C8" stroke="#000000" stroke-miterlimit="10" d="M1251.3,505.2c2.2-0.3,3.1-1.8,4.9-2.4
		c2,0.9,4,4.2,6.4,2.6c0.4,1,1.1,1.9,1.5,2.9c1,0.4,2,0.9,2.9,1.3c-0.1,0.9-0.2,1.5-0.1,2.4c-0.2,0.1-0.2,1.1,0,1.2
		c0.3,4.4,0.9,9.4,1.5,13.7c0.2,1.6,0.1,3.4,0.6,4.6c0.4,1.3,2,2.3,2.3,3.6c1,0.3,2,0.7,3,1c0.3,1.4,0.7,2.6,1.1,3.9
		c-0.1,0.6-0.7,0.7-1,1.1c-3.6,0.7-4.6,4.2-5.6,7.7c-1.8,0.1-3.3,2-5.1,2.2c-2.2,0.3-4.4-0.6-7-0.3c-1.5-6-3.6-13.2-5.3-19.5
		c-0.4-1.6-0.9-5.5-2-6.4c-0.7-0.5-2.1-0.4-3-0.4c-0.7-7.6-3.8-12.6-5.9-18.8c0.6,0,1.1,0,1.7,0c0.7,0.2,2.1,0.2,2.7,0
		c0.6,0,1.3,0,1.9,0c0.4-0.1,1.1,0.1,1.3-0.1c0.6,0,1.2,0,1.8,0C1250.4,505.3,1251.1,505.4,1251.3,505.2z"/>
	<path id="Guro-gu" fill="#C8C8C8" stroke="#000000" stroke-miterlimit="10" d="M1255.7,500.2c0.1,0.4-0.1,1,0.1,1.2
		c0,0.3,0,0.4,0,0.7c-1.5,0.7-2.5,2.1-4.6,2.3c-0.4,0.1-1.1-0.1-1.3,0.1c-0.6,0-1.2,0-1.8,0c-0.4,0.1-1.1-0.1-1.3,0.1
		c-0.6,0-1.3,0-1.9,0c-0.9,0-1.7,0-2.6,0c-0.7-0.1-1.6,0.1-2.1-0.1c-0.4-1.9,0.3-4-0.4-5.4c-0.3-0.6-1.7-1.2-2.2-1.5
		c-0.9-0.5-1.8-1.3-2.6-1.3c-0.6-0.1-1.7,0.6-2.2,0.9c-0.7,0.3-1.6,0.7-2.1,1.1c-0.6,0.4-1.8,2-2,2.7c-0.5,1.5,0.1,3.7-1.1,4.2
		c-0.6,0.5-1.2,1.1-1.7,1.7c-0.8,0.7-1.5,1.5-2.2,2.2c-0.3,0.4-0.5,0.7-0.9,1c-0.6,0.5-1.2,1.1-1.7,1.7c-0.8,0.7-1.5,1.5-2.2,2.2
		c-0.6,0.6-0.9,1.5-1.7,1.7c-1.3,0.4-3.6,0.2-4.9,0c-1.3-0.2-2.3-1.1-3.4-1.1c-2.3-0.1-4.4,1.2-6.4,1.3c-1.2,0.1-2.1-0.3-3.4-0.3
		c1.3-2.7,2.6-5.8,4-8.7c0.5-1,1.3-2.1,1.3-3c0-1.2-1.2-2.9-1.9-4.4c-0.5-1-1.9-3.6-1.9-4.4c0-0.5,0.7-1.5,1-2.2
		c2-4,4.2-7.9,4.8-12.7c-0.1-0.7-0.7-0.8-1-1.3c1.7,0.2,3.3,0.5,4.8,0.8c0.5,1.2,0.7,2.7,1.5,3.6c0.1,0.2,1,0.2,1.1,0
		c0.8,0,1.5,0,2.3,0c0.9-0.1,2.1,0.1,2.7-0.1c1.3-0.5,2.4-1.9,3.7-3c0.5-0.4,1.2-0.9,1.8-1.5c1-0.9,1.4-1.9,3-1.5
		c0.2,0.3,0.9,0.1,1.2,0.1c0.9,0,1.8,0,2.7,0c0.5,1.7,1.1,3.2,1.5,4.9c1.1,0.3,2.1,1.3,3.4,1.5c1.7,0.2,3.6-0.4,5.6-0.3
		c0.3-0.1,1,0.1,1.1-0.1c0.9-0.5,1.5-2.1,2-3.3s0.9-2.4,1.5-3.2c1,0.5,1.9,1.2,3,1.8c0.9,0.5,2.5,0.9,3,1.8c0.3,0.5,0.5,1.5,0.7,2.3
		c0.7,2.5,1.2,5.1,1.5,7.9c0.7,1,2,1.6,1.7,3.8c0.1,0.4-0.1,1,0.1,1.2c0,0.6,0,1.3,0,1.9c0.1,0.4-0.1,1,0.1,1.2
		C1255.7,499,1255.7,499.6,1255.7,500.2z"/>
	<path id="Gwanak-gu" fill="#C8C8C8" stroke="#000000" stroke-miterlimit="10" d="M1314.6,538.1c-1,1-2.1,2.1-3.4,3.2
		c-1.1,1-2.1,2.4-3.4,3.2c-1.2,0.9-2.8,1.5-4.4,2.4c-1.5,0.9-3,2.3-4.4,2.6c-1,0.3-2.2,0.1-3.4,0.1c-1.1,0.1-2.3,0.1-3.4,0.1
		c-1.9,0.1-5.2,0.5-6.9,0.3c-1.3-0.3-2.3-1.6-3.7-2.1c-0.9-1.4-0.8-4.5-1.9-5.6c-1-1-2.8-0.5-4.3-1.1c1.8-1.2-0.3-3.8-0.4-5.6
		c-0.9-0.5-1.9-0.9-3-1.1c-0.4-1.2-1.9-2.2-2.2-3.4c-0.4-1.2-0.4-2.9-0.6-4.6c-0.2-1.5-0.4-3-0.6-4.6c-0.6-4.7-0.9-8.9-0.9-12.9
		c-0.9-0.5-1.9-0.9-2.9-1.3c-0.5-0.9-1.1-1.7-1.5-2.7c2.5-0.3,4.2-2.7,6.1-3.2c2.5-0.7,5,0.1,6.9-1.5c0.5-1.2,0.9-2.5,1.5-3.7
		c1.3,0,2.7,0,4,0c1-0.1,2.4,0.1,3.2-0.1c1.5,0,2.9,0,4.4,0c1.8,0,3.6,0,5.4,0c2.4,0.9,4.8,1.8,7.1,2.9c0.9,3.4,1.8,6.9,2.7,10.5
		c2,1.6,3.9,3.3,5.9,4.8c0.6,0.3,1.7,0.1,2.4,0.1c0.4-0.1,1.1,0.1,1.3-0.1c2.2,0.3,3.1-1.2,4.4-1.5c-0.4,3,0.4,4.6,1.3,6.4
		c1.7,3.3,3.4,7.2,5.3,9.7c-0.9,0.3-1.8,0.3-2.6,0.6C1320.1,532.5,1317.3,535.2,1314.6,538.1z"/>
	<path id="Gwangjin-gu" fill="#C8C8C8" stroke="#000000" stroke-miterlimit="10" d="M1375.5,462.7c0.5-3.3,1.6-5.9,1.7-9.6
		c2-2.6,4-4.8,5.3-8.2c1.3-3.4,1.4-7.5,2.4-11.3c0.5-1.8,1.5-3.5,2.2-5.2c0.7-1.8,1.3-3.7,2.2-5.2c2.9-0.6,5.9,0.1,8.4-0.6
		c2.3-0.7,4.3-3,7.7-2.3c0.8-0.2,0.3,1,0.4,1.5c-0.4,1.9-2.7,3.4-2.9,5.3c-0.1,1.2,0.9,2.6,1.2,3.9c0.5,1.9-0.1,4.1,1.2,5.3
		c0.5,0,1,0,1.5,0c0.4,0.3,1.2,0.1,1.8,0.1c0.6,0,1.3,0,1.9,0c-0.6,1.5-1,2.8-1.2,4.4c-0.3,1.5-0.3,3.4-0.8,5
		c-0.5,1.5-1.7,3.4-2.6,5.1c-0.9,1.7-2.2,3.1-3.2,4.4c-1,1.3-2.2,2.7-3.4,4.2c-1,1.3-2.3,3.6-3.4,4.2c-1.5,0.7-3.6,0.8-5.6,0.9
		c-0.5,0-1,0-1.5,0c-0.7,0-1.5,0-2.2,0c-0.3,0.1-1-0.1-1.1,0.1C1381.4,464.8,1378.1,464.1,1375.5,462.7z"/>
	<path id="Jongno-gu" fill="#C8C8C8" stroke="#000000" stroke-miterlimit="10" d="M1320.3,420.7c-3,2-6.6,3.4-10.5,4.3
		c-1.5-1.3-2.9-2.4-4.2-3.9c-0.4-0.5-0.7-0.9-1.2-1.2c-1-1-2-2.8-2-4.4c0-0.9,0.6-2.1,0.9-3.3c0.7-2.2,1.3-4.2,2-6.4
		c0.3-1.1,0.9-2.3,0.9-3.4c0.1-1.5-0.5-3-0.8-4.3s-0.7-2.6-1.1-4c-1.2-0.6-2.6-1-3.7-1.8c0-0.1,0-0.3,0-0.4c0.3-0.3,0.1-1.1,0.1-1.5
		c0-0.9,0-1.6,0-2.4c0-0.7,0-1.5,0-2.2c0.3-0.3,0.1-1.1,0.1-1.5c0-0.9,0-1.6,0-2.4c0-0.7,0-1.5,0-2.2c0.3-0.3,0.1-1.1,0.1-1.5
		c0-0.9,0-1.6,0-2.4c0.3-2.8,0.1-5,1-6.9c0.7-1.6,2.6-2.6,3.7-4.1c0.7-1.1,1-2.1,1.8-3.2c2.7-0.3,5-1,7.7-1.2c0.9,1,2.2,1.8,3.4,2.6
		c1.5,3.7,1.9,7.7,3,11.6c1.1,4,3.7,7.5,3.8,12.4c-0.7,1.3-1.2,2.7-1.8,4c-1.2,0.4-2.3,0.9-3.4,1.3c-0.2,1.5-0.7,3.3-0.4,4.8
		c2.2,2,6,1.5,9.4,2.4c1.7,0.5,3,1.4,4.4,1.8c2.5,5,4.3,10.5,7.8,14.4c2.9,0.3,5.9,0.4,8.7,0.7c0,0.3,0,0.5,0,0.8
		c-0.3,0.5-0.1,1.5-0.1,2.2c0,1,0,1.9,0,2.9c-1,0-2,0-2.9,0c-0.4,0.1-1.1-0.1-1.3,0.1c-0.7,0-1.4,0-2.1,0c-0.4,0.1-1.1-0.1-1.3,0.1
		c-0.7,0-1.3,0-2,0c-0.4,0.1-1.2-0.1-1.5,0.1c-2.8,0.3-5.1,0.9-7.9,1.2c-1.8,0-3.7,0-5.6,0c-1.1-0.9-1.8-2.1-3.1-2.7
		C1321.8,420.5,1320.7,420.5,1320.3,420.7z"/>
	<path id="Jung-gu" fill="#C8C8C8" stroke="#000000" stroke-miterlimit="10" d="M1349.7,429.7c-0.9,1.7-1.6,3.4-3,4.6
		c-0.7,0.6-1.2,1.2-1.8,1.8c-0.1,0.1-0.1,0.1-0.3,0.1c-0.5,0.5-1.1,0.9-1.5,1.5c-0.9,2.6-2.1,4.8-3.2,7.1c-1.8-0.7-2.9-2-4.8-2.6
		c-0.3-0.3-0.9-0.1-1.3-0.1c-0.7,0-1.3,0-2,0c-0.3-0.3-0.9-0.1-1.3-0.1c-4,0.6-4.4-2.3-6.6-3.6c-0.5-0.3-1.5-0.1-2.2-0.1
		c-0.5,0.1-1.3-0.1-1.7,0.1c-0.7,0-1.5,0-2.2,0c-0.6,0.1-1.5-0.1-1.9,0.1c-3,0.3-6,0.5-9,0.8c-0.7-2.9-1.6-5.6-2.7-8.2
		c2.1-1.6,4.3-3,5.6-5.4c2.8-0.7,5.4-1.4,7.9-2.7c1.5-0.7,2-1.8,4.3-1.5c0.9,1,1.8,1.9,2.7,2.7c5.4,0.7,9.4-0.9,14.1-1.2
		c0.4-0.1,1.1,0.1,1.3-0.1c0.7,0,1.3,0,2,0c0.4-0.1,1.2,0.1,1.5-0.1c0.7,0,1.3,0,2,0c0.4-0.1,1.2,0.1,1.5-0.1c0.7,0,1.3,0,2,0
		c0.2,0,0.4,0,0.6,0c0,0.6,0,1.3,0,1.9c0,0.7,0,1.3,0,2c-0.3,0.3-0.1,0.9-0.1,1.3C1349.7,428.4,1349.7,429,1349.7,429.7z"/>
	<path id="Jungnang-gu" fill="#C8C8C8" stroke="#000000" stroke-miterlimit="10" d="M1409.2,374.5c1,1.7,4,1.5,6,2.3
		c-0.5,2.7,2.5,3.6,2.9,5.4c0.4,2-1,3.3-1.2,5.3c-1,0.9-2.1,1.7-2.9,2.7c0,0.1,0,0.1,0,0.3c-0.2,0.9-0.2,2.5,0,3.4
		c0.1,0.9,0.7,1.3,1,2.1c0,0.7,0,1.5,0,2.2c-2.3,1.7-0.7,4.5-1.5,7.2c-0.4,1.4-3.5,3.3-4.2,4.6c-0.4,0.6-0.3,1.4-0.6,1.9
		c-0.7,1.5-3.4,2.3-3.7,3.9c-0.1,0.8,0.6,1.3,0.9,2c0,0.5,0,1,0,1.5c-0.1,0.1-0.6-0.1-0.6,0.1c-3.6-0.7-5.3,1.8-8,2.4
		c-2.6,0.6-5-0.1-8.1,0.6c-1-14-3.6-26.4-3.4-41.6c2.6-1.2,5.1-2.6,7.8-3.9c1.3-0.7,2.3-1.3,4.3-1.2c0.4-0.1,1,0.1,1.2-0.1
		c0.6,0,1.2,0,1.8,0c0.4-0.1,1,0.1,1.2-0.1c0.6,0,1.2,0,1.8,0c0.4-0.1,1,0.1,1.2-0.1C1407,375.5,1408,374.9,1409.2,374.5z"/>
	<path id="Mapo-gu" fill="#C8C8C8" stroke="#000000" stroke-miterlimit="10" d="M1249.9,398.8c1.5,1.3,1.5,4.2,4.4,4
		c1.3,3,3.9,4.3,6.4,6.2c1.6,1.3,3.4,2.4,4.9,3.7c2.8,2.4,5,5.7,7.5,8c1.2,1.1,2.7,2,4,3.2c0.5,0.6,1.1,1.2,1.7,1.7
		c0.1,0,0.1,0.1,0.3,0.1c0.6,0.7,1.2,1.2,1.8,1.8c0.5,0.6,1.1,1.2,1.7,1.7c0.1,0,0.1,0.1,0.3,0.1c0.5,0.6,1.1,1.2,1.7,1.7
		c0.5,0.5,0.9,1.1,1.5,1.5c2.9,0.4,7.4,0.7,10.7,1.1c1.3,0.1,2.7,0.6,3.6,0.3c1.5-0.3,2.1-2.1,3.6-2.3c0.4,1.3,1.1,2.5,1.5,3.9
		c0.4,1.1,1.2,3.4,1.1,4.4c-0.1,1-1.1,4.3-1.5,5.1c-1.1,2.7-2.9,4.8-4.7,6.9c-2.3,2.7-5.1,5.4-7.5,7.5c-0.7-0.6-1.1-1.3-1.8-1.8
		c-0.7-0.6-1.3-1-2-1.5c-1.3-1-2.6-2.1-4-3c-4.4-2.6-9.2-4.3-14-6.1c-2.2-0.9-4.6-2.1-6.9-3.3c-2.3-1.1-4.8-2.1-6.8-3.4
		c-1.5-1-2.9-2.6-4.4-3.9c-3.8-3.3-7.5-6.4-11.1-9.7c-0.7-0.7-1.8-1.3-2.2-2c-0.9-1.2-1.1-2.7-1.8-4c-0.6-1.1-1.7-2.3-2.7-3.4
		c-1.5-1.8-2.7-3.6-4.8-4.6c0-0.1,0-0.1,0-0.1c1.8-0.6,3.7-3.4,5.6-3.8c2-0.4,4.2,0.2,6.6-0.3c0.7-0.7,1.7-1.6,2.6-2.6
		c0.7-0.7,2.1-2,2.3-2.7c0.1-0.5-0.1-1.1,0.1-1.5C1247.8,400.5,1249.1,400,1249.9,398.8z"/>
	<path id="Nowon-gu" fill="#C8C8C8" stroke="#000000" stroke-miterlimit="10" d="M1401.1,337c-0.1,1-0.9,1.3-1,2.2
		c-0.2,0.9,0.1,4.1,0.3,5.1c0.2,0.7,1.5,3.3,2,3.6c1.3,0.9,3.6,0.3,5.2,0.7c1.8,0.4,3.3,1.2,4.9,1.7c0.6,2.5,0.1,4.6,0.7,6.8
		c0.5,1.7,2.1,2.8,1.5,5.3c-0.7,1-1.2,2.2-2,3.1c-1,0.4-2,0.1-2.7,0.6c-0.7,0.4-1.8,2.1-1.9,3.1c-0.2,1.5,0.5,2.8,1.3,3.7
		c-0.1,0.3-0.4,0.6-0.3,1c-1.3,0.3-2.3,1-4.1,0.8c-0.4,0.1-1-0.1-1.2,0.1c-0.6,0-1.2,0-1.8,0c-0.4,0.1-1-0.1-1.2,0.1
		c-0.6,0-1.2,0-1.8,0c-0.4,0.1-1-0.1-1.2,0.1c-2.7,0.1-4.8,1.7-6.9,2.7c-1.9,0.9-3.7,1.7-5.3,2.7c-2.6-0.7-5.3-1.2-7.8-1.9
		c-3.8-5-7.7-10.5-10.8-15.9c1.5-0.1,3.1-0.1,4.4-0.3c0.7-2.1,0.4-4.5,0.8-6.6c0.3-1.5,1.3-3.1,1.7-4.8c0.5-2.4,0.4-5.4,0.7-8.2
		c0.1-1.3,0.3-2.7,0.4-4c0.1-1.3,0.4-2.8,0.3-3.9c-0.3-1.5-1.2-3.1-1.8-4.7c-0.6-1.5-1.6-3.3-1.8-4.7c-0.1-0.9,0.3-1.9,0.3-2.9
		c0.1-0.9,0.1-2,0.3-2.9c0.5-2.3,2-4.8,2.6-7.3c0.5-2.2,0.1-4.8,0.7-6.8c1.3-2.1,3.5-1.9,5.9-3.2c0.8-0.4,2-1.3,2.7-2
		c0.7-0.7,1.3-1.9,1.9-2.1c0.7-0.3,2.3-0.4,3.1-0.3c0.7,0.1,1.5,1.1,2.2,1.7c1.8,1.3,2.9,2.1,4.6,3.4c0.7,0.6,1.5,1.5,2.2,1.8
		c1.9,0.8,3.4,0.4,5.6,1.2c1,3.4-0.4,4.3-1.8,6.4c-0.7,1.1-1.9,2.4-1.9,3.4c0,1,1.2,3,1.7,3.7c0.7,1.1,2.7,2.5,3.1,3.8
		c0.5,1.8-0.1,3.4,0.3,5.7c-0.7,1-3.5,1.5-4,2.7c-0.4,0.9,0.1,2.1-0.1,3.6C1401,335.8,1400.8,336.6,1401.1,337z"/>
	<path id="Seocho-gu" fill="#C8C8C8" stroke="#000000" stroke-miterlimit="10" d="M1339.5,466.4c1.1,2.7,3.4,5.3,4.3,8.3
		c0.4,1.3,0.6,3,0.8,4.4c0.3,1.5,0.1,3.3,0.7,4.6c0.7,1.5,3,2.4,3.4,3.9c0.5,1.5,0.2,3.6,0.3,5.3c0.3,3.7,0.5,7.2,2.4,9.1
		c0.5,0.6,1,1.1,1.5,1.5c0.5,0.6,1.1,1.2,1.7,1.7c1.2,1,2.9,1.3,4.2,2.1c1.1,1.2,2.1,2.3,3.4,3.4c1.3,5.6,1.9,11.9,5,15.8
		c2.8-0.9,6.1-2.1,9.9-2.3c0.6-0.7,1.1-1.4,1.7-2.3c0.5-0.7,0.7-1.9,1.5-2.4c1.8-1.2,6.8-2.3,9.4-1.2c0.9,0.3,1.3,1.3,2,1.5
		c0.3,0.2,0.3,0.7,0.3,1.1c0.1,0.3-0.1,1,0.1,1.1c0,0.5,0,1,0,1.5c0.1,0.6-0.1,1.4,0.1,1.8c0,0.1,0,0.3,0,0.4
		c0.8,1.2,1.8,2.2,2.6,3.4c2.4,1.2,4.3,2.9,5.7,5.1c-1.2,0.7-3.9,0.6-4.7,1.8c-0.6,0.9,0.1,2-0.1,3.1c-0.2,1.2-1.3,2.3-1.2,3.4
		c-1.4,0.4-3.6,0.1-4.3,1c-0.7,1.8-0.7,3.6-2.3,4.4c-1,0.6-3.2,0.8-4.6,1.1c-1.3,0.3-3.8,0.5-4.4,1.2c-0.7,0.9-0.7,2.9-0.9,4.2
		c-0.3,1.6-0.6,2.8-1,4.1c-1.5,0-2.9,0-4.4,0c-1.8-0.1-3.3-0.7-5.1-0.8c-2.2-1.4-4.8-3.3-7.2-4.8c-0.9-0.6-2.7-1.1-2.4-2.3
		c0.2-0.4,0.2-1.6,0-2c-0.6-3.7-1.7-6.9-2.6-10.2c0-0.4,0-0.9,0-1.2c0-0.4,0-0.7,0-1.1c0-1.3,0-2.6,0-3.9c0.3-0.4,0.1-1.3,0.1-1.9
		c-0.1-0.9,0.1-1.9-0.1-2.6c0.1-2-1.8-1.7-3.4-2c-1.3-0.3-2.3-0.9-3.4-0.7c-1,0.1-2.6,1.5-3.7,2.2c-1.2,0.7-2.7,1.4-3.7,2.2
		c-1.6,1.4-2.5,3.6-3.8,4.6c-1,0.2-2.8,0.2-3.9,0c-1.3-1.2-0.3-3.3-0.6-4.9c-0.2-0.9-1.6-2.4-2.2-2.7c-0.5-0.2-2-0.4-2.9,0
		c-0.9,0.4-0.9,1.5-1.8,2.1c-2.7-3.4-4.3-8-6.4-12c-0.1-1.5,0.1-3.3-0.1-4.6c-1-3.4-0.9-6.6-0.3-10.5c0.3-2.1,0.6-4.3,1-6
		c0.3-0.9,0.9-1.8,0.9-2.7c-0.1-1.1-0.9-2.1-1.3-3c-0.5-1.1-0.9-2-1.3-3c-1.6-0.3-3.3-0.3-5.1-0.3c-0.4-1.2-0.7-2.4-0.9-3.8
		c4.4-0.1,8,0.3,11.1-1c1.5-0.6,2.9-2.4,4.2-3.6C1331.9,474.5,1336,470.4,1339.5,466.4z"/>
	<path id="Seodaemun-gu" fill="#C8C8C8" stroke="#000000" stroke-miterlimit="10" d="M1305.2,421.9c1.2,1.3,2.7,2.3,3.9,3.7
		c-2,3.6-6.2,5-9.2,7.5c-3-0.3-6.7-0.7-10.1-1.1c-2-0.3-3.7-0.1-4.6-1.3c-0.6-0.7-1.2-1.2-1.8-1.8c-0.5-0.6-1.1-1.2-1.7-1.7
		c-0.1-0.1-0.1-0.1-0.3-0.1c-0.6-0.7-1.2-1.2-1.8-1.8c-0.5-0.6-1.1-1.2-1.7-1.7c-2.9-2-5.6-4.8-8.1-7.5c-0.9-1-3.3-2.6-3.4-3.8
		c-0.1-0.6,0.4-3.7,0.7-4.4c0.3-0.5,0.7-0.9,1-1.1c0.4-0.3,0.8-0.7,1.1-1.1c0-0.1,0-0.1,0-0.1c0.5-0.4,0.9-0.7,1.2-1.2
		c0.3-0.4,0.5-0.8,1.2-0.7c1.2,0,2.4,0,3.7,0c0.7-0.1,1.7,0.1,2.2-0.1c1.5,0.1,2.8,0,4.1-0.1c1.4-1.3,2.3-3.3,3-5.3
		c2.4-0.6,4.4-1.6,6.6-2.4c0.6-2.4,1.5-4.4,2.6-6.2c1.8-0.9,3-2.6,6-2c0,0.1,0,0.3,0,0.3c-0.3,0.6-0.1,1.7-0.1,2.4
		c0,0.9,0,1.7,0,2.6c1,1,2.6,1.3,3.9,2c0.7,2.5,1.3,5,1.8,7.7c-1,2.9-1.9,6.4-2.9,9.8c-0.3,1.2-1,2.3-1,3.3c-0.1,1.4,1,2.6,1.2,4
		c0.4,0.5,0.7,0.9,1.2,1.2C1304.3,421.1,1304.8,421.5,1305.2,421.9z"/>
	<path id="Seongbuk-gu" fill="#C8C8C8" stroke="#000000" stroke-miterlimit="10" d="M1322.4,356.2c1,0.7,1.5,2.6,2.6,3.4
		c1.5,1,3.5,0.9,5.1,1.8c1,0.6,2,1.5,2.9,2.2c2.9,2.2,5.8,4.6,8.6,6.8c0.9,3.6,1.7,7,2.6,10.5c1.3,0.7,2.3,2,4.7,1.7
		c0.8,0,1.5,0,2.3,0c0.4-0.1,1.2,0.1,1.5-0.1c0.7,0,1.4,0,2.1,0c0.8,0,1.5,0,2.3,0c0.4-0.1,1.2,0.1,1.5-0.1c3.2,0.4,4.2-1.3,6.1-2.2
		c1.9-3.7,3.8-7.2,5.7-10.8c1.2,1.5,2.2,3.1,3.4,4.9c0.9,1.2,2.4,4.2,3.7,4.8c2.1,1.2,5.2,0.8,7.7,2c0,0.5,0,1,0,1.5
		c-0.3,1.7-0.1,4-0.1,5.9c-5.4,1.8-12.2,2-16,5.3c-0.9,0.7-1.7,1.6-2.4,2.4c-1.3,1.9-2.2,4.2-3.4,6.1c-3.2,1.1-5.1,2.4-7.5,4.2
		c-0.7,0.6-1.8,1-2.2,1.7c-0.7,1.1-0.6,3.1-1.2,4.4c-0.3,0.6-1.8,2.4-2.2,2.6c-1.1,0.3-2.7-0.3-4.1-0.3c-1.3-0.1-2.7-0.2-4.2-0.3
		c-3.6-3.9-5.1-9.7-7.9-14.4c-1.6-0.3-2.8-1.5-4.7-1.9c-3.2-0.8-6.9-0.4-8.9-2.1c0.1-1.3,0.3-2.6,0.4-3.9c1.2-0.3,2.2-0.9,3.4-1.2
		c0.4-1.7,1.7-2.8,1.9-4.6c0.4-3.3-1.1-5.8-2-8.1c-0.6-1.4-1.2-2.8-1.7-4.3c-1.2-4.2-1.7-8.4-3.1-11.9c-1.1-0.8-2.4-1.3-3.3-2.3
		c1.5-0.4,2.9,0.3,4-0.3C1321.3,359.1,1321.3,357,1322.4,356.2z"/>
	<path id="Seongdong-gu" fill="#C8C8C8" stroke="#000000" stroke-miterlimit="10" d="M1354.6,424.9c0.5,0,1,0,1.5,0
		c1.2-0.7,0.9-2.8,3.3-2.4c0.1,0.3,0.7,0.1,1.1,0.1c2.1-0.1,4,0.1,6,0.3c0.6,1.6,1,3.3,1.5,5c5.4,1.9,11.1,3.6,16.2,5.9
		c-1,6-1.9,11-4.6,15.2c-0.9,1.5-2.6,2.5-3.1,4c-0.4,1.2-0.1,2.4-0.3,3.6c-0.3,2-1,3.7-1.5,5.7c-4.7-2.4-9.4-5.9-15.4-7.3
		c-1.3-0.3-3-0.3-4.6-0.3c-4.5-0.3-7.7,0.3-11.7,1.1c-0.9-3.4-1.7-6.9-2.7-10.3c1.4-2.3,2.3-5.1,3.7-7.5c0.6-0.5,1.2-1.1,1.7-1.7
		c0.7-0.6,1.2-1.2,1.8-1.8c1.3-1.2,2-3,2.9-4.6c0.3-0.4,0.1-1.2,0.1-1.8c0-0.6,0-1.3,0-1.9c0.3-0.3,0.1-1,0.1-1.5c0-0.6,0-1.1,0-1.7
		c1.1,0.4,1.3,1.7,2.9,1.7C1353.7,425,1354.3,424.8,1354.6,424.9z"/>
	<path id="Songpa-gu" fill="#C8C8C8" stroke="#000000" stroke-miterlimit="10" d="M1414.1,448.6c0.7,0.6,1.2,1.3,1.8,2.1
		c0.9,0.1,1.8,0.1,2.7,0.1c1.4,2.3,0.1,5.9-0.8,8.3c-0.3,0.9-1.1,2.1-1,2.7c0.2,1.3,3,2.2,3.6,3.4c1,1.8,1.5,4,2.7,5.6
		c1.3,0.4,3.2,0.4,4.8,0.6c1.3,1.3,2.7,2.4,5.2,2.6c-0.6,1.4-1.5,2.4-2.3,3.9c-0.5,0.9-2.3,3.1-2.1,4.2c0.1,0.9,1.6,1.1,1.9,2.2
		c0.3,1.3-0.3,1.8,0,3.4c2.2,3.3,7.5,3.4,11.4,5c0.5,0.3,1.5,0.1,2.1,0.1c0.3,0.8,0.1,2.1,0.1,3c-2.6,0.8-4,1.9-4.7,4.6
		c-0.5,1.9-0.3,4.3-0.9,6.1c-0.5,1.4-1.6,2.1-2.2,3.3c-1.3,0.6-2.7,0.3-3.7,1.1c-0.5,0.4-1.2,2.7-1.5,3.9c-0.3,0.9,0.3,2,0.1,2.7
		c-0.2,0.9-1.1,1.3-1.5,1.8c-0.6,0.1-1.4-0.1-1.8,0.1c-1.7,0.2-3-0.3-4,0.3c-0.9,0.4-1.2,2.1-1.7,3.1c-0.6,1.3-1,2.4-1.5,3.2
		c-1.3-3.3-3-6.2-4.9-9c-0.7-0.9-1.6-1.8-1.9-2.7c-0.9-2.5-0.5-5.4-1.5-8.1c-2.1-1.6-4.6-2.8-6.7-4.4c-0.3-1-0.6-2-0.9-3
		c-0.6-0.7-1.3-1.3-2-2c-2.9-0.9-6.5-0.7-9.2-1.7c-0.9-0.3-1.9-1.1-2.9-1.5c-2.2-1.1-3.6-1.8-5.3-3.2c-0.7-0.6-1.8-1.3-2.2-1.9
		c-0.9-1.2-1.2-2.8-2.1-4.3c-0.1-0.5,0.1-1.3-0.1-1.5c0-0.6,0-1.3,0-1.9c0-0.7,0-1.5,0-2.2c-0.1-0.4,0.1-1.1-0.1-1.3
		c0-0.7,0-1.3,0-2c0-0.7,0-1.5,0-2.2c-0.1-0.4,0.1-1.1-0.1-1.3c0-0.2,0-0.4,0-0.6c0.9,0.1,1.6,0.4,2.7,0.3c0.5,0,1,0,1.5,0
		c0.7,0,1.5,0,2.2,0c0.3-0.1,1,0.1,1.1-0.1c1,0,2,0,3,0c0.4-0.1,1,0.1,1.2-0.1c1.9-0.5,4.1-0.6,6-1.3c1.7-0.7,2.5-2,3.6-3.4
		c1.8-2.4,3.6-4.7,5.4-7c1.2-1.6,2.7-3,3.6-4.7C1412.3,452.6,1413.1,450.4,1414.1,448.6z"/>
	<path id="Yangcheon-gu" fill="#C8C8C8" stroke="#000000" stroke-miterlimit="10" d="M1204.7,447.8c0.6-1.1,1.1-2.4,1.9-3.4
		c1.5,0.1,2.7-0.6,3.8-0.3c0.5,0.1,1.6,1.1,1.9,1.5c0.4,0.7,0.7,1.8,1.1,2.7c1.1,2.6,2.6,5.9,3.4,8.2c1.5,1.5,3.4,2.1,6,2.7
		c1.2,0.3,2.4,0.7,3.4,0.6c2.2-0.3,4.2-1.8,6-2.3c0.5-2.1,2.8-4.1,3.4-6c0.6-2.2-0.1-4.8,0.4-6.8c0.4-1.2,1.3-1.9,1.9-2.9
		c1.4,0.1,2.4,0.7,3.6,1c1.2,0.3,3.2-0.1,4.4,0.3c1.5,2.7,2.2,5.8,3.7,8.4c0.4,0.7,1.2,1.3,1.5,2.1c0.4,1.3-0.1,2.6,0.3,3.9
		c-2,1.9-4.2,3.4-6.1,5.3c0,1.1,0,2.2,0,3.4c-0.3,0.9-0.1,2.3-0.1,3.4c0,1.8,0,3.7,0,5.6c-0.5,2.7-2,4.5-2.9,6.9
		c-0.2,0.3-1-0.1-1.1,0.3c-3.2,0.1-6.6,0.7-8.4-1c-0.6-1.6-1.1-3.3-1.7-4.9c-1-0.2-2.1-0.3-3.2-0.3c-0.2-0.3-0.9-0.1-1.2-0.1
		c-0.6,0-1.1,0-1.7,0c-2.4,2-4.4,4.3-7.1,6c-0.9,0-1.8,0-2.7,0c-0.5,0.1-1.3-0.1-1.7,0.1c-0.4,0-0.9,0-1.3,0
		c-0.4-1.2-0.8-2.4-1.3-3.4c-2.1-0.4-4.3-0.7-6.4-1.1c0.4-1.7,2.5-4.2,2.7-6c0.4-2.6,0-6.2,0-9.6s0.5-7,0-9.7
		C1206.5,450.5,1205,449.1,1204.7,447.8z"/>
	<path id="Yeongdeungpo-gu" fill="#C8C8C8" stroke="#000000" stroke-miterlimit="10" d="M1246,463c0.9-0.7,1.8-1.6,3-2.6
		c0.8-0.7,2.6-1.7,2.9-2.7c0.4-1.3-0.4-2.6-0.3-4.3c-1.6-2-2.3-4.2-3.4-6.8c-1.1-2.6-2.4-4.5-2.3-8c2.8,2,4.8,4.8,7.8,6.8
		c1.4,0.9,3.2,1.5,4.8,2.3c4.7,2.3,9.5,5,14.7,6.6c0.9,4.5,1.1,9,2.7,12.4c1.2,2.4,3.6,3.5,5.6,5c0,0.1,0,0.1,0,0.1
		c-2.2,3.4-4.3,7-6,11c0.1,4.7-0.9,8.4-2.4,11.6c-2.1,0.6-5,0.6-6.8,1.5c-0.7,0.3-3,2.4-3.2,3c-0.7,1.6-0.1,3.8-0.9,5.7
		c-0.6,0.1-0.9,0.3-1.3,0.4c-1.5-0.9-3-2-4.4-3c0-0.3,0-0.5,0-0.8c-0.1-0.4,0.1-1-0.1-1.2c0-0.6,0-1.2,0-1.8c-0.1-0.4,0.1-1-0.1-1.2
		c0-0.6,0-1.3,0-1.9c-0.1-0.4,0.1-1-0.1-1.2c0.6-2.4-1.3-2.7-1.8-4.2c-0.6-1.5-0.4-3.4-0.9-5.2c-0.4-1.7-0.9-3.4-1.2-5
		c-2.1-1.3-4.3-2.5-6.4-3.8c0-1.9,0-3.8,0-5.6c0-1.6,0-3.3,0-4.9C1246.1,464.7,1245.9,463.7,1246,463z M1293.1,469.1
		c-4.7-5.3-9.4-10.3-16.5-13.2c0.5,3.4,1,6.8,2.1,9.6c1.3,1.2,2.9,3.3,4.7,3.8c2.3,0.7,4.7,0.1,7.5,0.3
		C1291.4,469,1293.2,469.6,1293.1,469.1z"/>
	<path id="Yongsan-gu" fill="#C8C8C8" stroke="#000000" stroke-miterlimit="10" d="M1324.1,439.6c1.9,1.3,2.6,3.8,6.4,3.3
		c0.3,0.3,0.9,0.1,1.3,0.1c0.7,0,1.3,0,2,0c0.3,0.3,0.9,0.1,1.3,0.1c1.8,0.7,3.3,1.8,4.8,2.7c0.7,3.5,1.9,7,2.4,10.2
		c-3.9,2.4-7.4,6.2-10.8,10c-2.6,2.8-5.1,5.1-7.9,7.7c-1.7,1.5-2.4,2.7-4.9,2.9c-2.9,0.3-8.1,0.4-10.2-0.4c-1.3-0.5-2.4-2.1-3.4-3.2
		c-1.1-1.3-2.1-2.4-3-3.6c-0.5-0.7-1.2-1.3-1.8-1.9c-0.5-0.1-0.7-0.6-1-0.9c-0.4-0.6-0.9-1-1.5-1.5c-0.4-0.5-0.9-0.9-1.3-1.3
		c-1.2-1.2-2.3-2.5-3.4-3.8c5.7-5.6,11.9-10.7,13.9-20c3-0.1,5.9-0.6,9-0.7c0.6,0,1.3,0,1.9,0c0.5-0.1,1.3,0.1,1.7-0.1
		c0.7,0,1.5,0,2.2,0C1322.7,439.3,1323.8,439,1324.1,439.6z"/>
</g>
<g>
	<text transform="matrix(1 0 0 1 1363.0767 432.0918)" fill="#939598" font-family="'HelveticaNeue-Bold'" font-size="5.1197">Kleifarvatn</text>
	<text transform="matrix(1 0 0 1 1276.8916 454.1055)" fill="#939598" font-family="'HelveticaNeue-Bold'" font-size="5.1197">Seltún Geothermal Area</text>
	<circle fill="#A8AAAD" cx="1358.4" cy="433.7" r="3"/>
	<circle fill="#A8AAAD" cx="1341.3" cy="450.5" r="3"/>
</g>
<g id="trail-path_1_" display="none">
	<path display="inline" fill="none" stroke="#010101" stroke-width="5" stroke-miterlimit="10" d="M1349,324.1
		c-0.4,23.5-14.1,44.5-27.3,63.9c-2.5,3.6-4.9,7.2-7.7,10.6c-1.9,2.4-4.1,4.7-5.9,7.2c-9.3,12.1-13.2,27.5-16.9,42.4
		c-3.6,14.5-7.2,29-10.7,43.5c-0.4,1.6-0.8,3.4-0.1,5c0.7,1.6,2.2,2.5,3.7,3.5c3.6,2.2,7.2,4.4,10.7,6.6c1.9,1.2,3.8,2.3,6,2.3
		c2.1,0,4-1,5.8-1.9c13.6-6.4,29.6-4.9,44.1-9c12.2-3.4,23-10.5,33.5-17.5c25.6-17.1,51.3-34.3,76.9-51.4"/>
</g>
<g id="camera-path_1_" display="none">
	<path display="inline" fill="none" stroke="#EC2227" stroke-width="3" stroke-miterlimit="10" d="M1337.9,323.9
		c-5,14.4-10,28.8-14.9,43.2c-4.5,12.9-9,25.9-12.3,39.2c-4,15.9-6.3,32.3-6.9,48.7c-0.1,1-0.2,2.1-1,2.5c-0.9,0.4-1.9-1.2-1-1.5
		c-2.2,19,1.6,38.6,10.5,55.4c0.8,1.5,1.7,3,3.1,4c1.9,1.3,4.3,1.2,6.6,1c6.4-0.5,12.8-1.8,19.1-3.2c2.6-0.6,5.2-1.1,7.8-1.6
		c8.3-1.8,16.8-3.6,24-8c4.8-2.9,8.9-6.9,12.9-10.8c4.8-4.7,9.7-9.3,14.5-14c8.1-7.9,16.3-15.9,22.2-25.6c5.8-9.7,9-21.5,6.1-32.5"
		/>
</g>
<g id="points_1_" display="none">
	<circle id="도봉구" display="inline" fill="#405B54" cx="1348.2" cy="332.5" r="1.4"/>
	<circle id="성북구" display="inline" fill="#405B54" cx="1322.6" cy="388.5" r="1.4"/>
	<circle id="동작구" display="inline" fill="#405B54" cx="1287.2" cy="466.2" r="1.4"/>
	<circle id="서초구" display="inline" fill="#405B54" cx="1334.2" cy="501.3" r="1.4"/>
	<circle id="송파구" display="inline" fill="#405B54" cx="1383.5" cy="482.4" r="1.4"/>
	<circle id="강동구" display="inline" fill="#405B54" cx="1446.2" cy="439.5" r="1.4"/>
</g>
</svg>
