<?xml version="1.0" encoding="utf-8"?>
<!-- Generator: Adobe Illustrator 18.1.1, SVG Export Plug-In . SVG Version: 6.00 Build 0)  -->
<svg version="1.1" id="Layer_1" xmlns="http://www.w3.org/2000/svg" xmlns:xlink="http://www.w3.org/1999/xlink" x="0px" y="0px"
	 viewBox="0 0 500 500" style="enable-background:new 0 0 500 500;" xml:space="preserve">
<g style="opacity:0.4;">
	<path id="Dobong-gu" style="fill:#C8C8C8;stroke:#000000;stroke-miterlimit:10;" d="M918.1-75.8c-0.1,0.5,0,1-0.1,1.5
		c-0.1,0.6-0.5,1.2-0.6,1.8c0,0.2-0.1,0.5-0.1,0.8c0,0.2-0.1,0.6-0.1,0.8c0,0.4,0.3,0.8,0.5,1.2c0.1,0.3,0.4,0.9,0.4,1.2
		c0,0.3-0.1,0.6-0.1,1c0,0.3-0.1,0.6-0.1,1c-0.1,0.7,0,1.4-0.2,2c-0.1,0.4-0.3,0.8-0.4,1.2c-0.1,0.5-0.1,1-0.2,1.5
		c-0.4,0-0.7,0-1.1,0.1c-0.8-1-1.7-2.1-2.6-3.2c-0.3-0.3-0.6-0.9-1-1c-0.4-0.1-1,0-1.2-0.4c-0.2-0.3-0.5-0.5-0.8-0.8
		c0-0.1-0.1-0.1-0.1-0.1c-0.2-0.2-0.4-0.5-0.7-0.7c-0.1-0.5,0.1-0.9,0.2-1.3c0.1-0.1,0-0.3,0-0.4c0-0.2,0-0.4,0-0.7
		c-0.1-0.7,0.2-1.4,0.1-2c0-0.7-0.3-1.3-0.3-2c0.6-0.1,0.4-1.2,0.5-1.9c0-0.4,0.3-0.8,0.4-1.1c0.5-0.2,1.2-0.4,2.1-0.3
		c0.1,0,0.3,0,0.4,0c0.2,0,0.4,0,0.6,0c0.5,0.2,0.2,1.2,0.5,1.4c0.2,0.1,0.8,0.1,1.1,0.1c0.4,0,0.8,0,1.2,0.1
		C917-76.2,917.3-75.7,918.1-75.8z"/>
	<path id="Dongdaemun-gu" style="fill:#C8C8C8;stroke:#000000;stroke-miterlimit:10;" d="M917-54.2c1-0.7,2.5-0.8,3.8-1.2
		c0.2,2.8,0.6,5.5,0.8,8.2c-0.4,0.8-0.7,1.7-1,2.5c-1.2-0.5-2.6-1-3.9-1.4c-0.1-0.4-0.2-0.8-0.4-1.2c-0.1-0.1-0.2-0.1-0.4-0.1
		c0-0.1-0.2,0-0.3,0c-0.3,0-0.5,0-0.8,0c-0.3,0-0.6-0.1-0.8,0c-0.3,0.1-0.2,0.5-0.5,0.6c-0.1,0-0.2,0-0.2,0c0-0.1-0.2,0-0.3,0
		c-0.4,0-0.5-0.3-0.7-0.5c0-0.1,0-0.2,0-0.3c0.1-0.1,0-0.2,0-0.4c0-0.2,0-0.4,0-0.5c-0.1-0.5,0.4-0.7,0.5-1c0.2-0.4,0.1-0.7,0.3-1.1
		c0.7-0.5,1.4-1.1,2.4-1.4c0.3-0.5,0.5-1.2,0.9-1.6C916.6-53.7,916.8-54,917-54.2z"/>
	<path id="Dongjak-gu" style="fill:#C8C8C8;stroke:#000000;stroke-miterlimit:10;" d="M895.6-35c0.7,0.1,1.4,0.1,2.2,0.1
		c0.3,0,0.7,0,1,0c0.1,0,0.2,0,0.2-0.1c0.4,0.4,0.7,0.8,1.1,1.2c0.3,0.4,0.7,0.9,1.2,1.1c0.4,0.2,1,0.2,1.5,0.3
		c0.1,0.4,0.1,0.7,0.3,1.1c0.4,0.1,0.9,0,1.2,0.1c0.2,0.4,0.4,0.9,0.6,1.3c-0.2,0.6-0.4,1.4-0.5,2.2c-0.1,1-0.1,1.7,0.1,2.5
		c-0.4,0.2-0.7,0.5-1.5,0.4c-0.2,0-0.3,0-0.5,0c-0.2-0.2-0.4-0.4-0.7-0.5c-0.2-0.2-0.5-0.3-0.7-0.6c-0.2-0.4-0.2-0.9-0.3-1.3
		c-0.1-0.4-0.2-0.9-0.4-1.3c-0.7-0.2-1.3-0.6-2-0.8c-0.4,0-0.9,0-1.3,0c-0.3,0-0.6,0-0.8,0c-0.4,0-0.7,0-1.1,0c-0.3,0-0.7,0-0.9,0
		c-0.2,0.2-0.3,0.7-0.5,1c-0.4,0.3-1.1,0.2-1.6,0.3c-0.5,0.2-0.9,0.7-1.4,0.7c0.1-0.4,0.1-0.8,0.2-1.2c0.3-0.2,0.4-0.5,0.7-0.6
		c0.5-0.2,1.1-0.2,1.7-0.4c0.1-0.5,0.4-0.9,0.5-1.4c0.1-0.5,0-0.9,0.1-1.4c0-0.2,0.2-0.4,0.3-0.6C894.7-33.6,895.1-34.4,895.6-35z"
		/>
	<path id="Eunpyeong-gu" style="fill:#C8C8C8;stroke:#000000;stroke-miterlimit:10;" d="M897-66.7c0.4,0.1,0.5-0.1,0.7-0.4
		c0.4-0.4,0.7-0.9,1-1.4c0.8,0.7,1.7,1.4,2.5,2.1c0.2,0.2,0.7,0.5,0.8,0.7c0,0.2,0,0.4,0,0.5c0,0.3,0,0.5,0,0.8c0,0.1,0,0.3,0,0.4
		c0.1,0.8-0.3,1-0.5,1.5c0,0,0.1,0,0.1,0.1c-0.3,0.5-0.6,1-0.9,1.4c-0.2,0.2-0.4,0.3-0.5,0.5c-0.1,0.4-0.1,0.8-0.2,1.3
		c-0.1,0.1,0,0.3,0,0.4c0,0.2,0,0.4,0,0.6c0,0.2,0,0.4,0,0.5c-0.1,0.1,0,0.3,0,0.4c0,0.2,0,0.4,0,0.6c0,0.2,0,0.4,0,0.7
		c-0.5-0.1-0.8,0-1.1,0.2c-0.2,0.1-0.4,0.2-0.5,0.3c-0.4,0.4-0.5,1-0.7,1.5c-0.5,0.2-1,0.4-1.6,0.6c-0.2,0.5-0.4,0.9-0.6,1.2
		c-0.1,0.1-0.2,0-0.3,0c-0.2,0-0.4,0-0.5,0c-0.2,0-0.5,0-0.8,0c-0.3,0-0.7,0-0.9,0c-0.2,0-0.2,0.1-0.3,0.2c-0.1,0.1-0.2,0.2-0.3,0.3
		c-0.1,0.1-0.2,0.2-0.3,0.3c0,0,0,0,0,0c-0.1,0.1-0.2,0.2-0.3,0.3c-0.1,0.3-0.1,0.8-0.2,1.2c-0.4-0.2-0.7-0.6-1.2-0.9
		c-0.4-0.3-0.9-0.5-1.2-0.9c-0.2-0.2-0.2-0.5-0.4-0.6c-0.5,0-0.6-0.4-0.9-0.7c0.6,0.3,1.4,0.3,2.3,0.3c0.3-0.4,0.8-0.8,1.1-1.2
		s0.5-0.9,0.4-1.7c0-0.2,0-0.3,0-0.5c0-0.4,0-0.8,0-1.2c0-0.3,0-0.6,0-0.9c0-0.6,0-1.1,0-1.7c0.1-0.2,0.4-0.3,0.5-0.5
		c0.1-0.2,0-0.5,0.1-0.7c0.1-1.7,0.3-3.6,0.4-5.1c0.6,0,1.3,0,1.9,0.1c0.2,0,0.4,0.1,0.6,0c0.4-0.2,0.3-1,1-0.7c0,0.1,0.2,0,0.3,0
		C896.6-66.7,896.8-66.7,897-66.7z"/>
	<path id="Gangbuk-gu" style="fill:#C8C8C8;stroke:#000000;stroke-miterlimit:10;" d="M909.7-74.5c0.1,0.7,0.3,1.3,0.4,2
		c0,0.5-0.2,0.9-0.2,1.5c-0.1,0.1,0,0.3,0,0.4c0,0.2,0,0.4,0,0.7c0.1,0.8-0.3,1.1-0.2,1.8c0.1,0.1,0.1,0.2,0.2,0.3
		c0.2,0.2,0.5,0.5,0.7,0.7c0.2,0.3,0.5,0.5,0.8,0.8c0.2,0.3,0.8,0.2,1.2,0.3c1.6,1.8,3.2,3.5,4.4,5.7c-0.5,0.9-1,1.8-1.4,2.7
		c-0.3,0.1-0.5,0.3-0.8,0.5c-0.2,0-0.4,0-0.5,0c-0.2,0-0.3,0-0.5,0c-0.2,0-0.4,0-0.6,0c-0.1,0-0.3,0-0.4,0c-0.2,0-0.3,0-0.5,0
		c-0.2,0-0.4,0-0.6,0c-0.1,0-0.3,0-0.4,0c-0.2-0.1-0.4-0.2-0.5-0.3c-0.2-0.8-0.4-1.7-0.7-2.6c-0.7-0.6-1.4-1.1-2.1-1.7
		c-0.2-0.2-0.5-0.4-0.7-0.6c-0.4-0.2-0.8-0.2-1.2-0.4c-0.2-0.3-0.4-0.6-0.6-0.8c0.1-0.2,0.2-0.2,0.2-0.4c0.1-0.1,0-0.3,0-0.5
		c0-0.1,0-0.3,0-0.4c0-0.3,0-0.6,0-0.8s0-0.5,0-0.8c0-0.1,0-0.3,0-0.4c0-0.3,0-0.6,0-0.8c0-0.3,0-0.5,0-0.8c0-0.1,0-0.2,0-0.4
		c0.3-0.6,0.8-1.2,1.2-1.9c0.1-0.2,0.3-0.5,0.4-0.7c0.2-0.7,0.2-1.4,0.5-2.2C908.3-74,909-74.3,909.7-74.5z"/>
	<path id="Gangdong-gu" style="fill:#C8C8C8;stroke:#000000;stroke-miterlimit:10;" d="M929.3-44.4c0.3-0.4,0.7-0.5,1.2-0.8
		c0.5-0.3,0.8-0.7,1.4-0.7c0.6,0,1.2,0,1.8,0c1-0.2,1.6-0.9,2.4-1.4c0.5-0.3,1.1-0.5,1.6-0.8c0,0.1,0,0.2,0,0.3c0,0.1,0,0.3,0,0.4
		c0,0.6,0.6,0.6,0.9,0.8c0.1,0.1,0.3,0,0.4,0c0.1,0.4,0.1,0.8,0.2,1.1c-0.1,0.6-0.6,1.1-0.5,1.7c0,0.2,0.3,0.4,0.3,0.7
		c0.1,0.4,0,0.7,0,1.1c0,0.2,0.2,0.4,0.3,0.5c-0.1,0.3-0.3,0.5-0.4,0.8c-0.8,0.2-1.5,0.5-2.4,0.8c-0.4,0.1-0.8,0.2-1.2,0.4
		c-0.3,0.1-1,0.2-1.2,0.4c-0.1,0.1-0.1,0.5-0.1,0.9c0,0.3,0,0.6,0,0.9c0,0.3-0.2,0.5-0.4,0.8c-0.4,0.6-0.7,1.2-1.1,1.8
		c-0.3-0.1-0.5,0-0.7-0.1c-0.2-0.1-0.4-0.4-0.6-0.5c-0.3-0.1-0.7,0-1.2-0.1c-0.2-0.4-0.3-1-0.6-1.4c-0.2-0.3-0.6-0.4-0.8-0.8
		c0.3-0.8,0.9-1.9,0.4-2.8c-0.2,0-0.4-0.1-0.7-0.1c-0.2-0.2-0.3-0.4-0.5-0.5c0.2-1.2,0.2-2.5,1-3.1
		C929.1-44.2,929.2-44.3,929.3-44.4z"/>
	<path id="Gangnam-gu" style="fill:#C8C8C8;stroke:#000000;stroke-miterlimit:10;" d="M909.7-36.6c0.2-0.2,0.4-0.3,0.6-0.5
		c0.2-0.2,0.4-0.4,0.6-0.5c0.2-0.1,0.5-0.1,0.7-0.1c0.5-0.1,1-0.1,1.6-0.1c0.9,0.1,1.4,0.2,2,0.4c1.4,0.6,2.6,1.8,4.3,2
		c0.1,0.1,0,0.4,0,0.6c0,0.2,0,0.4,0,0.5c0,0.1,0,0.3,0,0.4c0,0.1,0,0.3,0,0.5c0,0.2,0,0.4,0,0.5c0,0.1,0,0.3,0,0.3
		c-0.1,0.5,0.1,0.7,0.3,1c0.1,0.2,0.2,0.5,0.3,0.6c0.1,0.2,0.4,0.3,0.6,0.5c0.2,0.2,0.4,0.4,0.6,0.5c0.2,0.1,0.5,0.2,0.8,0.4
		c0.2,0.1,0.5,0.3,0.7,0.4c0.7,0.2,1.5,0.2,2.1,0.4c0.1,0.2,0.3,0.3,0.5,0.5c0.1,0.2,0.1,0.5,0.2,0.7c0.5,0.4,1.1,0.7,1.6,1.1
		c0,0.3,0.1,0.7,0.2,1c0.1,0.3,0.1,0.7,0.2,1c0.1,0.2,0.2,0.4,0.4,0.5c0.5,0.8,1,1.5,1.4,2.4c-0.3,0.1-0.8,0-1.1,0.1
		c-0.3,0.1-0.3,0.6-0.5,0.9c-0.1,0.1-0.4,0.4-0.6,0.4c-0.3,0.1-0.7,0-1,0.1c-0.2,0.1-0.4,0.2-0.6,0.3c-0.2,0-0.5-0.1-0.8,0
		c-0.3-0.2-0.4-0.6-0.7-0.8c-0.2-0.2-0.6-0.3-0.8-0.5c-0.1-0.1-0.5-0.6-0.6-0.8c0-0.1,0-0.3,0-0.4c0-0.1,0-0.2,0-0.3
		c0-0.2,0-0.4,0-0.6c-0.2-0.2-0.4-0.4-0.7-0.5c-0.8-0.3-1.8,0-2.5,0.3c-0.2,0.4-0.5,0.8-0.8,1.2c-0.9,0-1.5,0.3-2.2,0.5
		c-0.7-1-0.8-2.5-1.2-3.8c-0.3-0.3-0.6-0.6-0.8-0.8c-0.4-0.2-0.8-0.3-1.1-0.5c-0.1-0.1-0.3-0.3-0.4-0.4c0,0,0,0-0.1-0.1
		c-0.1-0.1-0.2-0.3-0.4-0.4c-0.4-0.4-0.4-1.2-0.4-2.1c0-0.4,0-0.9-0.1-1.2c-0.1-0.4-0.7-0.6-0.8-1c-0.1-0.3-0.1-0.7-0.2-1.1
		c-0.1-0.4-0.1-0.8-0.2-1.1c-0.1-0.4-0.4-0.7-0.5-1C910-35.8,909.9-36.2,909.7-36.6z"/>
	<path id="Gangseo-gu" style="fill:#C8C8C8;stroke:#000000;stroke-miterlimit:10;" d="M873-55.9c0.8,0.4,1.6,1,2.3,1.5
		c0.2,0.2,0.5,0.3,0.7,0.5c0.2,0.2,0.4,0.6,0.6,0.8c0.2,0.3,0.4,0.6,0.6,0.8c0.4,0.4,0.8,0.7,1.2,1c0.4,0.5,0.7,1.1,1.2,1.6
		c0.3,0.4,1,0.5,1.4,0.8c0.2,0.1,0.4,0.2,0.6,0.4c0.2,0.1,0.5,0.2,0.6,0.3c0.2,0.1,0.3,0.4,0.5,0.7c0.2,0.2,0.4,0.4,0.6,0.7
		c0.2,0.3,0.3,0.7,0.5,1c0.3,0.5,0.8,0.8,1.2,1.2c0.4,0.4,0.9,0.7,1.3,1.2c0.1,0.3,0.1,0.7,0.2,1c0,0,0,0,0,0.1c-0.3,0-0.7,0-1,0
		c-0.3-0.1-0.6-0.2-1-0.2c-0.2,0.2-0.4,0.6-0.5,0.8c0,0.6-0.1,1.1-0.1,1.7c-0.3,0.4-0.6,0.9-0.8,1.4c-0.5,0.1-0.9,0.5-1.4,0.5
		c-0.2,0-0.5-0.1-0.7-0.1c-0.6-0.1-1.1-0.3-1.4-0.7c-0.1-0.2-0.2-0.4-0.3-0.7c-0.2-0.5-0.4-0.9-0.6-1.3c-0.1-0.2-0.2-0.5-0.3-0.7
		c-0.1-0.1-0.4-0.4-0.6-0.4c-0.3-0.1-0.8,0.2-1.1,0.1c-0.2,0.3-0.3,0.6-0.5,0.9c-0.5,0-0.9-0.1-1.4-0.1c-0.4,0-1-0.2-1.4-0.1
		c-0.3,0.1-0.6,0.6-0.8,0.8c-0.2,0.3-0.5,0.5-0.8,0.8c-0.1-0.3-0.3-0.5-0.4-0.9c-0.1-0.3-0.2-0.7-0.4-0.9c-0.1-0.1-0.5-0.2-0.7-0.3
		c-0.8-0.3-1.6-0.6-2.3-0.9c0-0.7-0.3-1.2-0.5-1.8c0.2-0.3,0.6-0.2,0.8-0.5c0.1-0.1,0.1-0.4,0.1-0.7c0.1-0.7,0.3-1.4,0.5-1.9
		c0.3-0.1,0.6-0.3,1-0.4c0.2-0.1,0.7-0.2,0.9-0.5c0.2-0.3,0.1-0.7,0.2-1.2c0.1-0.4,0.1-0.8,0.1-1.2c0.2-0.2,0.4-0.4,0.7-0.7
		c0.4-0.3,0.9-0.5,0.7-1.2c0.1-0.1,0-0.3,0-0.4c0.1-0.7-0.5-1.4-0.3-2C872.5-55.5,872.9-55.6,873-55.9z"/>
	<path id="Geumcheon-gu" style="fill:#C8C8C8;stroke:#000000;stroke-miterlimit:10;" d="M887.9-26.9c0.5-0.1,0.8-0.4,1.2-0.6
		c0.5,0.2,1,1,1.6,0.6c0.1,0.2,0.3,0.5,0.4,0.7c0.2,0.1,0.5,0.2,0.7,0.3c0,0.2,0,0.4,0,0.6c0,0,0,0.3,0,0.3c0.1,1.1,0.2,2.3,0.4,3.4
		c0,0.4,0,0.8,0.1,1.1c0.1,0.3,0.5,0.6,0.6,0.9c0.2,0.1,0.5,0.2,0.7,0.2c0.1,0.3,0.2,0.6,0.3,1c0,0.1-0.2,0.2-0.2,0.3
		c-0.9,0.2-1.1,1-1.4,1.9c-0.4,0-0.8,0.5-1.2,0.5c-0.5,0.1-1.1-0.1-1.7-0.1c-0.4-1.5-0.9-3.2-1.3-4.8c-0.1-0.4-0.2-1.3-0.5-1.6
		c-0.2-0.1-0.5-0.1-0.7-0.1c-0.2-1.9-0.9-3.1-1.4-4.6c0.1,0,0.3,0,0.4,0c0.2,0,0.5,0,0.7,0c0.1,0,0.3,0,0.5,0c0.1,0,0.3,0,0.3,0
		c0.1,0,0.3,0,0.4,0C887.7-26.9,887.9-26.9,887.9-26.9z"/>
	<path id="Guro-gu" style="fill:#C8C8C8;stroke:#000000;stroke-miterlimit:10;" d="M889-28.1c0,0.1,0,0.2,0,0.3c0,0.1,0,0.1,0,0.2
		c-0.4,0.2-0.6,0.5-1.1,0.6c-0.1,0-0.3,0-0.3,0c-0.1,0-0.3,0-0.4,0c-0.1,0-0.3,0-0.3,0c-0.1,0-0.3,0-0.5,0c-0.2,0-0.4,0-0.6,0
		c-0.2,0-0.4,0-0.5,0c-0.1-0.5,0.1-1-0.1-1.3c-0.1-0.1-0.4-0.3-0.5-0.4c-0.2-0.1-0.4-0.3-0.6-0.3c-0.1,0-0.4,0.1-0.5,0.2
		c-0.2,0.1-0.4,0.2-0.5,0.3c-0.1,0.1-0.4,0.5-0.5,0.7c-0.1,0.4,0,0.9-0.3,1c-0.1,0.1-0.3,0.3-0.4,0.4c-0.2,0.2-0.4,0.4-0.5,0.5
		c-0.1,0.1-0.1,0.2-0.2,0.2c-0.1,0.1-0.3,0.3-0.4,0.4c-0.2,0.2-0.4,0.4-0.5,0.5c-0.1,0.1-0.2,0.4-0.4,0.4c-0.3,0.1-0.9,0-1.2,0
		c-0.3,0-0.6-0.3-0.8-0.3c-0.6,0-1.1,0.3-1.6,0.3c-0.3,0-0.5-0.1-0.8-0.1c0.3-0.7,0.6-1.4,1-2.1c0.1-0.2,0.3-0.5,0.3-0.7
		c0-0.3-0.3-0.7-0.5-1.1c-0.1-0.2-0.5-0.9-0.5-1.1c0-0.1,0.2-0.4,0.2-0.5c0.5-1,1-1.9,1.2-3.1c0-0.2-0.2-0.2-0.2-0.3
		c0.4,0,0.8,0.1,1.2,0.2c0.1,0.3,0.2,0.7,0.4,0.9c0,0,0.2,0,0.3,0c0.2,0,0.4,0,0.6,0c0.2,0,0.5,0,0.7,0c0.3-0.1,0.6-0.5,0.9-0.7
		c0.1-0.1,0.3-0.2,0.4-0.4c0.2-0.2,0.3-0.5,0.7-0.4c0,0.1,0.2,0,0.3,0c0.2,0,0.4,0,0.7,0c0.1,0.4,0.3,0.8,0.4,1.2
		c0.3,0.1,0.5,0.3,0.8,0.4c0.4,0,0.9-0.1,1.4-0.1c0.1,0,0.2,0,0.3,0c0.2-0.1,0.4-0.5,0.5-0.8c0.1-0.3,0.2-0.6,0.4-0.8
		c0.2,0.1,0.5,0.3,0.7,0.4c0.2,0.1,0.6,0.2,0.7,0.4c0.1,0.1,0.1,0.4,0.2,0.6c0.2,0.6,0.3,1.2,0.4,1.9c0.2,0.2,0.5,0.4,0.4,0.9
		c0,0.1,0,0.2,0,0.3c0,0.1,0,0.3,0,0.5c0,0.1,0,0.2,0,0.3C889-28.4,889-28.3,889-28.1z"/>
	<path id="Gwanak-gu" style="fill:#C8C8C8;stroke:#000000;stroke-miterlimit:10;" d="M903.4-18.8c-0.2,0.2-0.5,0.5-0.8,0.8
		c-0.3,0.2-0.5,0.6-0.8,0.8c-0.3,0.2-0.7,0.4-1.1,0.6c-0.4,0.2-0.7,0.6-1.1,0.6c-0.2,0.1-0.5,0-0.8,0c-0.3,0-0.6,0-0.8,0
		c-0.5,0-1.3,0.1-1.7,0.1c-0.3-0.1-0.6-0.4-0.9-0.5c-0.2-0.3-0.2-1.1-0.5-1.4c-0.2-0.2-0.7-0.1-1.1-0.3c0.4-0.3-0.1-0.9-0.1-1.4
		c-0.2-0.1-0.5-0.2-0.7-0.3c-0.1-0.3-0.5-0.5-0.5-0.8c-0.1-0.3-0.1-0.7-0.1-1.1c0-0.4-0.1-0.7-0.1-1.1C892-24,892-25,892-26
		c-0.2-0.1-0.5-0.2-0.7-0.3c-0.1-0.2-0.3-0.4-0.4-0.7c0.6-0.1,1-0.7,1.5-0.8c0.6-0.2,1.2,0,1.7-0.4c0.1-0.3,0.2-0.6,0.4-0.9
		c0.3,0,0.7,0,1,0c0.2,0,0.6,0,0.8,0c0.4,0,0.7,0,1.1,0c0.4,0,0.9,0,1.3,0c0.6,0.2,1.2,0.4,1.7,0.7c0.2,0.8,0.4,1.7,0.7,2.6
		c0.5,0.4,1,0.8,1.4,1.2c0.1,0.1,0.4,0,0.6,0c0.1,0,0.3,0,0.3,0c0.5,0.1,0.8-0.3,1.1-0.4c-0.1,0.7,0.1,1.1,0.3,1.6
		c0.4,0.8,0.8,1.8,1.3,2.4c-0.2,0.1-0.4,0.1-0.6,0.1C904.8-20.2,904.1-19.6,903.4-18.8z"/>
	<path id="Gwangjin-gu" style="fill:#C8C8C8;stroke:#000000;stroke-miterlimit:10;" d="M918.4-37.3c0.1-0.8,0.4-1.4,0.4-2.4
		c0.5-0.6,1-1.2,1.3-2c0.3-0.8,0.3-1.8,0.6-2.8c0.1-0.4,0.4-0.9,0.5-1.3c0.2-0.4,0.3-0.9,0.5-1.3c0.7-0.1,1.4,0,2.1-0.1
		c0.6-0.2,1.1-0.7,1.9-0.6c0.2,0,0.1,0.2,0.1,0.4c-0.1,0.5-0.7,0.8-0.7,1.3c0,0.3,0.2,0.6,0.3,1c0.1,0.5,0,1,0.3,1.3
		c0.1,0,0.2,0,0.4,0c0.1,0.1,0.3,0,0.4,0s0.3,0,0.5,0c-0.1,0.4-0.2,0.7-0.3,1.1c-0.1,0.4-0.1,0.8-0.2,1.2c-0.1,0.4-0.4,0.8-0.6,1.2
		c-0.2,0.4-0.5,0.8-0.8,1.1s-0.5,0.7-0.8,1c-0.2,0.3-0.6,0.9-0.8,1c-0.4,0.2-0.9,0.2-1.4,0.2c-0.1,0-0.2,0-0.4,0c-0.2,0-0.4,0-0.5,0
		c-0.1,0-0.2,0-0.3,0C919.8-36.8,919-37,918.4-37.3z"/>
	<path id="Jongno-gu" style="fill:#C8C8C8;stroke:#000000;stroke-miterlimit:10;" d="M904.8-47.6c-0.7,0.5-1.6,0.8-2.6,1.1
		c-0.4-0.3-0.7-0.6-1-1c-0.1-0.1-0.2-0.2-0.3-0.3c-0.2-0.2-0.5-0.7-0.5-1.1c0-0.2,0.1-0.5,0.2-0.8c0.2-0.5,0.3-1,0.5-1.6
		c0.1-0.3,0.2-0.6,0.2-0.8c0-0.4-0.1-0.7-0.2-1.1c-0.1-0.3-0.2-0.6-0.3-1c-0.3-0.1-0.6-0.2-0.9-0.4c0,0,0-0.1,0-0.1
		c0.1-0.1,0-0.3,0-0.4c0-0.2,0-0.4,0-0.6c0-0.2,0-0.4,0-0.5c0.1-0.1,0-0.3,0-0.4c0-0.2,0-0.4,0-0.6c0-0.2,0-0.4,0-0.5
		c0.1-0.1,0-0.3,0-0.4c0-0.2,0-0.4,0-0.6c0.1-0.7,0-1.2,0.2-1.7c0.2-0.4,0.6-0.6,0.9-1c0.2-0.3,0.2-0.5,0.4-0.8
		c0.7-0.1,1.2-0.2,1.9-0.3c0.2,0.2,0.5,0.4,0.8,0.6c0.4,0.9,0.5,1.9,0.7,2.8c0.3,1,0.9,1.8,0.9,3c-0.2,0.3-0.3,0.7-0.4,1
		c-0.3,0.1-0.6,0.2-0.8,0.3c0,0.4-0.2,0.8-0.1,1.2c0.5,0.5,1.5,0.4,2.3,0.6c0.4,0.1,0.7,0.3,1.1,0.4c0.6,1.2,1.1,2.6,1.9,3.5
		c0.7,0.1,1.4,0.1,2.1,0.2c0,0.1,0,0.1,0,0.2c-0.1,0.1,0,0.4,0,0.5c0,0.2,0,0.5,0,0.7c-0.2,0-0.5,0-0.7,0c-0.1,0-0.3,0-0.3,0
		c-0.2,0-0.3,0-0.5,0c-0.1,0-0.3,0-0.3,0c-0.2,0-0.3,0-0.5,0c-0.1,0-0.3,0-0.4,0c-0.7,0.1-1.2,0.2-1.9,0.3c-0.4,0-0.9,0-1.4,0
		c-0.3-0.2-0.4-0.5-0.8-0.7C905.2-47.7,904.9-47.7,904.8-47.6z"/>
	<path id="Jung-gu" style="fill:#C8C8C8;stroke:#000000;stroke-miterlimit:10;" d="M912-45.4c-0.2,0.4-0.4,0.8-0.7,1.1
		c-0.2,0.1-0.3,0.3-0.4,0.4c0,0,0,0-0.1,0c-0.1,0.1-0.3,0.2-0.4,0.4c-0.2,0.6-0.5,1.2-0.8,1.7c-0.4-0.2-0.7-0.5-1.2-0.6
		c-0.1-0.1-0.2,0-0.3,0c-0.2,0-0.3,0-0.5,0c-0.1-0.1-0.2,0-0.3,0c-1,0.1-1.1-0.6-1.6-0.9c-0.1-0.1-0.4,0-0.5,0c-0.1,0-0.3,0-0.4,0
		c-0.2,0-0.4,0-0.5,0c-0.1,0-0.4,0-0.5,0c-0.7,0.1-1.5,0.1-2.2,0.2c-0.2-0.7-0.4-1.4-0.7-2c0.5-0.4,1.1-0.7,1.4-1.3
		c0.7-0.2,1.3-0.3,1.9-0.7c0.4-0.2,0.5-0.4,1.1-0.4c0.2,0.2,0.4,0.5,0.7,0.7c1.3,0.2,2.3-0.2,3.5-0.3c0.1,0,0.3,0,0.3,0
		c0.2,0,0.3,0,0.5,0c0.1,0,0.3,0,0.4,0c0.2,0,0.3,0,0.5,0c0.1,0,0.3,0,0.4,0c0.2,0,0.3,0,0.5,0c0,0,0.1,0,0.1,0c0,0.1,0,0.3,0,0.5
		c0,0.2,0,0.3,0,0.5c-0.1,0.1,0,0.2,0,0.3C912-45.7,912-45.6,912-45.4z"/>
	<path id="Jungnang-gu" style="fill:#C8C8C8;stroke:#000000;stroke-miterlimit:10;" d="M926.6-58.9c0.2,0.4,1,0.4,1.5,0.6
		c-0.1,0.7,0.6,0.9,0.7,1.3c0.1,0.5-0.2,0.8-0.3,1.3c-0.2,0.2-0.5,0.4-0.7,0.7c0,0,0,0,0,0.1c0,0.2,0,0.6,0,0.8
		c0,0.2,0.2,0.3,0.2,0.5c0,0.2,0,0.4,0,0.5c-0.6,0.4-0.2,1.1-0.4,1.8c-0.1,0.3-0.9,0.8-1,1.1c-0.1,0.1-0.1,0.3-0.1,0.5
		c-0.2,0.4-0.8,0.6-0.9,1c0,0.2,0.1,0.3,0.2,0.5c0,0.1,0,0.2,0,0.4c0,0-0.1,0-0.1,0c-0.9-0.2-1.3,0.4-2,0.6c-0.6,0.1-1.2,0-2,0.1
		c-0.2-3.4-0.9-6.5-0.8-10.2c0.6-0.3,1.2-0.6,1.9-1c0.3-0.2,0.6-0.3,1.1-0.3c0.1,0,0.2,0,0.3,0c0.1,0,0.3,0,0.4,0c0.1,0,0.2,0,0.3,0
		c0.1,0,0.3,0,0.4,0c0.1,0,0.2,0,0.3,0C926.1-58.7,926.3-58.8,926.6-58.9z"/>
	<path id="Mapo-gu" style="fill:#C8C8C8;stroke:#000000;stroke-miterlimit:10;" d="M887.6-53c0.4,0.3,0.4,1,1.1,1
		c0.3,0.7,1,1.1,1.6,1.5c0.4,0.3,0.8,0.6,1.2,0.9c0.7,0.6,1.2,1.4,1.8,2c0.3,0.3,0.7,0.5,1,0.8c0.1,0.1,0.3,0.3,0.4,0.4
		c0,0,0,0,0.1,0c0.1,0.2,0.3,0.3,0.4,0.4c0.1,0.1,0.3,0.3,0.4,0.4c0,0,0,0,0.1,0c0.1,0.1,0.3,0.3,0.4,0.4c0.1,0.1,0.2,0.3,0.4,0.4
		c0.7,0.1,1.8,0.2,2.6,0.3c0.3,0,0.7,0.1,0.9,0.1c0.4-0.1,0.5-0.5,0.9-0.6c0.1,0.3,0.3,0.6,0.4,1c0.1,0.3,0.3,0.8,0.3,1.1
		c0,0.2-0.3,1.1-0.4,1.2c-0.3,0.7-0.7,1.2-1.2,1.7c-0.6,0.7-1.2,1.3-1.8,1.8c-0.2-0.1-0.3-0.3-0.4-0.4c-0.2-0.1-0.3-0.2-0.5-0.4
		c-0.3-0.2-0.6-0.5-1-0.7c-1.1-0.6-2.3-1.1-3.4-1.5c-0.5-0.2-1.1-0.5-1.7-0.8c-0.6-0.3-1.2-0.5-1.7-0.8c-0.4-0.2-0.7-0.6-1.1-1
		c-0.9-0.8-1.8-1.6-2.7-2.4c-0.2-0.2-0.4-0.3-0.5-0.5c-0.2-0.3-0.3-0.7-0.4-1c-0.1-0.3-0.4-0.6-0.7-0.8c-0.4-0.4-0.7-0.9-1.2-1.1
		c0,0,0,0,0,0c0.4-0.1,0.9-0.8,1.4-0.9c0.5-0.1,1,0,1.6-0.1c0.2-0.2,0.4-0.4,0.6-0.6c0.2-0.2,0.5-0.5,0.6-0.7c0-0.1,0-0.3,0-0.4
		C887.1-52.6,887.4-52.7,887.6-53z"/>
	<path id="Nowon-gu" style="fill:#C8C8C8;stroke:#000000;stroke-miterlimit:10;" d="M924.6-68.1c0,0.2-0.2,0.3-0.2,0.5
		c0,0.2,0,1,0.1,1.2c0,0.2,0.4,0.8,0.5,0.9c0.3,0.2,0.9,0.1,1.3,0.2c0.4,0.1,0.8,0.3,1.2,0.4c0.1,0.6,0,1.1,0.2,1.7
		c0.1,0.4,0.5,0.7,0.4,1.3c-0.2,0.2-0.3,0.5-0.5,0.8c-0.2,0.1-0.5,0-0.7,0.1c-0.2,0.1-0.4,0.5-0.5,0.8c0,0.4,0.1,0.7,0.3,0.9
		c0,0.1-0.1,0.1-0.1,0.2c-0.3,0.1-0.6,0.2-1,0.2c-0.1,0-0.2,0-0.3,0c-0.1,0-0.3,0-0.4,0c-0.1,0-0.2,0-0.3,0c-0.1,0-0.3,0-0.4,0
		c-0.1,0-0.2,0-0.3,0c-0.7,0-1.2,0.4-1.7,0.7c-0.5,0.2-0.9,0.4-1.3,0.7c-0.6-0.2-1.3-0.3-1.9-0.5c-0.9-1.2-1.9-2.6-2.6-3.9
		c0.4,0,0.8,0,1.1-0.1c0.2-0.5,0.1-1.1,0.2-1.6c0.1-0.4,0.3-0.8,0.4-1.2c0.1-0.6,0.1-1.3,0.2-2c0-0.3,0.1-0.7,0.1-1
		c0-0.3,0.1-0.7,0.1-1c-0.1-0.4-0.3-0.8-0.4-1.2c-0.1-0.4-0.4-0.8-0.4-1.2c0-0.2,0.1-0.5,0.1-0.7c0-0.2,0-0.5,0.1-0.7
		c0.1-0.6,0.5-1.2,0.6-1.8c0.1-0.5,0-1.2,0.2-1.7c0.3-0.5,0.9-0.5,1.4-0.8c0.2-0.1,0.5-0.3,0.7-0.5c0.2-0.2,0.3-0.5,0.5-0.5
		c0.2-0.1,0.6-0.1,0.8-0.1c0.2,0,0.4,0.3,0.5,0.4c0.4,0.3,0.7,0.5,1.1,0.8c0.2,0.1,0.4,0.4,0.5,0.4c0.5,0.2,0.8,0.1,1.4,0.3
		c0.2,0.8-0.1,1.1-0.4,1.6c-0.2,0.3-0.5,0.6-0.5,0.8c0,0.2,0.3,0.7,0.4,0.9c0.2,0.3,0.7,0.6,0.8,0.9c0.1,0.4,0,0.8,0.1,1.4
		c-0.2,0.2-0.9,0.4-1,0.7c-0.1,0.2,0,0.5,0,0.9C924.6-68.4,924.6-68.2,924.6-68.1z"/>
	<path id="Seocho-gu" style="fill:#C8C8C8;stroke:#000000;stroke-miterlimit:10;" d="M909.5-36.4c0.3,0.7,0.8,1.3,1.1,2
		c0.1,0.3,0.1,0.7,0.2,1.1c0.1,0.4,0,0.8,0.2,1.1c0.2,0.4,0.7,0.6,0.8,1c0.1,0.4,0,0.9,0.1,1.3c0.1,0.9,0.1,1.8,0.6,2.2
		c0.1,0.1,0.2,0.3,0.4,0.4c0.1,0.1,0.3,0.3,0.4,0.4c0.3,0.2,0.7,0.3,1,0.5c0.3,0.3,0.5,0.6,0.8,0.8c0.3,1.4,0.5,2.9,1.2,3.9
		c0.7-0.2,1.5-0.5,2.4-0.6c0.1-0.2,0.3-0.3,0.4-0.6c0.1-0.2,0.2-0.5,0.4-0.6c0.4-0.3,1.7-0.6,2.3-0.3c0.2,0.1,0.3,0.3,0.5,0.4
		c0.1,0,0.1,0.2,0.1,0.3c0,0.1,0,0.2,0,0.3c0,0.1,0,0.2,0,0.4c0,0.1,0,0.3,0,0.4c0,0,0,0.1,0,0.1c0.2,0.3,0.4,0.5,0.6,0.8
		c0.6,0.3,1.1,0.7,1.4,1.2c-0.3,0.2-1,0.1-1.2,0.4c-0.1,0.2,0,0.5,0,0.8c0,0.3-0.3,0.6-0.3,0.8c-0.3,0.1-0.9,0-1.1,0.2
		c-0.2,0.4-0.2,0.9-0.6,1.1c-0.2,0.1-0.8,0.2-1.1,0.3c-0.3,0.1-0.9,0.1-1.1,0.3c-0.2,0.2-0.2,0.7-0.2,1c-0.1,0.4-0.1,0.7-0.2,1
		c-0.4,0-0.7,0-1.1,0c-0.4,0-0.8-0.2-1.2-0.2c-0.5-0.3-1.2-0.8-1.8-1.2c-0.2-0.1-0.7-0.3-0.6-0.6c0-0.1,0-0.4,0-0.5
		c-0.1-0.9-0.4-1.7-0.6-2.5c0-0.1,0-0.2,0-0.3c0-0.1,0-0.2,0-0.3c0-0.3,0-0.6,0-1c0.1-0.1,0-0.3,0-0.5c0-0.2,0-0.5,0-0.6
		c0-0.5-0.4-0.4-0.8-0.5c-0.3-0.1-0.6-0.2-0.8-0.2c-0.2,0-0.6,0.4-0.9,0.5c-0.3,0.2-0.7,0.3-0.9,0.5c-0.4,0.3-0.6,0.9-0.9,1.1
		c-0.2,0-0.7,0-1,0c-0.3-0.3-0.1-0.8-0.1-1.2c0-0.2-0.4-0.6-0.5-0.7c-0.1,0-0.5-0.1-0.7,0c-0.2,0.1-0.2,0.4-0.4,0.5
		c-0.7-0.8-1.1-2-1.6-2.9c0-0.4,0-0.8,0-1.1c-0.2-0.8-0.2-1.6-0.1-2.6c0.1-0.5,0.1-1.1,0.2-1.5c0.1-0.2,0.2-0.4,0.2-0.7
		c0-0.3-0.2-0.5-0.3-0.7c-0.1-0.3-0.2-0.5-0.3-0.7c-0.4-0.1-0.8-0.1-1.2-0.1c-0.1-0.3-0.2-0.6-0.2-0.9c1.1,0,2,0.1,2.7-0.2
		c0.4-0.1,0.7-0.6,1-0.9C907.7-34.4,908.7-35.4,909.5-36.4z"/>
	<path id="Seodaemun-gu" style="fill:#C8C8C8;stroke:#000000;stroke-miterlimit:10;" d="M901.1-47.3c0.3,0.3,0.7,0.6,1,0.9
		c-0.5,0.9-1.5,1.2-2.3,1.8c-0.7-0.1-1.6-0.2-2.5-0.3c-0.5-0.1-0.9,0-1.1-0.3c-0.1-0.2-0.3-0.3-0.4-0.4c-0.1-0.1-0.3-0.3-0.4-0.4
		c0,0,0,0-0.1,0c-0.1-0.2-0.3-0.3-0.4-0.4c-0.1-0.1-0.3-0.3-0.4-0.4c-0.7-0.5-1.4-1.2-2-1.8c-0.2-0.2-0.8-0.6-0.8-0.9
		c0-0.1,0.1-0.9,0.2-1.1c0.1-0.1,0.2-0.2,0.2-0.3c0.1-0.1,0.2-0.2,0.3-0.3c0,0,0,0,0,0c0.1-0.1,0.2-0.2,0.3-0.3
		c0.1-0.1,0.1-0.2,0.3-0.2c0.3,0,0.6,0,0.9,0c0.2,0,0.4,0,0.5,0c0.4,0,0.7,0,1,0c0.3-0.3,0.6-0.8,0.7-1.3c0.6-0.1,1.1-0.4,1.6-0.6
		c0.1-0.6,0.4-1.1,0.6-1.5c0.4-0.2,0.7-0.6,1.5-0.5c0,0,0,0.1,0,0.1c-0.1,0.1,0,0.4,0,0.6c0,0.2,0,0.4,0,0.6c0.2,0.2,0.6,0.3,1,0.5
		c0.2,0.6,0.3,1.2,0.4,1.9c-0.2,0.7-0.5,1.6-0.7,2.4c-0.1,0.3-0.2,0.6-0.2,0.8c0,0.3,0.2,0.6,0.3,1c0.1,0.1,0.2,0.2,0.3,0.3
		C900.9-47.5,901-47.4,901.1-47.3z"/>
	<path id="Seongbuk-gu" style="fill:#C8C8C8;stroke:#000000;stroke-miterlimit:10;" d="M905.4-63.4c0.2,0.2,0.4,0.6,0.6,0.8
		c0.4,0.2,0.9,0.2,1.2,0.4c0.2,0.1,0.5,0.4,0.7,0.5c0.7,0.5,1.4,1.1,2.1,1.7c0.2,0.9,0.4,1.7,0.6,2.6c0.3,0.2,0.6,0.5,1.2,0.4
		c0.2,0,0.4,0,0.6,0c0.1,0,0.3,0,0.4,0c0.2,0,0.3,0,0.5,0c0.2,0,0.4,0,0.6,0c0.1,0,0.3,0,0.4,0c0.8,0.1,1-0.3,1.5-0.5
		c0.5-0.9,0.9-1.8,1.4-2.6c0.3,0.4,0.5,0.8,0.8,1.2c0.2,0.3,0.6,1,0.9,1.2c0.5,0.3,1.3,0.2,1.9,0.5c0,0.1,0,0.2,0,0.4
		c-0.1,0.4,0,1,0,1.4c-1.3,0.4-3,0.5-3.9,1.3c-0.2,0.2-0.4,0.4-0.6,0.6c-0.3,0.5-0.5,1-0.8,1.5c-0.8,0.3-1.2,0.6-1.8,1
		c-0.2,0.1-0.4,0.2-0.5,0.4c-0.2,0.3-0.1,0.8-0.3,1.1c-0.1,0.1-0.4,0.6-0.5,0.6c-0.3,0.1-0.7-0.1-1-0.1c-0.3,0-0.7,0-1-0.1
		c-0.9-1-1.2-2.4-1.9-3.5c-0.4-0.1-0.7-0.4-1.2-0.5c-0.8-0.2-1.7-0.1-2.2-0.5c0-0.3,0.1-0.6,0.1-1c0.3-0.1,0.5-0.2,0.8-0.3
		c0.1-0.4,0.4-0.7,0.5-1.1c0.1-0.8-0.3-1.4-0.5-2c-0.1-0.3-0.3-0.7-0.4-1.1c-0.3-1-0.4-2.1-0.8-2.9c-0.3-0.2-0.6-0.3-0.8-0.6
		c0.4-0.1,0.7,0.1,1-0.1C905.1-62.7,905.1-63.2,905.4-63.4z"/>
	<path id="Seongdong-gu" style="fill:#C8C8C8;stroke:#000000;stroke-miterlimit:10;" d="M913.2-46.6c0.1,0,0.2,0,0.4,0
		c0.3-0.2,0.2-0.7,0.8-0.6c0,0.1,0.2,0,0.3,0c0.5,0,1,0,1.5,0.1c0.1,0.4,0.2,0.8,0.4,1.2c1.3,0.5,2.7,0.9,4,1.4
		c-0.2,1.5-0.5,2.7-1.1,3.7c-0.2,0.4-0.6,0.6-0.8,1c-0.1,0.3,0,0.6-0.1,0.9c-0.1,0.5-0.2,0.9-0.4,1.4c-1.2-0.6-2.3-1.4-3.8-1.8
		c-0.3-0.1-0.7-0.1-1.1-0.1c-1.1-0.1-1.9,0.1-2.9,0.3c-0.2-0.8-0.4-1.7-0.7-2.5c0.3-0.6,0.6-1.2,0.9-1.8c0.1-0.1,0.3-0.3,0.4-0.4
		c0.2-0.1,0.3-0.3,0.4-0.4c0.3-0.3,0.5-0.7,0.7-1.1c0.1-0.1,0-0.3,0-0.4c0-0.1,0-0.3,0-0.5c0.1-0.1,0-0.2,0-0.4c0-0.1,0-0.3,0-0.4
		c0.3,0.1,0.3,0.4,0.7,0.4C913-46.6,913.2-46.6,913.2-46.6z"/>
	<path id="Songpa-gu" style="fill:#C8C8C8;stroke:#000000;stroke-miterlimit:10;" d="M927.8-40.8c0.2,0.1,0.3,0.3,0.4,0.5
		c0.2,0,0.4,0,0.7,0c0.3,0.6,0,1.4-0.2,2c-0.1,0.2-0.3,0.5-0.2,0.7c0,0.3,0.7,0.5,0.9,0.8c0.2,0.4,0.4,1,0.7,1.4
		c0.3,0.1,0.8,0.1,1.2,0.1c0.3,0.3,0.7,0.6,1.3,0.6c-0.1,0.3-0.4,0.6-0.6,1c-0.1,0.2-0.6,0.8-0.5,1c0,0.2,0.4,0.3,0.5,0.5
		c0.1,0.3-0.1,0.4,0,0.8c0.5,0.8,1.8,0.8,2.8,1.2c0.1,0.1,0.4,0,0.5,0c0.1,0.2,0,0.5,0,0.7c-0.6,0.2-1,0.5-1.2,1.1
		c-0.1,0.5-0.1,1.1-0.2,1.5c-0.1,0.3-0.4,0.5-0.5,0.8c-0.3,0.1-0.7,0.1-0.9,0.3c-0.1,0.1-0.3,0.7-0.4,1c-0.1,0.2,0.1,0.5,0,0.7
		c0,0.2-0.3,0.3-0.4,0.4c-0.1,0-0.3,0-0.4,0c-0.4,0-0.7-0.1-1,0.1c-0.2,0.1-0.3,0.5-0.4,0.8c-0.1,0.3-0.2,0.6-0.4,0.8
		c-0.3-0.8-0.7-1.5-1.2-2.2c-0.2-0.2-0.4-0.4-0.5-0.7c-0.2-0.6-0.1-1.3-0.4-2c-0.5-0.4-1.1-0.7-1.6-1.1c-0.1-0.2-0.1-0.5-0.2-0.7
		c-0.1-0.2-0.3-0.3-0.5-0.5c-0.7-0.2-1.6-0.2-2.3-0.4c-0.2-0.1-0.5-0.3-0.7-0.4c-0.5-0.3-0.9-0.4-1.3-0.8c-0.2-0.1-0.4-0.3-0.5-0.5
		c-0.2-0.3-0.3-0.7-0.5-1.1c0-0.1,0-0.3,0-0.4c0-0.1,0-0.3,0-0.5c0-0.2,0-0.4,0-0.5c0-0.1,0-0.3,0-0.3c0-0.2,0-0.3,0-0.5
		s0-0.4,0-0.5c0-0.1,0-0.3,0-0.3c0,0,0-0.1,0-0.1c0.2,0,0.4,0.1,0.7,0.1c0.1,0,0.2,0,0.4,0c0.2,0,0.4,0,0.5,0c0.1,0,0.2,0,0.3,0
		c0.2,0,0.5,0,0.7,0c0.1,0,0.2,0,0.3,0c0.5-0.1,1-0.1,1.5-0.3c0.4-0.2,0.6-0.5,0.9-0.8c0.4-0.6,0.9-1.2,1.3-1.7
		c0.3-0.4,0.7-0.7,0.9-1.2C927.4-39.8,927.6-40.3,927.8-40.8z"/>
	<path id="Yangcheon-gu" style="fill:#C8C8C8;stroke:#000000;stroke-miterlimit:10;" d="M876.5-41c0.1-0.3,0.3-0.6,0.5-0.8
		c0.4,0,0.7-0.1,0.9-0.1c0.1,0,0.4,0.3,0.5,0.4c0.1,0.2,0.2,0.4,0.3,0.7c0.3,0.6,0.6,1.4,0.8,2c0.4,0.4,0.8,0.5,1.5,0.7
		c0.3,0.1,0.6,0.2,0.8,0.1c0.5-0.1,1-0.4,1.5-0.6c0.1-0.5,0.7-1,0.8-1.5c0.1-0.5,0-1.2,0.1-1.7c0.1-0.3,0.3-0.5,0.5-0.7
		c0.3,0,0.6,0.2,0.9,0.2c0.3,0.1,0.8,0,1.1,0.1c0.4,0.7,0.5,1.4,0.9,2.1c0.1,0.2,0.3,0.3,0.4,0.5c0.1,0.3,0,0.6,0.1,1
		c-0.5,0.5-1,0.8-1.5,1.3c0,0.3,0,0.5,0,0.8c-0.1,0.2,0,0.6,0,0.8c0,0.4,0,0.9,0,1.4c-0.1,0.7-0.5,1.1-0.7,1.7c0,0.1-0.2,0-0.3,0.1
		c-0.8,0-1.6,0.2-2.1-0.2c-0.1-0.4-0.3-0.8-0.4-1.2c-0.2,0-0.5-0.1-0.8-0.1c0-0.1-0.2,0-0.3,0c-0.1,0-0.3,0-0.4,0
		c-0.6,0.5-1.1,1.1-1.7,1.5c-0.2,0-0.4,0-0.7,0c-0.1,0-0.3,0-0.4,0c-0.1,0-0.2,0-0.3,0c-0.1-0.3-0.2-0.6-0.3-0.8
		c-0.5-0.1-1.1-0.2-1.6-0.3c0.1-0.4,0.6-1,0.7-1.5c0.1-0.6,0-1.5,0-2.4s0.1-1.7,0-2.4C877-40.3,876.6-40.7,876.5-41z"/>
	<path id="Yeongdeungpo-gu" style="fill:#C8C8C8;stroke:#000000;stroke-miterlimit:10;" d="M886.6-37.2c0.2-0.2,0.4-0.4,0.7-0.6
		c0.2-0.2,0.6-0.4,0.7-0.7c0.1-0.3-0.1-0.6-0.1-1.1c-0.4-0.5-0.6-1-0.8-1.7c-0.3-0.6-0.6-1.1-0.6-2c0.7,0.5,1.2,1.2,1.9,1.7
		c0.3,0.2,0.8,0.4,1.2,0.6c1.2,0.6,2.3,1.2,3.6,1.6c0.2,1.1,0.3,2.2,0.7,3c0.3,0.6,0.9,0.9,1.4,1.2c0,0,0,0,0,0
		c-0.5,0.8-1.1,1.7-1.5,2.7c0,1.2-0.2,2.1-0.6,2.8c-0.5,0.1-1.2,0.1-1.7,0.4c-0.2,0.1-0.7,0.6-0.8,0.7c-0.2,0.4,0,0.9-0.2,1.4
		c-0.1,0-0.2,0.1-0.3,0.1c-0.4-0.2-0.7-0.5-1.1-0.7c0-0.1,0-0.1,0-0.2c0-0.1,0-0.2,0-0.3c0-0.1,0-0.3,0-0.4c0-0.1,0-0.2,0-0.3
		c0-0.1,0-0.3,0-0.5c0-0.1,0-0.2,0-0.3c0.1-0.6-0.3-0.7-0.4-1c-0.1-0.4-0.1-0.8-0.2-1.3c-0.1-0.4-0.2-0.8-0.3-1.2
		c-0.5-0.3-1.1-0.6-1.6-0.9c0-0.5,0-0.9,0-1.4c0-0.4,0-0.8,0-1.2C886.7-36.8,886.6-37.1,886.6-37.2z M898.2-35.8
		c-1.2-1.3-2.3-2.5-4-3.2c0.1,0.8,0.2,1.7,0.5,2.4c0.3,0.3,0.7,0.8,1.2,0.9c0.6,0.2,1.2,0,1.8,0.1C897.8-35.8,898.2-35.6,898.2-35.8
		z"/>
	<path id="Yongsan-gu" style="fill:#C8C8C8;stroke:#000000;stroke-miterlimit:10;" d="M905.8-43c0.5,0.3,0.6,0.9,1.6,0.8
		c0.1,0.1,0.2,0,0.3,0c0.2,0,0.3,0,0.5,0c0.1,0.1,0.2,0,0.3,0c0.4,0.2,0.8,0.4,1.2,0.7c0.2,0.9,0.5,1.7,0.6,2.5
		c-1,0.6-1.8,1.5-2.6,2.5c-0.6,0.7-1.2,1.2-1.9,1.9c-0.4,0.4-0.6,0.7-1.2,0.7c-0.7,0.1-2,0.1-2.5-0.1c-0.3-0.1-0.6-0.5-0.8-0.8
		c-0.3-0.3-0.5-0.6-0.7-0.9c-0.1-0.2-0.3-0.3-0.4-0.5c-0.1,0-0.2-0.1-0.2-0.2c-0.1-0.1-0.2-0.2-0.4-0.4c-0.1-0.1-0.2-0.2-0.3-0.3
		c-0.3-0.3-0.6-0.6-0.8-0.9c1.4-1.4,2.9-2.6,3.4-4.9c0.7,0,1.4-0.1,2.2-0.2c0.1,0,0.3,0,0.5,0c0.1,0,0.3,0,0.4,0c0.2,0,0.4,0,0.5,0
		C905.4-43.1,905.7-43.1,905.8-43z"/>
</g>
<g>
	<text transform="matrix(1 0 0 1 915.3259 -44.8193)" style="fill:#939598; font-family:'HelveticaNeue-Bold'; font-size:1.2545;">Kleifarvatn</text>
	<text transform="matrix(1 0 0 1 894.2078 -39.4249)" style="fill:#939598; font-family:'HelveticaNeue-Bold'; font-size:1.2545;">Seltún Geothermal Area</text>
	<circle style="fill:#A8AAAD;" cx="914.2" cy="-44.4" r="0.7"/>
	<circle style="fill:#A8AAAD;" cx="910" cy="-40.3" r="0.7"/>
</g>
<g id="trail-path_1_" style="display:none;">
	<path style="display:inline;fill:none;stroke:#010101;stroke-width:5;stroke-miterlimit:10;" d="M911.9-71.3
		c-0.1,5.8-3.5,10.9-6.7,15.7c-0.6,0.9-1.2,1.8-1.9,2.6c-0.5,0.6-1,1.2-1.4,1.8c-2.3,3-3.2,6.7-4.1,10.4c-0.9,3.6-1.8,7.1-2.6,10.7
		c-0.1,0.4-0.2,0.8,0,1.2c0.2,0.4,0.5,0.6,0.9,0.9c0.9,0.5,1.8,1.1,2.6,1.6c0.5,0.3,0.9,0.6,1.5,0.6c0.5,0,1-0.2,1.4-0.5
		c3.3-1.6,7.3-1.2,10.8-2.2c3-0.8,5.6-2.6,8.2-4.3c6.3-4.2,12.6-8.4,18.8-12.6"/>
</g>
<g id="camera-path_1_" style="display:none;">
	<path style="display:inline;fill:none;stroke:#EC2227;stroke-width:3;stroke-miterlimit:10;" d="M909.2-71.3
		c-1.2,3.5-2.5,7.1-3.7,10.6c-1.1,3.2-2.2,6.3-3,9.6c-1,3.9-1.5,7.9-1.7,11.9c0,0.2,0,0.5-0.2,0.6c-0.2,0.1-0.5-0.3-0.2-0.4
		c-0.5,4.7,0.4,9.5,2.6,13.6c0.2,0.4,0.4,0.7,0.8,1c0.5,0.3,1.1,0.3,1.6,0.2c1.6-0.1,3.1-0.4,4.7-0.8c0.6-0.1,1.3-0.3,1.9-0.4
		c2-0.4,4.1-0.9,5.9-2c1.2-0.7,2.2-1.7,3.2-2.6c1.2-1.2,2.4-2.3,3.6-3.4c2-1.9,4-3.9,5.4-6.3c1.4-2.4,2.2-5.3,1.5-8"/>
</g>
<g id="points_1_" style="display:none;">
	<circle id="도봉구" style="display:inline;fill:#405B54;" cx="911.7" cy="-69.2" r="0.3"/>
	<circle id="성북구" style="display:inline;fill:#405B54;" cx="905.4" cy="-55.5" r="0.3"/>
	<circle id="동작구" style="display:inline;fill:#405B54;" cx="896.7" cy="-36.5" r="0.3"/>
	<circle id="서초구" style="display:inline;fill:#405B54;" cx="908.3" cy="-27.9" r="0.3"/>
	<circle id="송파구" style="display:inline;fill:#405B54;" cx="920.3" cy="-32.5" r="0.3"/>
	<circle id="강동구" style="display:inline;fill:#405B54;" cx="935.7" cy="-43" r="0.3"/>
</g>
</svg>
