<?xml version="1.0" encoding="utf-8"?>
<!-- Generator: Adobe Illustrator 15.0.0, SVG Export Plug-In . SVG Version: 6.00 Build 0)  -->
<!DOCTYPE svg PUBLIC "-//W3C//DTD SVG 1.1//EN" "http://www.w3.org/Graphics/SVG/1.1/DTD/svg11.dtd">
<svg version="1.1" id="Layer_1" xmlns="http://www.w3.org/2000/svg" xmlns:xlink="http://www.w3.org/1999/xlink" x="0px" y="0px"
	 width="2040.5px" height="1178.5px" viewBox="0 0 2040.5 1178.5" enable-background="new 0 0 2040.5 1178.5" xml:space="preserve">
<g>
		<path id="Dobong-gu" style="fill:#e7eff6;" d="M1345.5,65.5c-1.3,8.4-0.2,16.8-1.8,25.6c-2,10.5-8.4,20.4-10.7,31.1
		c-0.7,3.8-1.1,8.7-1.3,13c-0.5,4.3-1.8,9.5-1.3,13c0.7,6.1,5.4,13,7.9,19.5c2,5.4,6.9,14.8,7.4,19.9c0.5,4.6-1.1,10.7-1.3,16.3
		c-0.5,5.4-1.3,10.9-1.8,16.3c-1.1,11.5-0.7,23.5-2.8,33.5c-1.6,7.2-5.2,13.3-6.4,19.9c-1.6,7.9-1.3,17.2-2.8,25.6
		c-6.4,0-12.5,0.2-18.1,1.1c-13.8-17.7-29.4-36.5-44.9-53.9c-4.6-4.8-10.5-14.8-16.3-17.2c-6.4-2.5-16.3,0-20.4-6.4
		c-4.1-4.6-8.4-8.9-13-13c-0.2-1.1-1.3-1.1-1.3-1.8c-3.6-4.1-7.4-7.9-11.5-11.5c-2.3-8.9,2.3-15,3.4-22.2c1.1-1.6,0.2-5.2,0.5-7.4
		c0-3.8,0-7.7,0-11.5c-1.8-12.5,2.8-23.5,2.3-34.2c-0.5-11.5-4.8-22-5.6-33.8c10.9-1.3,7.2-19.7,8.4-32.9c0.7-7.7,5.2-13,6.1-18.1
		c9.2-4.1,20.9-6.1,35.3-5.2c2-0.2,5.4,0.5,6.4-0.5c3.1,0.5,7.4-0.7,9.7,0c8.7,2.8,3.4,19.5,9.2,23.3c4.1,2.5,13,1.3,19.2,1.3
		c6.9,0.2,13.3,0.5,19.5,1.1C1326.8,59.4,1331.4,67.3,1345.5,65.5z"/>
	<path id="Dongdaemun-gu" style="fill:#e7eff6;" d="M1326,434.3c16.1-11.8,42.4-13.3,64.2-19.9c4.3,47,9.5,93.6,14.3,140.1
		c-6.1,13.8-11.5,28.4-17.7,42.2c-21.3-8.9-43.7-16.3-66.2-23.5c-1.8-7.2-3.8-14.3-6.4-20.9c-1.1-1.3-3.8-1.1-6.1-1.1
		c-0.5-1.1-3.1-0.2-4.6-0.5c-4.6,0.2-9.2-0.2-14.1-0.5c-4.8-0.2-10.5-1.6-14.1-0.5c-4.6,1.6-4.1,7.9-8.4,10.2c-1.3,0-2.8,0-4.1,0
		c-0.5-1.1-3.1-0.2-4.6-0.5c-6.4-0.5-8.4-5.6-12.5-8.4c0-1.8,0-3.8,0-5.6c1.1-1.1,0.2-4.1,0.5-6.1c0-3.1,0-6.1,0-9.2
		c-1.6-8.2,6.1-11.3,8.9-16.6c3.1-6.1,2.3-12,5.2-18.4c12.3-8.9,24-18.4,39.9-23.5c5.6-8.7,9.2-19.5,15.9-26.8
		C1319.4,441.5,1322.8,437.9,1326,434.3z"/>
	<path id="Dongjak-gu" style="fill:#e7eff6;" d="M960.9,760.9c11.8,1.6,24.3,2.3,37.6,1.3c5.4-0.2,11.8,0.5,16.3-0.5
		c1.8,0,3.1-0.5,4.1-1.1c6.1,6.4,12,13.3,18.1,20.4c5.6,6.6,12,15,19.9,19.2c7.2,3.6,16.3,2.8,26.1,5.2c1.6,6.1,2.3,12.7,4.6,18.1
		c6.4,1.6,14.8,0.7,21.5,1.8c3.8,7.2,7.2,15,10.7,22.7c-3.8,10.5-7.2,23.5-8.9,38.1c-2,16.3-1.8,29.7,1.8,41.7
		c-7.2,3.4-12.7,8.2-25,6.4c-2.8,0-5.6,0-8.4,0c-3.8-2.8-7.4-6.1-11.5-9.2c-3.4-2.8-8.9-5.9-11.3-9.7c-3.4-6.1-3.8-15-5.6-22.2
		c-1.8-7.4-4.1-14.5-6.1-21.7c-11.5-4.1-21.7-9.7-34.2-13c-7.2,0-14.5,0-21.7,0c-4.6,0.2-10.2-0.5-14.1,0.5c-6.1,0-12.3,0-18.4,0
		c-5.2,0.2-11.5-0.5-15.9,0.5c-4.3,3.8-4.6,11.8-7.9,16.6c-7.7,5.6-18.1,2.8-27.4,5.6c-8.7,2.8-15.6,12.7-24.5,12.5
		c1.3-6.9,2-14.1,3.4-20.9c4.6-2.8,7.2-8.2,12.5-10.7c8.2-3.6,18.9-3.6,28.4-6.4c2.3-8.2,7.4-15,9.2-23.5c1.6-7.9-0.2-15.9,1.3-24.5
		c0.5-3.1,3.1-6.6,4.6-10.2C946,783.7,953.4,770.8,960.9,760.9z"/>
	<path id="Eunpyeong-gu" style="fill:#e7eff6;" d="M985.1,219.6c7.2,1.1,8.7-2.3,12-6.1c6.6-7.2,12.5-15.9,16.6-23.5
		c13.8,11.3,28.6,24.3,42.7,36.5c3.6,3.1,12.7,8.7,14.1,12.5c0.7,2.8-0.5,6.4,0,8.4c0,4.6,0,8.9,0,13.3c0.2,2-0.5,5.6,0.5,6.9
		c1.8,13.3-5.6,17.7-8.9,26.1c0.5,0.2,1.1,0.5,1.1,1.3c-4.8,8.9-9.5,16.3-15.9,23.3c-2.8,3.1-7.2,5.9-8.4,9.2
		c-2.5,6.6-1.8,14.1-4.1,22.2c-1.1,1.3-0.2,4.6-0.5,6.4c0,3.6,0,6.6,0,10.2c0,3.1,0,6.1,0,9.2c-1.1,1.3-0.2,4.6-0.5,6.4
		c0,3.6,0,6.6,0,10.2c0,3.8,0,7.7,0,11.5c-9.2-2.3-13.3,0.2-19.2,3.8c-2.8,1.6-6.1,3.4-7.9,5.2c-6.4,6.4-8.7,17.7-11.3,26.1
		c-8.9,3.6-17.7,7.4-27.4,10.2c-2.8,7.9-6.1,15-10.7,20.9c-1.1,1.1-3.6,0.2-5.2,0.5c-3.1,0.2-7.2-0.5-9.2,0.5c-4.3,0-8.7,0-13,0
		c-4.8,0.2-11.3-0.5-15.4,0.5c-3.1-0.2-4.1,1.3-5.2,2.8c-2,1.6-3.6,3.1-5.2,5.2c-1.8,1.3-3.4,2.8-4.6,4.6c0,0.2,0,0.2,0,0.5
		c-2,1.6-3.6,3.1-5.2,5.2c-1.8,5.9-2,13-3.4,19.5c-6.6-4.1-12.7-9.7-19.5-14.8c-6.4-4.8-14.8-8.9-19.9-14.8
		c-3.1-3.4-3.8-7.9-7.4-10.7c-9.2,0-10.7-7.4-14.8-12.5c10,4.6,23.5,5.6,38.6,5.6c5.4-6.4,13.3-13.3,18.4-20.9
		c5.2-7.4,8.7-15.6,7.4-28.6c0-3.1,0-5.9,0-8.9c0-6.6,0-13.3,0-19.9c-0.2-4.8,0.5-10.7-0.5-14.8c0-9.7,0-19.2,0-28.6
		c2-3.4,7.4-4.8,8.9-8.9c1.1-3.1,0.5-8.4,1.1-12.5c2.3-28.6,4.6-60.8,7.4-87.7c10.7,0.5,22.5,0.5,32,1.1c3.6,0.2,7.4,1.3,10.7,0
		c6.6-2.8,5.9-16.3,17.7-12.5c0.5,1.1,3.1,0.2,4.6,0.5C979.2,219.6,982,219.6,985.1,219.6z"/>
	<path id="Gangbuk-gu" style="fill:#e7eff6;" d="M1201.5,87.5c1.1,11.5,5.9,22.5,6.1,33.8c0.2,8.2-3.8,15.9-2.8,25
		c-1.1,1.6-0.2,5.2-0.5,7.4c0,3.8,0,7.7,0,11.5c1.6,13.3-5.9,18.6-3.4,31.5c1.3,1.6,2.5,3.1,3.8,4.6c3.8,4.1,7.9,8.2,12,12
		c4.1,4.6,8.4,8.9,13,13c3.8,4.6,13.8,3.4,20.4,5.2c27.6,30.2,54.4,60.3,75.7,96.8c-8.7,14.8-16.6,30.2-24.5,45.5
		c-4.6,2.3-8.4,5.6-13,7.9c-2.8,0.2-6.6-0.5-8.9,0.5c-2.8,0-5.6,0-8.4,0c-3.4,0-6.4,0-9.7,0c-2,0.2-5.4-0.5-6.4,0.5
		c-2.8,0-5.6,0-8.4,0c-3.4,0-6.4,0-9.7,0c-2.3,0-4.6,0-6.9,0c-3.1-1.8-6.6-3.1-8.9-5.6c-3.8-14.3-7.2-29.7-11.3-44
		c-11.8-10-24.5-18.9-36.5-28.4c-4.1-3.1-7.9-7.4-12-9.7c-6.4-3.6-14.1-3.8-20.9-7.4c-3.8-4.6-6.9-9.5-10.7-14.1
		c1.3-2.8,3.6-4.3,4.1-7.4c1.1-1.8,0.2-5.6,0.5-8.4c-0.2-2.3,0.5-5.9-0.5-7.4c0-4.8,0-9.7,0-14.3c0-4.6,0-9.2,0-14.1
		c-0.2-2,0.5-5.6-0.5-6.9c0-4.8,0-9.7,0-14.3c0-4.6,0-9.2,0-14.1c0-2,0-4.3,0-6.4c5.9-10.7,13.3-21.5,19.5-32
		c2-3.6,5.4-7.9,6.4-11.3c4.1-11.8,3.6-24.5,7.9-37.6C1178.6,95.7,1190.1,91.6,1201.5,87.5z"/>
	<path id="Gangdong-gu" style="fill:#e7eff6;" d="M1535.7,600.4c5.4-6.4,12.5-9.2,20.4-14.3c8.2-5.2,13-12,24.5-12
		c10-0.2,20.9,0.5,30.2-0.5c17.2-4.1,27-15,40.9-23.3c8.2-4.8,18.4-8.2,26.6-13c0,1.6,0,3.1,0,4.6c0.2,2.3-0.5,5.9,0.5,7.4
		c-0.2,10.2,10.2,10,15.9,14.3c1.3,1.1,4.8,0.2,6.9,0.5c1.1,6.6,1.3,13.8,4.1,18.4c-1.8,9.7-10,18.4-8.9,29.7
		c0.5,3.6,4.6,7.7,5.6,12.5c1.1,6.1-0.5,12.7,0.5,18.1c0.7,3.4,4.1,6.1,4.6,8.9c-2.5,4.6-4.6,9.2-7.4,13.3c-13,3.6-25,7.9-40.4,13
		c-6.4,2-13,4.1-19.9,6.4c-5.6,1.8-17.4,3.8-19.9,6.9c-2,2.5-1.6,9.2-1.8,14.8c-0.2,5.2-0.2,10.7-0.5,14.8
		c-0.5,5.2-3.8,9.2-6.4,13.6c-6.6,10.9-12.3,19.5-19.2,30.6c-4.8-1.6-8.4-0.5-12.5-2.3c-4.3-2-6.1-7.2-10.2-8.4
		c-5.6-1.8-12-0.2-19.5-1.8c-4.3-7.4-5.2-16.6-9.7-23.3c-3.8-5.4-10.9-7.4-14.3-13c4.8-13.6,15.4-32.7,6.4-47.2
		c-3.6-0.5-7.4-1.1-11.5-1.1c-3.1-2.8-5.2-6.4-7.9-9.2c3.8-19.5,4.1-42.4,17.2-52.9C1531.8,604.5,1533.9,602.7,1535.7,600.4z"/>
	<path id="Gangnam-gu" style="fill:#e7eff6;" d="M1202.1,734.1c3.1-3.4,6.6-5.6,10.2-8.9c3.4-2.8,6.4-7.4,10.2-8.9
		c2.8-1.1,7.9-1.3,11.5-1.8c9.2-1.6,16.3-2,26.8-1.3c14.8,1.1,24.3,3.1,34.2,7.4c24.5,10.7,44.2,30.4,72.8,33.5
		c1.1,2.3,0.2,6.6,0.5,9.7c0,3.1,0,6.1,0,9.2c0.2,1.8-0.5,4.8,0.5,6.1c0,2.5,0,5.4,0,7.9c0,3.1,0,6.1,0,9.2c0.2,1.6-0.5,4.6,0.5,5.6
		c-1.1,8.9,2.3,12.3,5.2,17.7c1.8,3.6,3.1,7.9,4.6,10.2c2,2.8,6.6,5.6,10.2,8.4c3.6,2.8,6.9,6.1,10.7,8.4c3.8,2,8.7,3.8,13,6.1
		c4.3,2,8.7,5.4,12.5,6.4c11.3,3.4,25.8,3.1,36.5,6.4c2.3,3.1,5.6,5.4,7.9,8.4c1.3,3.8,2,8.4,3.8,12c8.9,6.6,19.2,11.8,27.9,18.4
		c0.7,5.9,2,11.5,2.8,16.6c1.1,5.6,1.1,11.8,2.8,16.6c1.1,2.8,4.1,6.4,6.1,9.2c8.9,13.3,17.7,25.8,23.3,41.4
		c-5.2,1.8-13.3-0.5-18.4,1.8c-4.6,2-5.6,10.2-9.2,14.8c-2,2.3-6.9,6.4-10.2,7.4c-5.4,1.6-11.5,0.2-16.6,1.3
		c-3.8,1.1-6.6,4.3-10.2,5.2c-4.1,0.7-8.4-1.1-14.1-0.5c-4.6-4.1-6.4-9.7-11.5-14.1c-4.1-3.6-9.7-4.8-13.3-8.4
		c-2.3-2.3-8.4-10.7-9.7-14.3c0-2.3,0-4.8,0-7.4c-0.2-1.3,0.5-4.1-0.5-4.6c0.2-4.1-0.7-6.6-0.5-10.7c-4.1-2.8-7.2-6.9-12-8.9
		c-13.8-5.2-31.1,0.5-42.7,5.6c-4.1,6.6-7.9,14.1-13,19.9c-15,0.2-26.3,4.6-37.6,8.9c-11.8-16.3-14.1-42.2-19.5-64.9
		c-4.6-4.8-9.5-9.7-14.3-14.3c-6.4-3.1-13.8-4.6-18.4-9.2c-2-2.5-4.6-4.8-6.9-6.9c-0.2-0.5-0.7-0.7-1.1-1.3c-2-2.3-4.1-4.6-6.4-6.4
		c-6.6-7.2-6.4-21.5-7.4-35.8c-0.5-7.2,0-15.6-1.8-21.5c-2-6.1-12-10.2-14.3-16.6c-1.8-5.2-1.8-12.3-2.8-18.1
		c-1.1-6.4-1.6-13.8-3.4-19.2c-2-6.4-6.4-12-9.2-17.7C1207.8,746.1,1204.9,740.2,1202.1,734.1z"/>
	<path id="Gangseo-gu" style="fill:#e7eff6;" d="M576.5,405.1c13.3,7.4,26.8,16.3,38.6,25c3.8,3.1,8.7,5.6,12,8.9
		c3.8,3.8,7.2,9.5,10.7,14.1s6.9,9.7,10.7,14.1c6.1,6.6,14.1,11.3,19.9,17.7c7.4,7.9,12,18.9,19.9,26.8c5.9,6.1,16.1,9.2,24,14.1
		c3.1,1.8,6.4,4.1,9.7,6.1c3.6,2,7.9,3.4,10.7,5.6c3.4,2.5,5.9,7.7,9.2,11.5c3.4,4.1,7.7,7.4,9.7,11.3c3.4,5.6,4.6,12,7.9,17.2
		c5.4,8.2,14.3,14.1,21.5,20.4c7.4,6.6,15.6,12.5,22.7,19.5c2,4.6,2.3,11.3,2.8,17.7c0,0.2,0,0.5,0,1.1c-5.6,0-11.3,0-16.6,0
		c-5.6-1.6-10.2-4.1-17.2-4.1c-3.6,4.3-6.1,9.7-9.2,14.3c-0.2,9.7-1.3,18.4-1.3,28.4c-5.2,7.4-9.7,15.9-14.1,24
		c-7.9,1.6-15,8.4-23.3,8.9c-3.1,0.2-8.9-1.6-12.5-2.3c-10-2-18.9-4.6-23.3-11.3c-1.8-2.8-3.1-7.4-4.6-11.3
		c-3.6-8.2-6.6-15-9.7-22.7c-1.6-4.1-2.8-8.9-4.6-11.5c-1.8-2.5-7.4-7.2-9.7-7.4c-5.6-1.1-13.3,2.8-18.4,1.8
		c-3.1,4.8-5.6,10.2-8.4,15.4c-7.9-0.5-15.4-1.1-23.3-1.3c-6.4-0.5-17.7-2.8-23.5-1.3c-4.6,1.1-9.7,9.5-13,13
		c-4.3,4.8-8.4,8.9-13,13c-2.5-4.8-4.8-9.2-6.9-14.8c-1.6-4.6-3.4-12.3-6.4-15.4c-2.3-2.3-8.7-3.6-12.5-5.2
		c-13.6-5.4-26.6-10.5-38.8-15.4c-0.5-12.5-5.4-20.9-9.2-30.2c3.8-4.8,10.9-4.1,14.3-9.2c1.6-2.3,1.6-7.4,2.3-11.3
		c2.3-11.3,5.6-23.5,8.4-32.9c5.2-2.3,10.2-4.6,16.3-6.9c4.3-1.8,12.7-3.8,15.4-7.9c2.8-4.6,2.3-12.7,3.4-19.5
		c1.1-6.6,1.6-13.8,2.3-20.4c3.6-3.4,7.2-6.9,12-11.3c6.1-5.4,14.5-8.7,12-21.5c1.1-1.6,0.2-5.2,0.5-7.4c1.8-12.3-8.2-23.3-5.6-34.7
		C568.8,412.3,574.4,410.2,576.5,405.1z"/>
	<path id="Geumcheon-gu" style="fill:#e7eff6;" d="M831,898.7c9.2-1.1,13-7.4,20.4-10.2c8.2,3.6,16.6,17.4,26.8,10.7
		c1.8,4.3,4.6,7.9,6.4,12c4.1,1.8,8.2,3.6,12,5.6c-0.2,3.6-0.7,6.4-0.5,10.2c-0.7,0.5-0.7,4.6,0,5.2c1.3,18.4,3.8,39.1,6.1,57
		c0.7,6.6,0.5,14.1,2.3,19.2c1.8,5.4,8.2,9.7,9.7,14.8c4.3,1.3,8.2,3.1,12.5,4.1c1.1,5.9,3.1,10.7,4.6,16.3
		c-0.5,2.3-2.8,3.1-4.1,4.6c-15,3.1-19.2,17.7-23.3,32c-7.4,0.5-13.8,8.2-21.5,9.2c-9.2,1.3-18.4-2.3-29.1-1.3
		c-6.4-25-15-54.9-22.2-81.6c-1.8-6.6-3.6-23-8.4-26.6c-2.8-2-8.7-1.6-12.5-1.8c-2.8-31.7-15.9-52.6-24.5-78.5c2.3,0,4.6,0,6.9,0
		c2.8,0.7,8.9,0.7,11.5,0c2.5,0,5.4,0,7.9,0c1.6-0.2,4.6,0.5,5.6-0.5c2.3,0,4.8,0,7.4,0C827.1,898.9,830,899.6,831,898.7z"/>
	<path id="Guro-gu" style="fill:#e7eff6;" d="M849.1,877.6c0.2,1.6-0.5,4.3,0.5,5.2c0,1.1,0,1.8,0,2.8c-6.4,3.1-10.5,8.9-19.2,9.7
		c-1.6,0.2-4.6-0.5-5.6,0.5c-2.3,0-4.8,0-7.4,0c-1.6,0.2-4.6-0.5-5.6,0.5c-2.5,0-5.4,0-7.9,0c-3.6,0-7.2,0-10.7,0
		c-2.8-0.2-6.6,0.5-8.9-0.5c-1.8-7.9,1.3-16.6-1.8-22.7c-1.3-2.3-7.2-5.2-9.2-6.4c-3.6-2-7.7-5.4-10.7-5.6c-2.5-0.2-6.9,2.5-9.2,3.8
		c-2.8,1.3-6.6,3.1-8.9,4.6c-2.3,1.6-7.4,8.4-8.4,11.3c-2,6.1,0.5,15.6-4.6,17.7c-2.5,2-4.8,4.6-6.9,6.9c-3.4,2.8-6.4,6.1-9.2,9.2
		c-1.1,1.6-2,3.1-3.8,4.1c-2.5,2-4.8,4.6-6.9,6.9c-3.4,2.8-6.4,6.1-9.2,9.2c-2.3,2.5-3.8,6.1-6.9,6.9c-5.6,1.6-15,0.7-20.4,0
		s-9.7-4.6-14.3-4.6c-9.7-0.2-18.4,5.2-26.8,5.6c-4.8,0.2-8.9-1.1-14.3-1.3c5.6-11.3,10.9-24.3,16.6-36.3c2-4.1,5.6-8.7,5.6-12.5
		c0-5.2-4.8-12-7.9-18.4c-2-4.1-7.9-14.8-7.9-18.4c0-2,2.8-6.1,4.1-9.2c8.2-16.8,17.4-32.9,19.9-52.9c-0.2-3.1-3.1-3.4-4.1-5.6
		c7.2,0.7,13.6,2,19.9,3.4c2,4.8,3.1,11.3,6.4,14.8c0.5,0.7,4.1,0.7,4.6,0c3.4,0,6.4,0,9.7,0c3.8-0.2,8.7,0.5,11.5-0.5
		c5.4-2,10-7.9,15.4-12.5c2-1.8,4.8-3.6,7.4-6.1c4.1-3.8,5.9-7.9,12.5-6.4c0.7,1.1,3.6,0.2,5.2,0.5c3.8,0,7.7,0,11.5,0
		c2,6.9,4.6,13.3,6.4,20.4c4.6,1.3,8.7,5.4,14.3,6.1c7.2,0.7,15-1.8,23.5-1.1c1.3-0.2,4.1,0.5,4.6-0.5c3.6-2,6.1-8.7,8.4-13.6
		c2.3-4.8,3.6-10,6.4-13.3c4.3,2,7.9,4.8,12.5,7.4c3.6,2,10.5,3.8,12.5,7.4c1.3,2,2,6.4,2.8,9.7c2.8,10.5,4.8,21.3,6.1,32.9
		c3.1,4.3,8.4,6.6,6.9,15.9c0.2,1.6-0.5,4.3,0.5,5.2c0,2.5,0,5.4,0,7.9c0.2,1.6-0.5,4.3,0.5,5.2
		C849.1,872.8,849.1,875.1,849.1,877.6z"/>
	<path id="Gwanak-gu" style="fill:#e7eff6;" d="M1095,1035.9c-4.1,4.1-8.9,8.7-14.1,13.3c-4.6,4.1-8.9,10-14.3,13.3
		c-5.2,3.6-11.8,6.4-18.4,10.2c-6.1,3.6-12.5,9.5-18.4,10.7c-4.1,1.1-9.2,0.2-14.1,0.5c-4.6,0.2-9.5,0.2-14.3,0.5
		c-7.9,0.2-21.7,2-28.6,1.1c-5.6-1.1-9.7-6.6-15.4-8.9c-3.8-5.9-3.4-18.9-7.9-23.3c-4.1-4.1-11.8-2-18.1-4.6
		c7.7-5.2-1.1-15.9-1.8-23.5c-3.6-2-7.9-3.6-12.5-4.6c-1.6-4.8-7.9-9.2-9.2-14.3c-1.6-4.8-1.6-12.3-2.3-19.2
		c-0.7-6.1-1.6-12.7-2.3-19.2c-2.3-19.5-3.6-37-3.8-53.9c-3.8-2-7.9-3.8-12-5.6c-2-3.8-4.6-6.9-6.1-11.3
		c10.5-1.3,17.7-11.3,25.6-13.3c10.5-3.1,20.9,0.2,28.6-6.4c2-4.8,3.8-10.5,6.1-15.4c5.6,0,11.3,0,16.6,0c4.3-0.2,10,0.5,13.3-0.5
		c6.1,0,12.3,0,18.4,0c7.4,0,15,0,22.7,0c10,3.8,20.2,7.4,29.7,12c3.8,14.3,7.7,28.8,11.3,43.7c8.2,6.6,16.1,13.6,24.5,19.9
		c2.5,1.1,6.9,0.2,10.2,0.5c1.6-0.2,4.6,0.5,5.6-0.5c9.2,1.3,13-5.2,18.4-6.1c-1.6,12.5,1.6,19.2,5.6,26.8
		c6.9,13.8,14.3,29.9,22.2,40.4c-3.6,1.1-7.4,1.1-10.7,2.3C1118,1012.6,1106.3,1024.1,1095,1035.9z"/>
	<path id="Gwangjin-gu" style="fill:#e7eff6;" d="M1349.6,721.1c2-13.6,6.6-24.5,6.9-39.9c8.2-10.9,16.8-20.2,22.2-34.2
		c5.4-14.3,5.9-31.1,10.2-47.2c2-7.4,6.4-14.5,9.2-21.7c3.1-7.7,5.4-15.6,9.2-21.7c12.3-2.3,24.5,0.5,35.3-2.3
		c9.7-2.8,17.9-12.5,32-9.7c3.4-0.7,1.3,4.1,1.8,6.1c-1.6,7.9-11.5,14.1-12,22.2c-0.5,4.8,3.8,10.9,5.2,16.3
		c2,7.9-0.2,17.2,5.2,22.2c2,0,4.1,0,6.1,0c1.6,1.1,5.2,0.2,7.4,0.5c2.5,0,5.4,0,7.9,0c-2.3,6.1-4.1,11.8-5.2,18.4
		c-1.1,6.4-1.3,14.3-3.4,20.9c-2,6.1-6.9,14.1-10.7,21.5c-3.6,7.2-9.2,13-13.3,18.4c-4.3,5.6-9.2,11.3-14.3,17.7
		c-4.3,5.4-9.7,15-14.3,17.7c-6.4,3.1-14.8,3.4-23.3,3.8c-2,0-4.3,0-6.4,0c-3.1,0-6.1,0-9.2,0c-1.3,0.2-4.1-0.5-4.6,0.5
		C1374.1,730,1360.5,727.2,1349.6,721.1z"/>
	<path id="Jongno-gu" style="fill:#e7eff6;" d="M1119,545.7c-12.5,8.2-27.4,14.1-44,18.1c-6.1-5.4-12.3-10.2-17.7-16.3
		c-1.6-2-3.1-3.6-5.2-5.2c-4.1-4.3-8.4-11.8-8.4-18.4c0-3.6,2.3-8.7,3.8-13.6c2.8-9.2,5.6-17.7,8.4-26.6c1.3-4.6,3.6-9.7,3.8-14.1
		c0.2-6.1-2-12.5-3.4-18.1c-1.4-5.6-3.1-10.7-4.6-16.6c-5.2-2.5-10.9-4.1-15.4-7.4c0-0.5,0-1.3,0-1.8c1.1-1.3,0.2-4.6,0.5-6.4
		c0-3.6,0-6.6,0-10.2c0-3.1,0-6.1,0-9.2c1.1-1.3,0.2-4.6,0.5-6.4c0-3.6,0-6.6,0-10.2c0-3.1,0-6.1,0-9.2c1.1-1.3,0.2-4.6,0.5-6.4
		c0-3.6,0-6.6,0-10.2c1.1-11.8,0.5-20.9,4.1-28.6c3.1-6.6,10.9-10.7,15.4-17.2c3.1-4.6,4.1-8.9,7.4-13.3c11.3-1.1,20.7-4.1,32-5.2
		c3.8,4.3,9.2,7.4,14.3,10.7c6.4,15.6,7.9,32,12.5,48.3c4.6,16.6,15.6,31.1,15.9,51.7c-2.8,5.4-4.8,11.3-7.4,16.6
		c-4.8,1.8-9.7,3.6-14.3,5.6c-0.7,6.4-2.8,13.8-1.8,19.9c9.2,8.2,25.3,6.4,39.4,10.2c7.2,2,12.5,5.9,18.4,7.4
		c10.5,20.7,18.1,44,32.4,60.3c12.3,1.1,24.8,1.6,36.5,2.8c0,1.1,0,2,0,3.4c-1.1,2-0.2,6.4-0.5,9.2c0,4.1,0,7.9,0,12
		c-4.1,0-8.2,0-12,0c-1.6,0.2-4.6-0.5-5.6,0.5c-3.1,0-5.9,0-8.9,0c-1.6,0.2-4.6-0.5-5.6,0.5c-2.8,0-5.6,0-8.4,0
		c-1.8,0.2-4.8-0.5-6.1,0.5c-11.8,1.1-21.5,3.8-32.9,5.2c-7.7,0-15.6,0-23.3,0c-4.6-3.6-7.7-8.7-13-11.5
		C1125.5,544.9,1120.6,544.9,1119,545.7z"/>
	<path id="Jung-gu" style="fill:#e7eff6;" d="M1241.7,583.3c-3.6,6.9-6.6,14.3-12.5,19.2c-2.8,2.3-5.2,4.8-7.4,7.4
		c-0.2,0.2-0.5,0.5-1.1,0.5c-2,2-4.6,3.6-6.1,6.4c-3.8,10.7-8.9,19.9-13.3,29.7c-7.4-2.8-12.3-8.2-19.9-10.7
		c-1.1-1.1-3.8-0.2-5.6-0.5c-2.8,0-5.6,0-8.4,0c-1.1-1.1-3.8-0.2-5.6-0.5c-16.6,2.3-18.4-9.7-27.4-14.8c-2-1.1-6.4-0.2-9.2-0.5
		c-2,0.2-5.6-0.5-6.9,0.5c-3.1,0-6.1,0-9.2,0c-2.5,0.2-6.1-0.5-7.9,0.5c-12.5,1.1-25.3,2-37.6,3.4c-2.8-12.3-6.6-23.5-11.3-34.2
		c8.7-6.6,18.1-12.5,23.3-22.7c11.8-3.1,22.7-5.9,32.9-11.3c6.1-3.1,8.4-7.7,18.1-6.4c3.6,4.1,7.4,7.9,11.5,11.5
		c22.5,3.1,39.1-3.8,59-5.2c1.6-0.2,4.6,0.5,5.6-0.5c2.8,0,5.6,0,8.4,0c1.8-0.2,4.8,0.5,6.1-0.5c2.8,0,5.6,0,8.4,0
		c1.8-0.2,4.8,0.5,6.1-0.5c2.8,0,5.6,0,8.4,0c0.7,0,1.6,0,2.3,0c0,2.5,0,5.4,0,7.9c0,2.8,0,5.6,0,8.4c-1.1,1.1-0.2,3.8-0.5,5.6
		C1241.7,578.1,1241.7,580.7,1241.7,583.3z"/>
	<path id="Jungnang-gu" style="fill:#e7eff6;" d="M1490.1,352.7c4.3,7.2,16.8,6.1,25,9.7c-2,11.3,10.5,14.8,12,22.7
		c1.6,8.4-4.3,13.8-5.2,22.2c-4.1,3.8-8.9,6.9-12,11.5c0,0.2,0,0.5,0,1.1c-0.7,3.6-0.7,10.5,0,14.1c0.5,3.6,3.1,5.4,4.1,8.9
		c0,3.1,0,6.1,0,9.2c-9.7,6.9-2.8,18.9-6.1,30.2c-1.6,5.9-14.5,13.8-17.7,19.2c-1.6,2.5-1.3,5.9-2.3,7.9
		c-3.1,6.1-14.3,9.7-15.4,16.3c-0.5,3.4,2.3,5.6,3.8,8.4c0,2,0,4.3,0,6.4c-0.5,0.2-2.3-0.5-2.3,0.5c-15-2.8-22.2,7.7-33.5,10.2
		c-10.9,2.5-20.9-0.2-33.8,2.3c-4.3-58.5-15-110.4-14.3-173.8c10.9-4.8,21.5-10.7,32.4-16.3c5.6-2.8,9.7-5.6,18.1-5.2
		c1.6-0.2,4.3,0.5,5.2-0.5c2.3,0,4.8,0,7.4,0c1.6-0.2,4.3,0.5,5.2-0.5c2.3,0,4.8,0,7.4,0c1.6-0.2,4.3,0.5,5.2-0.5
		C1480.9,357.1,1485,354.5,1490.1,352.7z"/>
	<path id="Mapo-gu" style="fill:#e7eff6;" d="M824.9,454.2c6.1,5.6,6.1,17.4,18.4,16.6c5.6,12.5,16.3,17.9,26.8,26.1
		c6.6,5.4,14.3,10,20.4,15.4c11.8,10.2,20.7,24,31.1,33.5c5.2,4.6,11.5,8.2,16.6,13.3c2,2.5,4.6,4.8,6.9,6.9c0.5,0,0.5,0.2,1.1,0.5
		c2.3,2.8,4.8,5.2,7.4,7.4c2,2.5,4.6,4.8,6.9,6.9c0.5,0,0.5,0.2,1.1,0.5c2,2.5,4.6,4.8,6.9,6.9c2,2,3.6,4.6,6.4,6.1
		c12.3,1.6,30.9,3.1,44.5,4.6c5.4,0.5,11.3,2.3,14.8,1.3c6.1-1.3,8.7-8.9,14.8-9.7c1.6,5.6,4.6,10.5,6.4,16.3
		c1.6,4.6,4.8,14.3,4.6,18.4s-4.6,17.9-6.1,21.5c-4.6,11.5-12.3,20.2-19.5,28.6c-9.7,11.5-21.3,22.7-31.5,31.5
		c-2.8-2.3-4.6-5.4-7.4-7.4c-2.8-2.3-5.6-4.3-8.4-6.4c-5.4-4.1-10.7-8.9-16.6-12.5c-18.4-10.7-38.6-18.1-58.5-25.6
		c-9.2-3.6-19.2-8.7-28.6-13.6c-9.5-4.6-19.9-8.7-28.4-14.1c-6.1-4.1-12.3-10.7-18.4-16.3c-15.9-13.8-31.1-26.6-46.5-40.4
		c-3.1-2.8-7.4-5.6-9.2-8.4c-3.6-4.8-4.6-11.5-7.4-16.6c-2.5-4.6-7.2-9.5-11.3-14.1c-6.4-7.4-11.5-15-19.9-19.2c0-0.2,0-0.2,0-0.5
		c7.7-2.5,15.4-14.1,23.3-15.9c8.4-1.8,17.4,0.7,27.4-1.1c3.1-3.1,6.9-6.6,10.7-10.7c2.8-3.1,8.7-8.2,9.7-11.5
		c0.5-2-0.2-4.6,0.5-6.4C816.2,461.3,821.8,459.3,824.9,454.2z"/>
	<path id="Nowon-gu" style="fill:#e7eff6;" d="M1456.4,196.4c-0.5,4.1-3.6,5.4-4.1,9.2c-0.7,3.8,0.2,17.2,1.3,21.5
		c0.7,3.1,6.4,13.6,8.4,14.8c5.6,3.6,14.8,1.3,21.7,2.8c7.4,1.6,13.8,5.2,20.4,6.9c2.5,10.5,0.2,19.2,2.8,28.4
		c2,7.2,8.9,11.8,6.4,22.2c-3.1,4.1-4.8,9.2-8.4,13c-4.1,1.6-8.2,0.5-11.5,2.3c-2.8,1.6-7.4,8.7-7.9,13c-0.7,6.1,2,11.8,5.6,15.4
		c-0.5,1.3-1.6,2.3-1.3,4.1c-5.4,1.3-9.5,4.1-17.2,3.4c-1.6,0.2-4.3-0.5-5.2,0.5c-2.3,0-4.8,0-7.4,0c-1.6,0.2-4.3-0.5-5.2,0.5
		c-2.3,0-4.8,0-7.4,0c-1.6,0.2-4.3-0.5-5.2,0.5c-11.3,0.2-20.2,6.9-28.6,11.3c-7.9,3.8-15.4,6.9-22.2,11.3
		c-10.7-2.8-22-4.8-32.4-7.9c-15.9-20.9-32.2-43.7-44.9-66.2c6.1-0.5,13-0.2,18.4-1.3c2.8-8.7,1.6-18.9,3.4-27.4
		c1.3-6.4,5.6-13,6.9-19.9c2-10,1.6-22.7,2.8-34.2c0.5-5.4,1.3-11.3,1.8-16.6s1.6-11.8,1.1-16.3c-1.1-6.4-4.8-13-7.4-19.5
		c-2.3-6.1-6.6-13.6-7.4-19.5c-0.5-3.6,1.1-7.9,1.3-12c0.5-3.8,0.2-8.4,1.1-12c2-9.7,8.4-19.9,10.7-30.6c2-9.2,0.5-20.2,2.8-28.4
		c5.4-8.7,14.5-7.9,24.5-13.3c3.4-1.8,8.2-5.6,11.3-8.4c2.8-2.8,5.4-7.9,7.9-8.9c3.1-1.3,9.7-1.6,13-1.1c2.8,0.5,6.1,4.6,9.2,6.9
		c7.4,5.6,12.3,8.9,19.2,14.3c3.1,2.3,6.4,6.1,9.2,7.4c7.9,3.4,14.3,1.6,23.5,5.2c4.1,14.3-1.8,18.1-7.4,26.6
		c-3.1,4.6-7.9,10-7.9,14.3c0,4.1,5.2,12.5,6.9,15.4c3.1,4.6,11.5,10.5,13,15.9c2,7.4-0.5,14.1,1.3,24c-3.1,4.3-14.5,6.4-16.6,11.3
		c-1.6,3.8,0.2,8.7-0.5,14.8C1456.1,191.2,1455.1,194.8,1456.4,196.4z"/>
	<path id="Seocho-gu" style="fill:#e7eff6;" d="M1199.3,736.8c4.6,11.5,14.3,22,18.1,34.7c1.6,5.6,2.3,12.5,3.4,18.4
		c1.1,6.4,0.5,13.8,2.8,19.2c2.8,6.4,12.5,10.2,14.3,16.3c2,6.1,0.7,14.8,1.3,22.2c1.3,15.6,2,30.2,10.2,38.1c2,2.3,4.1,4.6,6.4,6.4
		c2,2.5,4.6,4.8,6.9,6.9c4.8,4.1,12.3,5.4,17.7,8.9c4.6,4.8,8.9,9.5,14.1,14.1c5.6,23.3,7.9,49.9,20.9,66
		c11.8-3.6,25.6-8.7,41.4-9.7c2.3-3.1,4.6-5.9,6.9-9.7c2-3.1,3.1-7.9,6.4-10.2c7.4-5.2,28.4-9.7,39.4-5.2c3.6,1.3,5.4,5.4,8.4,6.4
		c1.1,0.7,1.1,2.8,1.1,4.6c0.2,1.3-0.5,4.1,0.5,4.6c0,2,0,4.1,0,6.1c0.2,2.3-0.5,5.9,0.5,7.4c0,0.5,0,1.3,0,1.8
		c3.4,5.2,7.4,9.2,10.7,14.3c10,4.8,18.1,12.3,24,21.5c-5.2,3.1-16.3,2.5-19.5,7.4c-2.3,3.6,0.2,8.2-0.5,13
		c-0.7,5.2-5.4,9.7-5.2,14.3c-5.9,1.6-14.8,0.2-18.1,4.1c-2.8,7.7-3.1,15-9.7,18.4c-4.1,2.3-13.3,3.4-19.2,4.6
		c-5.6,1.3-15.9,2-18.4,5.2c-3.1,3.6-2.8,12.3-3.8,17.7c-1.3,6.6-2.5,11.8-4.1,17.2c-6.1,0-12.3,0-18.4,0
		c-7.7-0.5-13.8-2.8-21.5-3.4c-9.2-5.9-20.2-13.6-30.2-19.9c-3.6-2.3-11.5-4.6-10.2-9.7c0.7-1.6,0.7-6.6,0-8.4
		c-2.3-15.4-7.2-28.6-10.7-42.7c0-1.6,0-3.6,0-5.2s0-3.1,0-4.6c0-5.4,0-10.7,0-16.3c1.1-1.6,0.2-5.4,0.5-7.9
		c-0.2-3.6,0.5-7.9-0.5-10.7c0.5-8.2-7.7-7.2-14.1-8.4c-5.6-1.1-9.7-3.6-14.3-2.8c-4.3,0.5-10.7,6.4-15.4,9.2
		c-4.8,3.1-11.5,5.9-15.4,9.2c-6.6,5.9-10.5,14.8-15.9,19.2c-4.3,0.7-11.8,0.7-16.3,0c-5.4-4.8-1.1-13.6-2.3-20.4
		c-0.7-3.8-6.6-10.2-9.2-11.3c-2-0.7-8.2-1.6-12,0c-3.8,1.6-3.8,6.1-7.4,8.9c-11.5-14.3-18.1-33.5-26.8-50.1
		c-0.2-6.1,0.5-13.8-0.5-19.2c-4.3-14.1-3.8-27.4-1.3-44c1.3-8.9,2.3-18.1,4.1-25c1.1-3.8,3.8-7.4,3.8-11.3
		c-0.2-4.6-3.8-8.9-5.6-12.5c-2-4.6-3.6-8.4-5.6-12.5c-6.6-1.1-13.8-1.3-21.5-1.3c-1.6-5.2-2.8-10.2-3.8-15.9
		c18.4-0.5,33.5,1.3,46.5-4.1c6.1-2.5,12.3-10,17.7-14.8C1167.6,770.3,1184.7,753.5,1199.3,736.8z"/>
	<path id="Seodaemun-gu" style="fill:#e7eff6;" d="M1055.9,550.8c4.8,5.6,11.5,9.7,16.3,15.4c-8.4,15-26.1,20.7-38.6,31.5
		c-12.5-1.3-27.9-3.1-42.2-4.6c-8.2-1.1-15.6-0.2-19.2-5.6c-2.3-2.8-4.8-5.2-7.4-7.4c-2-2.5-4.6-4.8-6.9-6.9
		c-0.2-0.2-0.5-0.5-1.1-0.5c-2.3-2.8-4.8-5.2-7.4-7.4c-2-2.5-4.6-4.8-6.9-6.9c-12.3-8.2-23.5-20.2-33.8-31.5
		c-3.8-4.1-13.6-10.9-14.3-15.9c-0.5-2.3,1.6-15.6,2.8-18.4c1.1-2,2.8-3.6,4.1-4.6c1.8-1.3,3.4-2.8,4.6-4.6c0-0.2,0-0.2,0-0.5
		c2-1.6,3.6-3.1,5.2-5.2c1.3-1.6,2-3.4,5.2-2.8c5.2,0,10.2,0,15.4,0c3.1-0.2,7.2,0.5,9.2-0.5c6.1,0.2,11.8,0,17.2-0.5
		c5.9-5.6,9.7-13.6,12.5-22.2c10-2.3,18.4-6.6,27.4-10.2c2.3-10,6.1-18.4,10.7-26.1c7.7-3.6,12.5-10.9,25-8.4c0,0.5,0,1.1,0,1.3
		c-1.1,2.3-0.2,6.9-0.5,10.2c0,3.6,0,7.2,0,10.7c4.1,4.1,10.7,5.6,16.3,8.4c2.8,10.5,5.4,20.9,7.4,32c-4.1,12.3-7.9,26.8-12,40.9
		c-1.3,4.8-4.1,9.7-4.1,13.6c-0.2,5.9,4.1,10.7,5.2,16.6c1.6,2,3.1,3.6,5.2,5.2C1052.3,547.5,1054.1,549.3,1055.9,550.8z"/>
	<path id="Seongbuk-gu" style="fill:#e7eff6;" d="M1127.8,276.6c4.3,3.1,6.1,10.7,10.7,14.1c6.1,4.1,14.5,3.8,21.5,7.4
		c4.1,2.3,8.2,6.1,12,9.2c12.3,9.2,24.3,19.2,35.8,28.4c3.6,14.8,7.2,29.4,10.7,44c5.6,3.1,9.5,8.2,19.5,6.9c3.4,0,6.4,0,9.7,0
		c1.8-0.2,4.8,0.5,6.1-0.5c3.1,0,5.9,0,8.9,0c3.4,0,6.4,0,9.7,0c1.8-0.2,4.8,0.5,6.1-0.5c13.3,1.8,17.4-5.6,25.6-9.2
		c7.9-15.4,15.9-30.2,24-44.9c4.8,6.1,9.2,13,14.3,20.4c3.6,4.8,10.2,17.4,15.4,19.9c8.9,4.8,21.7,3.4,32,8.4c0,2,0,4.3,0,6.4
		c-1.1,7.2-0.2,16.6-0.5,24.5c-22.5,7.4-50.8,8.4-66.7,22.2c-3.6,3.1-7.2,6.6-10.2,10.2c-5.4,7.9-9.2,17.4-14.3,25.6
		c-13.3,4.6-21.3,10-31.1,17.7c-3.1,2.3-7.7,4.1-9.2,6.9c-2.8,4.6-2.3,13-5.2,18.4c-1.1,2.3-7.4,10.2-9.2,10.7
		c-4.6,1.3-11.5-1.1-17.2-1.3c-5.6-0.5-11.5-0.7-17.7-1.1c-14.8-16.3-21.5-40.6-32.9-60.3c-6.6-1.3-11.8-6.1-19.5-7.9
		c-13.3-3.4-28.6-1.8-37-8.9c0.2-5.6,1.3-10.9,1.8-16.3c4.8-1.3,9.2-3.6,14.1-5.2c1.8-7.2,7.2-11.8,7.9-19.2
		c1.6-13.6-4.6-24.3-8.4-33.8c-2.3-5.9-5.2-11.8-6.9-18.1c-5.2-17.4-7.2-35.3-13-49.6c-4.6-3.4-10-5.4-13.6-9.7
		c6.1-1.6,12.3,1.1,16.6-1.1C1123.1,288.6,1123.4,279.9,1127.8,276.6z"/>
	<path id="Seongdong-gu" style="fill:#e7eff6;" d="M1262.4,563.3c2,0,4.1,0,6.1,0c4.8-3.1,3.8-11.8,13.6-10.2
		c0.5,1.1,3.1,0.2,4.6,0.5c8.7-0.2,16.6,0.5,25,1.1c2.3,6.6,4.3,13.8,6.4,20.9c22.7,7.9,46.5,15,67.8,24.5
		c-4.1,25.3-7.9,46-19.2,63.7c-3.8,6.1-10.9,10.5-13,16.6c-1.6,4.8-0.5,10.2-1.3,14.8c-1.3,8.4-4.3,15.6-6.1,24
		c-19.5-10-39.1-24.8-64.4-30.6c-5.4-1.3-12.5-1.1-19.2-1.3c-18.9-1.1-32.2,1.1-48.8,4.6c-3.6-14.3-7.2-28.8-11.3-43.1
		c5.9-9.7,9.7-21.3,15.4-31.1c2.5-2,4.8-4.6,6.9-6.9c2.8-2.3,5.2-4.8,7.4-7.4c5.6-4.8,8.2-12.5,12-19.2c1.1-1.6,0.2-5.2,0.5-7.4
		c0-2.5,0-5.4,0-7.9c1.1-1.1,0.2-4.1,0.5-6.1c0-2.3,0-4.6,0-6.9c4.6,1.8,5.6,7.2,12,6.9C1258.6,563.8,1261.1,562.8,1262.4,563.3z"/>
	<path id="Songpa-gu" style="fill:#e7eff6;" d="M1510.6,662.4c3.1,2.3,5.2,5.6,7.4,8.9c3.6,0.5,7.4,0.5,11.5,0.5
		c5.9,9.7,0.5,24.5-3.4,34.7c-1.3,3.6-4.6,8.7-4.1,11.3c0.7,5.4,12.5,9.2,14.8,14.1c4.1,7.4,6.4,16.8,11.3,23.5
		c5.6,1.8,13.3,1.6,19.9,2.3c5.4,5.4,11.5,10,21.7,10.7c-2.5,5.9-6.1,10.2-9.7,16.3c-2,3.6-9.5,13-8.9,17.7c0.5,3.8,6.6,4.6,7.9,9.2
		c1.3,5.4-1.1,7.7,0,14.3c9.2,13.6,31.5,14.3,47.8,20.9c2,1.1,6.1,0.2,8.9,0.5c1.1,3.4,0.2,8.7,0.5,12.5
		c-10.9,3.4-16.6,7.9-19.5,19.2c-2,7.9-1.1,18.1-3.8,25.6c-2,5.9-6.6,8.9-9.2,13.6c-5.4,2.5-11.5,1.3-15.4,4.6
		c-2,1.8-5.2,11.5-6.4,16.3c-1.1,3.6,1.1,8.2,0.5,11.3c-0.7,3.6-4.6,5.4-6.4,7.4c-2.3,0.2-5.9-0.5-7.4,0.5
		c-6.9,0.7-12.5-1.3-16.6,1.1c-3.6,1.8-5.2,8.9-6.9,13c-2.3,5.4-4.3,10-6.4,13.3c-5.6-13.6-12.5-26.1-20.4-37.6
		c-2.8-3.8-6.6-7.7-7.9-11.5c-3.6-10.5-2-22.5-6.1-33.8c-8.7-6.6-19.2-11.8-27.9-18.4c-1.3-4.1-2.3-8.4-3.8-12.5
		c-2.5-3.1-5.4-5.6-8.4-8.4c-12.3-3.8-27-3.1-38.6-6.9c-3.8-1.3-7.9-4.6-12-6.4c-9.2-4.6-15-7.7-22.2-13.3c-3.1-2.5-7.4-5.4-9.2-7.9
		c-3.8-5.2-5.2-11.8-8.9-18.1c-0.2-2,0.5-5.4-0.5-6.4c0-2.5,0-5.4,0-7.9c0-3.1,0-6.1,0-9.2c-0.2-1.6,0.5-4.6-0.5-5.6
		c0-2.8,0-5.6,0-8.4c0-3.1,0-6.1,0-9.2c-0.2-1.6,0.5-4.6-0.5-5.6c0-0.7,0-1.6,0-2.3c3.6,0.5,6.6,1.6,11.3,1.3c2,0,4.3,0,6.4,0
		c3.1,0,6.1,0,9.2,0c1.3-0.2,4.1,0.5,4.6-0.5c4.1,0,8.4,0,12.5,0c1.6-0.2,4.3,0.5,5.2-0.5c7.9-2,17.2-2.3,25-5.6
		c7.2-2.8,10.5-8.2,14.8-14.1c7.7-10,15-19.5,22.7-29.1c5.2-6.6,11.3-12.7,14.8-19.5C1503.1,678.9,1506.5,669.9,1510.6,662.4z"/>
	<path id="Yangcheon-gu" style="fill:#e7eff6;" d="M636.2,658.9c2.5-4.6,4.6-10,7.9-14.1c6.1,0.5,11.3-2.3,15.9-1.3
		c2,0.5,6.6,4.6,7.9,6.4c1.8,2.8,2.8,7.4,4.6,11.5c4.6,10.7,10.9,24.5,14.3,34.2c6.1,6.1,14.1,8.9,25,11.3c4.8,1.1,10,2.8,14.1,2.3
		c9.2-1.1,17.4-7.7,25-9.7c2-8.7,11.8-17.2,14.1-25c2.5-9.2-0.5-20.2,1.8-28.4c1.6-5.2,5.4-7.9,7.9-12c5.9,0.5,10,2.8,14.8,4.1
		c5.2,1.3,13.3-0.5,18.4,1.1c6.1,11.3,9.2,24.3,15.4,35.3c1.6,3.1,4.8,5.4,6.1,8.9c1.6,5.4-0.2,10.7,1.3,16.3
		c-8.2,7.9-17.7,14.3-25.6,22.2c0,4.6,0,9.2,0,14.1c-1.1,3.8-0.2,9.7-0.5,14.3c0,7.7,0,15.6,0,23.3c-2,11.5-8.2,18.9-12,28.6
		c-0.7,1.3-4.1-0.2-4.6,1.1c-13.3,0.5-27.6,2.8-35.3-4.1c-2.3-6.6-4.6-13.8-6.9-20.4c-4.1-0.7-8.7-1.1-13.3-1.1
		c-0.7-1.1-3.6-0.2-5.2-0.5c-2.3,0-4.6,0-6.9,0c-10,8.2-18.4,18.1-29.7,25c-3.8,0-7.7,0-11.5,0c-2,0.2-5.6-0.5-6.9,0.5
		c-1.8,0-3.8,0-5.6,0c-1.6-4.8-3.4-10-5.6-14.3c-8.9-1.6-17.9-3.1-26.8-4.6c1.8-7.2,10.5-17.7,11.5-25c1.6-10.9,0-25.8,0-39.9
		s2-29.4,0-40.4C643.9,670.1,637.5,664.2,636.2,658.9z"/>
	<path id="Yeongdeungpo-gu" style="fill:#e7eff6;" d="M808.8,722.3c3.6-3.1,7.7-6.6,12.5-10.7c3.4-2.8,10.9-7.2,12-11.3
		c1.6-5.4-1.8-10.7-1.1-18.1c-6.6-8.2-9.7-17.4-14.3-28.4c-4.6-10.7-10.2-18.9-9.7-33.5c11.8,8.2,20.2,20.2,32.4,28.4
		c5.9,3.8,13.3,6.4,19.9,9.7c19.5,9.7,39.6,20.9,61.6,27.4c3.8,18.6,4.6,37.6,11.5,51.9c4.8,10.2,14.8,14.5,23.5,20.9
		c0,0.2,0,0.2,0,0.5c-9.2,14.3-18.1,29.1-25,46c0.2,19.5-3.8,35.3-10.2,48.3c-8.7,2.3-20.9,2.3-28.4,6.1c-2.8,1.3-12.5,10-13.3,12.5
		c-2.8,6.6-0.5,15.9-3.8,24c-2.3,0.2-3.6,1.3-5.6,1.8c-6.4-3.8-12.5-8.2-18.4-12.5c0-1.1,0-2,0-3.4c-0.2-1.6,0.5-4.3-0.5-5.2
		c0-2.3,0-4.8,0-7.4c-0.2-1.6,0.5-4.3-0.5-5.2c0-2.5,0-5.4,0-7.9c-0.2-1.6,0.5-4.3-0.5-5.2c2.3-10.2-5.4-11.5-7.4-17.7
		c-2.3-6.4-1.8-14.3-3.8-21.7c-1.8-7.2-3.6-14.1-5.2-20.9c-8.7-5.4-18.1-10.5-26.8-15.9c0-7.9,0-15.9,0-23.5c0-6.6,0-13.8,0-20.4
		C809.2,729.5,808.5,725.4,808.8,722.3z M1005.6,747.9c-19.5-22-39.1-43.1-68.7-55.2c2,14.3,4.1,28.4,8.9,39.9
		c5.4,4.8,12,13.8,19.5,15.9c9.5,2.8,19.7,0.5,31.5,1.1C998.4,747.6,1006,750.2,1005.6,747.9z"/>
	<path id="Yongsan-gu" style="fill:#e7eff6;" d="M1134.9,624.7c7.9,5.4,10.7,15.9,26.6,13.6c1.1,1.1,3.8,0.2,5.6,0.5
		c2.8,0,5.6,0,8.4,0c1.1,1.1,3.8,0.2,5.6,0.5c7.4,3.1,13.8,7.4,19.9,11.5c2.8,14.5,7.9,29.1,10.2,42.7c-16.3,10-30.9,26.1-44.9,41.7
		c-10.7,11.8-21.5,21.3-32.9,32c-6.9,6.4-10,11.3-20.4,12c-12,1.3-33.8,1.6-42.7-1.8c-5.4-2-10-8.9-14.1-13.3
		c-4.6-5.4-8.7-10-12.5-14.8c-2-3.1-4.8-5.4-7.4-7.9c-2-0.5-2.8-2.3-4.1-3.8c-1.8-2.3-3.8-4.1-6.1-6.1c-1.6-2-3.6-3.8-5.6-5.6
		c-5.2-4.8-9.7-10.5-14.3-15.9c24-23.3,49.9-44.7,58-83.6c12.7-0.5,24.5-2.3,37.6-2.8c2.5,0,5.4,0,7.9,0c2-0.2,5.6,0.5,6.9-0.5
		c3.1,0,6.1,0,9.2,0C1129,623.4,1133.6,622.3,1134.9,624.7z"/>
</g>
<g>
	<text transform="matrix(1 0 0 1 593.0767 771.5918)" fill="#939598" font-family="'Helvetica Neue',Helvetica,Arial,sans-serif" font-weight='bold' font-size="5.1197">Kleifarvatn</text>
	<text transform="matrix(1 0 0 1 506.8916 793.6055)" fill="#939598" font-family="'Helvetica Neue',Helvetica,Arial,sans-serif" font-weight='bold' font-size="5.1197">Seltún Geothermal Area</text>
	<circle fill="#A8AAAD" cx="588.39" cy="773.176" r="2.979"/>
	<circle fill="#A8AAAD" cx="571.324" cy="789.997" r="2.978"/>
</g>
<g id="trail-path" display="none">
	<!--<path display="inline" fill="none" stroke="#010101" stroke-width="5" stroke-miterlimit="10" d="M629.401,665.289
		c-12.551,0.99-12.553,15.608-20.967,24.866c-3.251,0.812-6.501,1.624-9.752,2.438c0,1.951,0,3.9,0,5.851
		c-7.1,5.672-14.126,9.676-22.303,13.471c-24.045,11.163-50.968,19.764-73.444,33.678c-18.811,11.645-23.344,10.609-45.437,7.297
		c-8.486-1.273-20.111,13.275-29.129,18.797c-10.455,6.401-11.997,20.409-10.474,32.09c1.853,14.212-1.676,21.172-2.546,34.112
		c14.554-15.794,29.532,1.427,44.895-9.083c4.449-3.043,17.184-11.589,20.443-9.688c10.108,5.896,16.574-11.011,24.867-11.459
		c3.35-0.18,14.604,8.289,22.17,8.289c8.202,0,16.438,0.188,24.638,0c14.94-0.339,33.605,3.46,47.91-1.137
		c15.753-5.063,30.883-13.979,46.538-3.307c21.313,14.53,26.324,13.21,50.931,7.247c21.955-5.323,32.319-7.005,37.834-30.442
		c2.288-9.728-3.228-13.143,8.556-13.679c6.627-0.301,16.311-14.824,21.096-19.827c14.647-15.313,17.755-21.033,29.469,0.443
		c2.815,5.16,14.612,2.186,20.479,5.12c7.569,3.784,12.953-18.441,14.14-24.379c3.103-15.52,27.477-22.599,36.812-31.935
		c10.584-10.583,28.309-25.688,42.177-30.31c17.978-5.993,21.28-25.673,37.057-33.562c13.362-6.681,37.091-16.524,40.487-35.205
		c2.196-12.076-9.505-29.334,1.445-39.15c16.149-14.475,33.448,10.102,47.242-11.737c0.232-0.367,61,64.801,91.724,150.693
		c36.354,101.635,43.607,226.666,43.881,226.233"/>-->
	<path display="inline" fill="none" stroke="#010101" stroke-width="5" stroke-miterlimit="10" d="M1092,321c-12.6,101.7-32,74.8-37.5,124.1
		c2.3,24.5-18.3,48.4-48.9,60.5c-14.1,6.3-131.8,27.7-139.4,38.3c-38,53.4-1.3,82-16.6,147.7c-14.7,63.9,179.3,61.4,164.8,125.3
		c-1.5,7.2-45.2,99.8-49.3,114c-7.3,25.4,0.4,35.5,6.2,39.5c14.4,9.7,27.5,13.8,42.8,1c8-7.1,35.5-21.4,43.7-24.8
		c10.3-4.3,25.3-13.2,32.9-17.2c55-28.1,104.2-23.7,162.6-41.5c49.3-14.8,203.5-61.9,246.2-92.7c103.7-75.1,96.7-134.4,200.6-209.3"/>
</g>
<g id="camera-path" display="none">
	<!--<path display="inline" fill="none" stroke="#EC2227" stroke-width="3" stroke-miterlimit="10" d="M658.9,630.669
		c0,0-280.539,125.21-251.399,200.056c15.45,39.688,127.697-8.992,169.484-17.219c53.122-10.456,156.542-46.28,204.369-71.656
		c69.927-37.102,178.023-209.938,254.278-188.688c95.808,26.697,132.312,375.168,132.312,375.168"/>-->
	<path display="inline" fill="none" stroke="#EC2227" stroke-width="3" stroke-miterlimit="10" d="M1084.6,315.8c-20.4,63.3-44.5,82.5-64.6,145.9
		c-18.4,56.9-198.7,22.9-212.3,81.4c-49.4,95.1,51,137.6,79,149.6c7.7,3,66.2,37.9,83.5,44.1c10.1,6.2,44.2,31.1,44.3,43.3
		c5.5,13.7-107,139.2-71.4,213.5c3.1,6.7,143.1-30.8,157.8-37.1c8.4-3.8,21.4-18,33.6-25.1c24.3-14.6,32.7-17.8,58.3-23.5
		c10.6-2.4,51.2-9.8,61.7-12.2c33.4-7.6,46.7-20.1,84.4-30c25.9-4,50.6-11.1,69.6-20.8c23-11.4,24.1-2,43.6-22.6
		c33-34.6,66.2-69.6,90-112.6c23.5-42.8,137.1-85.2,125.7-133.5"/>
</g>
<g id="points" display="none">
	<!--<circle id="Reykjavík" display="inline" fill="#405b54" cx="629.957" cy="663.596" r="5.782"/>
	<circle id="Reykjanesta" display="inline" fill="#405b54" cx="415.661" cy="839.364" r="5.781"/>
	<circle id="Krísuvíkurbjarg" display="inline" fill="#405b54" cx="578.029" cy="815.96" r="5.781"/>
	<circle id="Hveragerði" display="inline" fill="#405b54" cx="781.354" cy="741.851" r="5.782"/>
	<circle id="Gullfoss" display="inline" fill="#405b54" cx="1035.633" cy="553.162" r="5.782"/>
	<circle id="Eyjafjallajökull" display="inline" fill="#405b54" cx="1169.476" cy="930.54" r="5.782"/>-->

	<circle id="종로구" display="inline" fill="#405b54" cx="1091.3" cy="327.1" r="5.6"/>
	<circle id="마포구" display="inline" fill="#405b54" cx="867.9" cy="543.9" r="5.6"/>
	<circle id="영등포구" display="inline" fill="#405b54" cx="849.6" cy="695.5" r="5.6"/>
	<circle id="동작구" display="inline" fill="#405b54" cx="1014.4" cy="816.9" r="5.6"/>
	<circle id="관악구" display="inline" fill="#405b54" cx="970.2" cy="970.4" r="5.6"/>
	<circle id="강남구" display="inline" fill="#405b54" cx="1187.1" cy="901.8" r="5.6"/>
	<circle id="송파구" display="inline" fill="#405b54" cx="1490.4" cy="803.9" r="5.6"/>
	<circle id="강동구" display="inline" fill="#405b54" cx="1639.8" cy="631.5" r="5.6"/>
</g>
</svg>
